<svg width="40" height="38" viewBox="0 0 40 38" fill="none" xmlns="http://www.w3.org/2000/svg">
<path d="M26 0H0V26H26V0Z" fill="#B5C5C3"/>
<path d="M16.75 38C16.75 31.58 21.96 26.37 28.38 26.37C34.8 26.37 40 31.58 40 38H16.75Z" fill="#33404F"/>
<path d="M28.37 25.21C31.2585 25.21 33.6 22.8684 33.6 19.98C33.6 17.0916 31.2585 14.75 28.37 14.75C25.4816 14.75 23.14 17.0916 23.14 19.98C23.14 22.8684 25.4816 25.21 28.37 25.21Z" fill="#33404F"/>
<path d="M15.23 19.46C18.1185 19.46 20.46 17.1184 20.46 14.23C20.46 11.3416 18.1185 9 15.23 9C12.3416 9 10 11.3416 10 14.23C10 17.1184 12.3416 19.46 15.23 19.46Z" fill="#33404F"/>
<path d="M25.19 25.9C23.09 22.87 19.59 20.88 15.63 20.88C9.21 20.87 4 26.08 4 32.5H16.61C18.39 29.23 21.49 26.8 25.19 25.9Z" fill="#33404F"/>
</svg>
