<?xml version="1.0" encoding="UTF-8"?>
<!DOCTYPE svg PUBLIC "-//W3C//DTD SVG 1.1//EN" "http://www.w3.org/Graphics/SVG/1.1/DTD/svg11.dtd">
<svg xmlns="http://www.w3.org/2000/svg" version="1.1" width="512px" height="512px" style="shape-rendering:geometricPrecision; text-rendering:geometricPrecision; image-rendering:optimizeQuality; fill-rule:evenodd; clip-rule:evenodd" xmlns:xlink="http://www.w3.org/1999/xlink">
<g><path style="opacity:0.997" fill="#2591ff" d="M 240.5,31.5 C 240.5,36.8333 240.5,42.1667 240.5,47.5C 232.862,48.3131 225.196,48.6464 217.5,48.5C 215.554,43.6042 214.887,38.2709 215.5,32.5C 223.65,31.5073 231.983,31.1739 240.5,31.5 Z"/></g>
<g><path style="opacity:0.966" fill="#2a8cff" d="M 240.5,31.5 C 249.722,31.1762 258.722,31.8429 267.5,33.5C 266.511,38.9753 266.178,44.642 266.5,50.5C 257.899,49.1476 249.232,48.1476 240.5,47.5C 240.5,42.1667 240.5,36.8333 240.5,31.5 Z"/></g>
<g><path style="opacity:0.965" fill="#2f87ff" d="M 267.5,33.5 C 275.725,34.224 283.725,35.8907 291.5,38.5C 291.822,44.358 291.489,50.0247 290.5,55.5C 282.614,53.3228 274.614,51.6561 266.5,50.5C 266.178,44.642 266.511,38.9753 267.5,33.5 Z"/></g>
<g><path style="opacity:0.951" fill="#1f99ff" d="M 215.5,32.5 C 214.887,38.2709 215.554,43.6042 217.5,48.5C 206.761,50.0496 196.094,52.3829 185.5,55.5C 185.789,49.4093 185.455,43.4093 184.5,37.5C 194.615,34.6783 204.948,33.0116 215.5,32.5 Z"/></g>
<g><path style="opacity:0.956" fill="#1a9fff" d="M 184.5,37.5 C 185.455,43.4093 185.789,49.4093 185.5,55.5C 176.545,57.707 167.879,60.707 159.5,64.5C 159.77,58.6211 159.436,52.6211 158.5,46.5C 166.665,42.3328 175.332,39.3328 184.5,37.5 Z"/></g>
<g><path style="opacity:0.96" fill="#347fff" d="M 291.5,38.5 C 301.928,41.0496 311.928,44.7163 321.5,49.5C 321.5,55.8333 321.5,62.1667 321.5,68.5C 311.334,63.5621 301.001,59.2288 290.5,55.5C 291.489,50.0247 291.822,44.358 291.5,38.5 Z"/></g>
<g><path style="opacity:0.961" fill="#15a5ff" d="M 158.5,46.5 C 159.436,52.6211 159.77,58.6211 159.5,64.5C 151.072,68.8836 142.739,73.5502 134.5,78.5C 134.205,71.4122 134.538,64.4122 135.5,57.5C 142.636,52.8899 150.302,49.2232 158.5,46.5 Z"/></g>
<g><path style="opacity:0.959" fill="#3978ff" d="M 321.5,49.5 C 331.044,54.072 340.044,59.4053 348.5,65.5C 347.509,71.979 347.176,78.6457 347.5,85.5C 339.138,79.3223 330.472,73.6557 321.5,68.5C 321.5,62.1667 321.5,55.8333 321.5,49.5 Z"/></g>
<g><path style="opacity:0.959" fill="#10adff" d="M 135.5,57.5 C 134.538,64.4122 134.205,71.4122 134.5,78.5C 122.293,86.7003 110.96,96.0336 100.5,106.5C 99.5084,99.3524 99.175,92.0191 99.5,84.5C 110.06,73.5561 122.06,64.5561 135.5,57.5 Z"/></g>
<g><path style="opacity:0.966" fill="#3f72ff" d="M 348.5,65.5 C 351.975,67.4072 355.309,69.5738 358.5,72C 363.695,76.3656 368.695,80.8656 373.5,85.5C 372.549,93.2912 372.216,100.958 372.5,108.5C 364.493,100.493 356.159,92.8267 347.5,85.5C 347.176,78.6457 347.509,71.979 348.5,65.5 Z"/></g>
<g><path style="opacity:0.966" fill="#436dff" d="M 373.5,85.5 C 382.762,94.0391 391.095,103.372 398.5,113.5C 398.827,123.348 398.494,133.014 397.5,142.5C 390.155,130.494 381.822,119.16 372.5,108.5C 372.216,100.958 372.549,93.2912 373.5,85.5 Z"/></g>
<g><path style="opacity:0.961" fill="#09b5ff" d="M 99.5,84.5 C 99.175,92.0191 99.5084,99.3524 100.5,106.5C 88.4259,120.32 78.0926,135.32 69.5,151.5C 68.8333,141.833 68.1667,132.167 67.5,122.5C 76.3168,108.344 86.9835,95.677 99.5,84.5 Z"/></g>
<g><path style="opacity:0.951" fill="#05b9ff" d="M 67.5,122.5 C 68.1667,132.167 68.8333,141.833 69.5,151.5C 62.9097,165.604 57.9097,180.27 54.5,195.5C 53.5037,180.009 53.1704,164.342 53.5,148.5C 57.1368,139.223 61.8035,130.556 67.5,122.5 Z"/></g>
<g><path style="opacity:0.957" fill="#02bdff" d="M 53.5,148.5 C 53.1704,164.342 53.5037,180.009 54.5,195.5C 49.1923,220.846 49.1923,246.179 54.5,271.5C 53.5034,288.325 53.1701,305.325 53.5,322.5C 34.574,282.015 29.4073,239.682 38,195.5C 41.3013,179.097 46.4679,163.431 53.5,148.5 Z"/></g>
<g><path style="opacity:0.962" fill="#2a8cff" d="M 241.5,154.5 C 250.43,154.486 258.763,156.486 266.5,160.5C 266.5,166.833 266.5,173.167 266.5,179.5C 259.118,175.039 251.118,172.373 242.5,171.5C 240.202,166.046 239.868,160.38 241.5,154.5 Z"/></g>
<g><path style="opacity:0.967" fill="#2295ff" d="M 241.5,154.5 C 239.868,160.38 240.202,166.046 242.5,171.5C 226.296,169.799 211.963,174.132 199.5,184.5C 198.509,178.021 198.176,171.354 198.5,164.5C 211.656,156.334 225.989,153.001 241.5,154.5 Z"/></g>
<g><path style="opacity:0.987" fill="#4965ff" d="M 398.5,113.5 C 411.344,130.848 421.344,149.848 428.5,170.5C 427.501,216.997 427.168,263.664 427.5,310.5C 418.506,304.503 408.839,299.837 398.5,296.5C 399.053,290.208 398.386,284.208 396.5,278.5C 402.385,279.388 408.052,281.055 413.5,283.5C 414.086,283.291 414.586,282.957 415,282.5C 428.114,233.462 422.28,186.796 397.5,142.5C 398.494,133.014 398.827,123.348 398.5,113.5 Z"/></g>
<g><path style="opacity:0.956" fill="#2f86ff" d="M 266.5,160.5 C 276.876,164.217 285.209,170.55 291.5,179.5C 291.5,191.5 291.5,203.5 291.5,215.5C 287.949,200.265 279.615,188.265 266.5,179.5C 266.5,173.167 266.5,166.833 266.5,160.5 Z"/></g>
<g><path style="opacity:0.956" fill="#4d61ff" d="M 428.5,170.5 C 442.194,210.431 442.861,250.597 430.5,291C 439.236,297.565 447.236,305.065 454.5,313.5C 453.857,323.265 453.19,332.932 452.5,342.5C 446.559,329.943 438.225,319.277 427.5,310.5C 427.168,263.664 427.501,216.997 428.5,170.5 Z"/></g>
<g><path style="opacity:0.966" fill="#1b9eff" d="M 198.5,164.5 C 198.176,171.354 198.509,178.021 199.5,184.5C 179.508,203.486 174.841,225.819 185.5,251.5C 185.5,260.5 185.5,269.5 185.5,278.5C 168.865,262.869 161.365,243.536 163,220.5C 165.522,195.761 177.355,177.094 198.5,164.5 Z"/></g>
<g><path style="opacity:0.964" fill="#3282ff" d="M 291.5,179.5 C 309.1,201.223 313.6,225.557 305,252.5C 301.654,261.211 296.821,268.878 290.5,275.5C 291.802,263.372 291.802,251.372 290.5,239.5C 292.656,231.584 292.989,223.584 291.5,215.5C 291.5,203.5 291.5,191.5 291.5,179.5 Z"/></g>
<g><path style="opacity:0.96" fill="#2f86ff" d="M 290.5,239.5 C 291.802,251.372 291.802,263.372 290.5,275.5C 285.794,280.695 280.461,285.195 274.5,289C 280.317,290.745 285.65,293.245 290.5,296.5C 291.458,302.744 291.791,309.077 291.5,315.5C 283.035,310.932 274.368,306.932 265.5,303.5C 266.494,293.681 266.827,283.681 266.5,273.5C 279.401,265.721 287.401,254.388 290.5,239.5 Z"/></g>
<g><path style="opacity:0.977" fill="#1f98ff" d="M 185.5,251.5 C 192.309,263.972 202.309,272.972 215.5,278.5C 215.5,286.167 215.5,293.833 215.5,301.5C 205.05,303.983 195.05,307.649 185.5,312.5C 185.823,306.31 185.49,300.31 184.5,294.5C 188.513,292.167 192.846,290.334 197.5,289C 192.866,286.189 188.866,282.689 185.5,278.5C 185.5,269.5 185.5,260.5 185.5,251.5 Z"/></g>
<g><path style="opacity:0.959" fill="#06b9ff" d="M 54.5,271.5 C 59.3098,294.446 67.9765,315.779 80.5,335.5C 79.5067,344.318 79.1734,353.318 79.5,362.5C 72.7629,355.586 66.9296,347.92 62,339.5C 58.6284,334.09 55.7951,328.423 53.5,322.5C 53.1701,305.325 53.5034,288.325 54.5,271.5 Z"/></g>
<g><path style="opacity:0.969" fill="#436dff" d="M 372.5,276.5 C 380.642,276.115 388.642,276.782 396.5,278.5C 398.386,284.208 399.053,290.208 398.5,296.5C 389.975,294.378 381.309,293.378 372.5,293.5C 372.5,287.833 372.5,282.167 372.5,276.5 Z"/></g>
<g><path style="opacity:0.96" fill="#2a8cff" d="M 266.5,273.5 C 266.827,283.681 266.494,293.681 265.5,303.5C 256.642,301.268 247.642,299.934 238.5,299.5C 240.379,294.13 241.045,288.463 240.5,282.5C 249.835,281.336 258.502,278.336 266.5,273.5 Z"/></g>
<g><path style="opacity:0.958" fill="#3b77ff" d="M 372.5,276.5 C 372.5,282.167 372.5,287.833 372.5,293.5C 354.296,294.235 337.63,299.569 322.5,309.5C 321.193,303.266 321.193,296.932 322.5,290.5C 337.724,281.19 354.391,276.523 372.5,276.5 Z"/></g>
<g><path style="opacity:0.962" fill="#2592ff" d="M 215.5,278.5 C 223.54,281.451 231.873,282.784 240.5,282.5C 241.045,288.463 240.379,294.13 238.5,299.5C 230.751,299.352 223.084,300.019 215.5,301.5C 215.5,293.833 215.5,286.167 215.5,278.5 Z"/></g>
<g><path style="opacity:0.958" fill="#3380ff" d="M 322.5,290.5 C 321.193,296.932 321.193,303.266 322.5,309.5C 307.38,321.618 297.046,336.951 291.5,355.5C 291.828,343.322 291.495,331.322 290.5,319.5C 292.138,318.295 292.471,316.962 291.5,315.5C 291.791,309.077 291.458,302.744 290.5,296.5C 295.257,298.045 299.591,300.379 303.5,303.5C 309.046,297.943 315.38,293.61 322.5,290.5 Z"/></g>
<g><path style="opacity:0.966" fill="#1a9fff" d="M 184.5,294.5 C 185.49,300.31 185.823,306.31 185.5,312.5C 181.349,315.803 177.015,318.97 172.5,322C 168.298,326.37 163.964,330.537 159.5,334.5C 159.5,326.833 159.5,319.167 159.5,311.5C 166.612,304.105 174.946,298.438 184.5,294.5 Z"/></g>
<g><path style="opacity:0.962" fill="#15a6ff" d="M 159.5,311.5 C 159.5,319.167 159.5,326.833 159.5,334.5C 147.381,350.255 140.047,368.088 137.5,388C 137.559,389.436 137.892,390.769 138.5,392C 145.562,395.861 152.562,399.695 159.5,403.5C 159.5,409.5 159.5,415.5 159.5,421.5C 150.732,418.282 142.399,414.282 134.5,409.5C 134.831,387.327 134.497,365.327 133.5,343.5C 139.812,330.85 148.479,320.183 159.5,311.5 Z"/></g>
<g><path style="opacity:0.971" fill="#3e73ff" d="M 383.5,326.5 C 382.518,323.038 382.185,319.371 382.5,315.5C 379.167,315.5 375.833,315.5 372.5,315.5C 372.5,357.5 372.5,399.5 372.5,441.5C 370.5,441.5 368.5,441.5 366.5,441.5C 366.5,437.5 366.5,433.5 366.5,429.5C 356.45,428.651 347.45,425.151 339.5,419C 333.655,413.81 330.655,407.31 330.5,399.5C 336.167,399.5 341.833,399.5 347.5,399.5C 348.091,402.614 349.758,405.114 352.5,407C 356.582,409.373 360.916,411.206 365.5,412.5C 366.498,403.525 366.832,394.525 366.5,385.5C 359.202,385.287 352.535,383.287 346.5,379.5C 347.167,372.833 347.833,366.167 348.5,359.5C 353.365,364.599 359.365,367.599 366.5,368.5C 366.831,360.14 366.498,351.807 365.5,343.5C 358.216,344.802 352.216,348.135 347.5,353.5C 347.5,346.167 347.5,338.833 347.5,331.5C 353.519,328.745 359.853,327.078 366.5,326.5C 366.5,322.5 366.5,318.5 366.5,314.5C 372.167,314.5 377.833,314.5 383.5,314.5C 383.5,318.5 383.5,322.5 383.5,326.5 Z"/></g>
<g><path style="opacity:0.991" fill="#426eff" d="M 383.5,326.5 C 386.428,326.565 389.095,327.232 391.5,328.5C 391.144,334.077 390.144,339.41 388.5,344.5C 386.856,344.714 385.356,344.38 384,343.5C 383.5,352.494 383.334,361.494 383.5,370.5C 385.903,370.448 388.236,370.781 390.5,371.5C 390.822,377.358 390.489,383.025 389.5,388.5C 387.5,388.167 385.5,387.833 383.5,387.5C 383.334,395.84 383.5,404.173 384,412.5C 386.087,411.603 388.254,410.936 390.5,410.5C 390.5,416.5 390.5,422.5 390.5,428.5C 388.139,428.674 385.806,429.007 383.5,429.5C 383.5,433.5 383.5,437.5 383.5,441.5C 379.833,441.5 376.167,441.5 372.5,441.5C 372.5,399.5 372.5,357.5 372.5,315.5C 375.833,315.5 379.167,315.5 382.5,315.5C 382.185,319.371 382.518,323.038 383.5,326.5 Z"/></g>
<g><path style="opacity:0.964" fill="#2f86ff" d="M 290.5,319.5 C 291.495,331.322 291.828,343.322 291.5,355.5C 290.05,363.264 289.05,371.098 288.5,379C 289.043,387.637 290.377,396.137 292.5,404.5C 292.158,415.04 291.158,425.374 289.5,435.5C 288.405,433.642 287.071,431.975 285.5,430.5C 279.264,432.309 272.93,433.643 266.5,434.5C 266.214,428.741 266.548,423.075 267.5,417.5C 271.22,416.758 274.886,415.591 278.5,414C 266.474,380.362 270.474,348.862 290.5,319.5 Z"/></g>
<g><path style="opacity:0.966" fill="#525aff" d="M 454.5,313.5 C 478.239,344.466 483.406,378.466 470,415.5C 465.993,425.533 460.493,434.533 453.5,442.5C 453.827,432.652 453.494,422.986 452.5,413.5C 463.081,389.857 463.081,366.19 452.5,342.5C 453.19,332.932 453.857,323.265 454.5,313.5 Z"/></g>
<g><path style="opacity:0.949" fill="#4768ff" d="M 391.5,328.5 C 404.052,330.854 412.885,337.854 418,349.5C 418.497,351.81 418.663,354.143 418.5,356.5C 412.833,356.5 407.167,356.5 401.5,356.5C 401.451,353.901 400.451,351.734 398.5,350C 395.233,347.87 391.9,346.037 388.5,344.5C 390.144,339.41 391.144,334.077 391.5,328.5 Z"/></g>
<g><path style="opacity:0.958" fill="#3a77ff" d="M 347.5,331.5 C 347.5,338.833 347.5,346.167 347.5,353.5C 347.325,355.621 347.659,357.621 348.5,359.5C 347.833,366.167 347.167,372.833 346.5,379.5C 329.856,370.065 326.356,357.065 336,340.5C 339.136,336.522 342.969,333.522 347.5,331.5 Z"/></g>
<g><path style="opacity:0.957" fill="#0cb3ff" d="M 80.5,335.5 C 88.6703,347.682 98.0037,359.015 108.5,369.5C 108.5,376.833 108.5,384.167 108.5,391.5C 97.1455,383.479 87.4788,373.812 79.5,362.5C 79.1734,353.318 79.5067,344.318 80.5,335.5 Z"/></g>
<g><path style="opacity:0.961" fill="#11aaff" d="M 133.5,343.5 C 134.497,365.327 134.831,387.327 134.5,409.5C 125.099,404.474 116.432,398.474 108.5,391.5C 108.5,384.167 108.5,376.833 108.5,369.5C 112.792,372.62 116.959,375.953 121,379.5C 123.286,366.807 127.453,354.807 133.5,343.5 Z"/></g>
<g><path style="opacity:0.96" fill="#4769ff" d="M 390.5,371.5 C 404.121,373.963 413.288,381.629 418,394.5C 419.57,407.861 414.403,417.694 402.5,424C 398.51,425.607 394.51,427.107 390.5,428.5C 390.5,422.5 390.5,416.5 390.5,410.5C 405.31,402.8 404.976,395.466 389.5,388.5C 390.489,383.025 390.822,377.358 390.5,371.5 Z"/></g>
<g><path style="opacity:0.961" fill="#1a9fff" d="M 159.5,403.5 C 168.028,406.898 176.694,409.898 185.5,412.5C 186.117,418.598 185.45,424.265 183.5,429.5C 175.085,427.806 167.085,425.14 159.5,421.5C 159.5,415.5 159.5,409.5 159.5,403.5 Z"/></g>
<g><path style="opacity:0.962" fill="#3480ff" d="M 292.5,404.5 C 298.27,420.611 307.936,433.945 321.5,444.5C 321.824,451.354 321.491,458.021 320.5,464.5C 307.926,457.26 297.593,447.594 289.5,435.5C 291.158,425.374 292.158,415.04 292.5,404.5 Z"/></g>
<g><path style="opacity:0.952" fill="#4d60ff" d="M 452.5,413.5 C 453.494,422.986 453.827,432.652 453.5,442.5C 445.836,453.661 435.836,461.995 423.5,467.5C 422.833,461.5 422.167,455.5 421.5,449.5C 434.649,440.011 444.983,428.011 452.5,413.5 Z"/></g>
<g><path style="opacity:0.964" fill="#2098ff" d="M 185.5,412.5 C 194.624,415.355 203.957,417.355 213.5,418.5C 215.798,423.954 216.132,429.62 214.5,435.5C 203.817,434.667 193.484,432.667 183.5,429.5C 185.45,424.265 186.117,418.598 185.5,412.5 Z"/></g>
<g><path style="opacity:0.957" fill="#2a8cff" d="M 267.5,417.5 C 266.548,423.075 266.214,428.741 266.5,434.5C 257.899,435.924 249.233,436.591 240.5,436.5C 240.214,430.741 240.548,425.075 241.5,419.5C 250.208,419.328 258.875,418.661 267.5,417.5 Z"/></g>
<g><path style="opacity:0.939" fill="#2591ff" d="M 213.5,418.5 C 222.805,419.354 232.139,419.687 241.5,419.5C 240.548,425.075 240.214,430.741 240.5,436.5C 231.8,436.711 223.133,436.377 214.5,435.5C 216.132,429.62 215.798,423.954 213.5,418.5 Z"/></g>
<g><path style="opacity:0.958" fill="#4867ff" d="M 421.5,449.5 C 422.167,455.5 422.833,461.5 423.5,467.5C 415.546,472.469 406.88,475.802 397.5,477.5C 398.455,471.591 398.789,465.591 398.5,459.5C 406.547,456.975 414.214,453.641 421.5,449.5 Z"/></g>
<g><path style="opacity:0.961" fill="#3978ff" d="M 321.5,444.5 C 329.793,450.812 338.793,455.812 348.5,459.5C 347.511,464.975 347.178,470.642 347.5,476.5C 337.811,473.818 328.811,469.818 320.5,464.5C 321.491,458.021 321.824,451.354 321.5,444.5 Z"/></g>
<g><path style="opacity:0.954" fill="#3e73ff" d="M 348.5,459.5 C 356.882,461.382 365.215,462.715 373.5,463.5C 372.198,468.734 372.198,474.067 373.5,479.5C 364.666,479.805 355.999,478.805 347.5,476.5C 347.178,470.642 347.511,464.975 348.5,459.5 Z"/></g>
<g><path style="opacity:0.967" fill="#436dff" d="M 398.5,459.5 C 398.789,465.591 398.455,471.591 397.5,477.5C 389.601,479.094 381.601,479.76 373.5,479.5C 372.198,474.067 372.198,468.734 373.5,463.5C 381.963,462.989 390.296,461.656 398.5,459.5 Z"/></g>
</svg>
