<svg width="46" height="54" viewBox="0 0 46 54" fill="none" xmlns="http://www.w3.org/2000/svg">
<path d="M43.5467 38.6133L39.8 36.84L39.84 22.4667C39.84 15.3467 35.3733 9.26667 29.0933 6.85333V6.2C29.08 2.96 26.36 0.333332 23 0.333332C19.64 0.333332 16.92 2.96 16.92 6.2V6.90667C10.7333 9.37333 6.33334 15.4133 6.33334 22.4667L6.29334 36.84L2.46668 38.6C1.18668 39.0933 0.333344 40.3333 0.333344 41.7067V45.1467C0.333344 46.9867 1.82668 48.48 3.66668 48.48H16.32C16.9733 51.56 19.72 53.8933 23 53.8933C26.28 53.8933 29.0267 51.5733 29.68 48.48H42.3333C44.1733 48.48 45.6667 46.9867 45.6667 45.1467V41.7067C45.6667 40.3333 44.8133 39.1067 43.5467 38.6133ZM23 4.33333C23.92 4.33333 24.6933 4.86667 24.9733 5.6C24.4267 5.53333 23.88 5.50667 23.3467 5.49333C22.5867 5.49333 21.8133 5.52 21.04 5.6C21.3067 4.86667 22.08 4.33333 23 4.33333ZM23 49.8933C21.96 49.8933 21.0533 49.32 20.56 48.48H25.44C24.9467 49.32 24.04 49.8933 23 49.8933ZM41.6667 44.48H4.33334V42.1467L8.16001 40.3733C9.44001 39.88 10.2933 38.6533 10.2933 37.2667L10.3333 22.4667C10.3333 15.44 16.0533 9.72 23.08 9.72C30.1067 9.72 35.8267 15.44 35.8267 22.4667L35.7867 37.2667C35.7867 38.6533 36.6267 39.88 37.9067 40.3867L41.6667 42.1467V44.48Z" fill="#33404F"/>
<path d="M21.6667 13.0533C16.7067 13.0533 12.6801 17.08 12.6801 22.04C12.6801 23.1467 13.5734 24.04 14.6801 24.04C15.7867 24.04 16.6801 23.1467 16.6801 22.04C16.6801 19.2933 18.9201 17.0533 21.6667 17.0533C22.7734 17.0533 23.6667 16.16 23.6667 15.0533C23.6667 13.9467 22.7734 13.0533 21.6667 13.0533Z" fill="#33404F"/>
</svg>
