<?xml version="1.0" encoding="UTF-8"?>
<!DOCTYPE svg PUBLIC "-//W3C//DTD SVG 1.1//EN" "http://www.w3.org/Graphics/SVG/1.1/DTD/svg11.dtd">
<svg xmlns="http://www.w3.org/2000/svg" version="1.1" width="512px" height="512px" style="shape-rendering:geometricPrecision; text-rendering:geometricPrecision; image-rendering:optimizeQuality; fill-rule:evenodd; clip-rule:evenodd" xmlns:xlink="http://www.w3.org/1999/xlink">
<g><path style="opacity:0.999" fill="#56a2fd" d="M 255.5,78.5 C 255.5,100.833 255.5,123.167 255.5,145.5C 340.833,145.5 426.167,145.5 511.5,145.5C 511.5,145.833 511.5,146.167 511.5,146.5C 426.167,146.5 340.833,146.5 255.5,146.5C 170.167,146.5 84.8333,146.5 -0.5,146.5C -0.5,136.167 -0.5,125.833 -0.5,115.5C 4.64345,96.1906 16.9768,84.024 36.5,79C 109.499,78.5 182.499,78.3333 255.5,78.5 Z"/></g>
<g><path style="opacity:1" fill="#2488ff" d="M 255.5,78.5 C 328.501,78.3333 401.501,78.5 474.5,79C 494.006,84.0063 506.339,96.1729 511.5,115.5C 511.5,125.5 511.5,135.5 511.5,145.5C 426.167,145.5 340.833,145.5 255.5,145.5C 255.5,123.167 255.5,100.833 255.5,78.5 Z"/></g>
<g><path style="opacity:1" fill="#4b4e52" d="M -0.5,146.5 C 84.8333,146.5 170.167,146.5 255.5,146.5C 255.5,168.833 255.5,191.167 255.5,213.5C 340.833,213.5 426.167,213.5 511.5,213.5C 511.5,213.833 511.5,214.167 511.5,214.5C 426.167,214.5 340.833,214.5 255.5,214.5C 170.167,214.5 84.8333,214.5 -0.5,214.5C -0.5,191.833 -0.5,169.167 -0.5,146.5 Z"/></g>
<g><path style="opacity:1" fill="#30353a" d="M 255.5,146.5 C 340.833,146.5 426.167,146.5 511.5,146.5C 511.5,168.833 511.5,191.167 511.5,213.5C 426.167,213.5 340.833,213.5 255.5,213.5C 255.5,191.167 255.5,168.833 255.5,146.5 Z"/></g>
<g><path style="opacity:0.999" fill="#57a4fe" d="M -0.5,214.5 C 84.8333,214.5 170.167,214.5 255.5,214.5C 255.5,287.167 255.5,359.833 255.5,432.5C 182.833,432.667 110.166,432.5 37.5,432C 17.5751,427.235 4.90842,415.068 -0.5,395.5C -0.5,335.167 -0.5,274.833 -0.5,214.5 Z"/></g>
<g><path style="opacity:1" fill="#2488fe" d="M 255.5,214.5 C 340.833,214.5 426.167,214.5 511.5,214.5C 511.5,274.833 511.5,335.167 511.5,395.5C 505.905,414.926 493.239,427.093 473.5,432C 400.834,432.5 328.167,432.667 255.5,432.5C 255.5,359.833 255.5,287.167 255.5,214.5 Z"/></g>
<g><path style="opacity:1" fill="#d7e4fc" d="M 311.5,269.5 C 354.168,269.333 396.835,269.5 439.5,270C 447.5,275 447.5,280 439.5,285C 396.833,285.667 354.167,285.667 311.5,285C 308.587,283.187 306.921,280.52 306.5,277C 307.546,274.114 309.213,271.614 311.5,269.5 Z"/></g>
<g><path style="opacity:1" fill="#eaa82c" d="M 73.5,277.5 C 74.1782,320.996 94.5116,351.163 134.5,368C 111.836,368.5 89.1691,368.667 66.5,368.5C 55.1125,366.283 47.6125,359.616 44,348.5C 43.3333,331.5 43.3333,314.5 44,297.5C 49.1311,283.865 58.9644,277.198 73.5,277.5 Z"/></g>
<g><path style="opacity:1" fill="#fec150" d="M 73.5,277.5 C 102.502,277.333 131.502,277.5 160.5,278C 171.238,281.071 178.404,287.904 182,298.5C 182.667,314.5 182.667,330.5 182,346.5C 179.087,359.078 171.254,366.578 158.5,369C 127.664,369.831 96.9973,369.664 66.5,368.5C 89.1691,368.667 111.836,368.5 134.5,368C 94.5116,351.163 74.1782,320.996 73.5,277.5 Z"/></g>
<g><path style="opacity:1" fill="#d6e4fc" d="M 311.5,315.5 C 354.501,315.333 397.501,315.5 440.5,316C 444.277,318.911 445.444,322.744 444,327.5C 442.786,329.049 441.286,330.215 439.5,331C 396.833,331.667 354.167,331.667 311.5,331C 304.845,325.657 304.845,320.49 311.5,315.5 Z"/></g>
<g><path style="opacity:1" fill="#d4e3fc" d="M 310.5,361.5 C 332.503,361.333 354.503,361.5 376.5,362C 377.931,362.465 379.097,363.299 380,364.5C 381.928,370.479 380.095,374.646 374.5,377C 353.833,377.667 333.167,377.667 312.5,377C 305.395,372.645 304.728,367.479 310.5,361.5 Z"/></g>
</svg>
