<svg width="750" height="355" viewBox="0 0 750 355" fill="none" xmlns="http://www.w3.org/2000/svg">
<path d="M75.8848 316.316C76.1191 320.096 79.2686 322.513 83.9561 322.513C88.9658 322.513 92.1006 319.979 92.1006 315.936C92.1006 312.757 90.3135 310.999 85.9775 309.988L83.6484 309.417C80.8945 308.772 79.7812 307.908 79.7812 306.399C79.7812 304.495 81.5098 303.25 84.1025 303.25C86.5635 303.25 88.2627 304.466 88.5703 306.414H91.7637C91.5732 302.854 88.4385 300.35 84.1465 300.35C79.5322 300.35 76.4561 302.854 76.4561 306.619C76.4561 309.725 78.1992 311.57 82.0225 312.464L84.7471 313.123C87.5449 313.782 88.7754 314.749 88.7754 316.36C88.7754 318.235 86.8418 319.598 84.2051 319.598C81.3779 319.598 79.415 318.323 79.1367 316.316H75.8848Z" fill="#33404F"/>
<path d="M191.527 322V300.862H187.689L180.951 316.917H180.702L173.978 300.862H170.14V322H173.187V306.736H173.392L179.588 321.385H182.078L188.275 306.736H188.48V322H191.527Z" fill="#33404F"/>
<path d="M279.307 322V303.851H285.943V300.862H269.376V303.851H276.026V322H279.307Z" fill="#33404F"/>
<path d="M374.883 303.487H375.088L379.629 319H382.72L388.433 297.862H385.02L381.152 314.049H380.947L376.509 297.862H373.462L369.053 314.049H368.848L364.966 297.862H361.553L367.251 319H370.356L374.883 303.487Z" fill="#33404F"/>
<path d="M473.974 322V303.851H480.61V300.862H464.042V303.851H470.693V322H473.974Z" fill="#33404F"/>
<path d="M565.869 322V313.24H574.951V310.34H565.869V303.851H575.786V300.862H562.588V322H565.869Z" fill="#33404F"/>
<path d="M657.885 316.316C658.119 320.096 661.269 322.513 665.956 322.513C670.966 322.513 674.101 319.979 674.101 315.936C674.101 312.757 672.313 310.999 667.978 309.988L665.648 309.417C662.895 308.772 661.781 307.908 661.781 306.399C661.781 304.495 663.51 303.25 666.103 303.25C668.563 303.25 670.263 304.466 670.57 306.414H673.764C673.573 302.854 670.438 300.35 666.146 300.35C661.532 300.35 658.456 302.854 658.456 306.619C658.456 309.725 660.199 311.57 664.022 312.464L666.747 313.123C669.545 313.782 670.775 314.749 670.775 316.36C670.775 318.235 668.842 319.598 666.205 319.598C663.378 319.598 661.415 318.323 661.137 316.316H657.885Z" fill="#33404F"/>
<circle cx="401" cy="65" r="13" fill="#010101"/>
<circle cx="628" cy="53" r="13" fill="#008CC8"/>
<path d="M365.477 41.9922V40.0732C369.769 39.707 372.244 37.4658 372.244 33.877C372.244 30.8447 370.516 28.9844 366.839 28.0908L365.477 27.7832V21.4697C367.41 21.7041 368.729 22.9639 368.787 24.5752H371.849C371.761 21.3086 369.271 18.9941 365.477 18.6572V16.6357H363.47V18.6572C359.515 19.0234 357.112 21.2646 357.112 24.6484C357.112 27.5049 358.899 29.4678 362.166 30.3027L363.47 30.6396V37.3193C361.287 37.0703 359.881 35.8545 359.734 34.1113H356.629C356.644 37.5098 359.28 39.8096 363.47 40.0879V41.9922H365.477ZM369.124 34.2139C369.124 36.0742 367.791 37.2168 365.477 37.3486V31.0205C367.967 31.5186 369.124 32.5293 369.124 34.2139ZM360.247 24.3848C360.247 22.7881 361.595 21.5576 363.47 21.4551V27.3584C361.36 26.9336 360.247 25.8936 360.247 24.3848ZM381.751 40H385.032V18.8623H381.766L376.199 22.7881V26.1426L381.502 22.3926H381.751V40ZM392.078 40H395.521L404.72 21.8359V18.8623H390.32V21.7773H401.395V22.0117L392.078 40ZM416.731 40H419.896V35.9131H422.811V32.9834H419.896V18.8623H415.223C411.458 24.502 408.309 29.4092 406.419 32.8662V35.9131H416.731V40ZM409.568 32.8516C412.059 28.5303 414.49 24.7803 416.585 21.748H416.775V33.0566H409.568V32.8516Z" fill="#33404F"/>
<path d="M601.424 30.9922V29.0732C605.716 28.707 608.191 26.4658 608.191 22.877C608.191 19.8447 606.463 17.9844 602.786 17.0908L601.424 16.7832V10.4697C603.357 10.7041 604.676 11.9639 604.734 13.5752H607.796C607.708 10.3086 605.218 7.99414 601.424 7.65723V5.63574H599.417V7.65723C595.462 8.02344 593.06 10.2646 593.06 13.6484C593.06 16.5049 594.847 18.4678 598.113 19.3027L599.417 19.6396V26.3193C597.234 26.0703 595.828 24.8545 595.682 23.1113H592.576C592.591 26.5098 595.228 28.8096 599.417 29.0879V30.9922H601.424ZM605.071 23.2139C605.071 25.0742 603.738 26.2168 601.424 26.3486V20.0205C603.914 20.5186 605.071 21.5293 605.071 23.2139ZM596.194 13.3848C596.194 11.7881 597.542 10.5576 599.417 10.4551V16.3584C597.308 15.9336 596.194 14.8936 596.194 13.3848ZM622.356 29H625.521V24.9131H628.436V21.9834H625.521V7.8623H620.848C617.083 13.502 613.934 18.4092 612.044 21.8662V24.9131H622.356V29ZM615.193 21.8516C617.684 17.5303 620.115 13.7803 622.21 10.748H622.4V22.0566H615.193V21.8516ZM639.759 29.5127C644.314 29.5127 647.405 26.5391 647.405 22.1592C647.405 17.999 644.578 15.0693 640.564 15.0693C638.558 15.0693 637.063 15.7432 636.097 16.9883H635.848L636.404 10.792H646.175V7.8623H633.841L632.728 19.9619H635.73C636.551 18.5996 638.016 17.7939 639.832 17.7939C642.41 17.7939 644.197 19.5957 644.197 22.2471C644.197 24.8838 642.425 26.627 639.788 26.627C637.474 26.627 635.76 25.2646 635.511 23.2139H632.391C632.581 26.9199 635.555 29.5127 639.759 29.5127ZM656.429 29H659.71V7.8623H656.443L650.877 11.7881V15.1426L656.18 11.3926H656.429V29Z" fill="#008CC8"/>
<path d="M60.1184 226.692C62.3387 228.627 65.7077 228.396 67.6433 226.176C69.5789 223.956 69.3481 220.587 67.1279 218.651C64.9076 216.716 61.5387 216.946 59.603 219.167C57.6674 221.387 57.8982 224.756 60.1184 226.692ZM132.377 145.329C132.74 144.912 132.697 144.281 132.28 143.918C131.864 143.555 131.232 143.598 130.869 144.014L132.377 145.329ZM64.3769 223.329L132.377 145.329L130.869 144.014L62.8694 222.014L64.3769 223.329Z" fill="#33404F"/>
<path d="M127.642 141.885C126.16 144.43 127.023 147.695 129.569 149.177C132.114 150.659 135.379 149.797 136.861 147.251C138.343 144.705 137.48 141.44 134.935 139.959C132.389 138.477 129.124 139.339 127.642 141.885ZM265.749 223.432C266.226 223.71 266.838 223.548 267.116 223.071C267.394 222.594 267.232 221.981 266.755 221.704L265.749 223.432ZM131.749 145.432L265.749 223.432L266.755 221.704L132.755 143.704L131.749 145.432Z" fill="#33404F"/>
<path d="M260.093 224.665C262.3 226.616 265.671 226.408 267.621 224.201C269.572 221.994 269.364 218.623 267.157 216.673C264.95 214.722 261.58 214.93 259.629 217.137C257.679 219.344 257.886 222.714 260.093 224.665ZM401.375 66.3311C401.74 65.9173 401.701 65.2854 401.288 64.9196C400.874 64.5539 400.242 64.5928 399.876 65.0066L401.375 66.3311ZM264.375 221.331L401.375 66.3311L399.876 65.0066L262.876 220.007L264.375 221.331Z" fill="#33404F"/>
<path d="M522.489 170.889C524.302 173.21 527.654 173.622 529.975 171.809C532.297 169.996 532.709 166.645 530.896 164.323C529.083 162.002 525.731 161.59 523.41 163.403C521.088 165.216 520.676 168.567 522.489 170.889ZM632.308 86.3941C632.743 86.0542 632.82 85.4257 632.481 84.9905C632.141 84.5552 631.512 84.4779 631.077 84.8178L632.308 86.3941ZM527.308 168.394L632.308 86.3941L631.077 84.8178L526.077 166.818L527.308 168.394Z" fill="#33404F"/>
<path d="M690.037 103.822C690.776 100.971 689.064 98.0606 686.213 97.3214C683.362 96.5821 680.451 98.2943 679.712 101.146C678.973 103.997 680.685 106.907 683.536 107.647C686.387 108.386 689.298 106.674 690.037 103.822ZM636.037 89.8225C636.776 86.9712 635.064 84.0606 632.213 83.3214C629.362 82.5821 626.451 84.2943 625.712 87.1455C624.973 89.9968 626.685 92.9074 629.536 93.6467C632.387 94.3859 635.298 92.6737 636.037 89.8225ZM685.125 101.516L631.125 87.516L630.624 89.452L684.624 103.452L685.125 101.516Z" fill="#33404F"/>
<path d="M525.082 166.187C525.519 166.524 526.147 166.444 526.485 166.007C526.823 165.57 526.743 164.942 526.306 164.604L525.082 166.187ZM401.913 69.6584C403.715 67.3285 403.287 63.9788 400.957 62.1768C398.627 60.3747 395.277 60.8026 393.475 63.1326C391.673 65.4625 392.101 68.8122 394.431 70.6143C396.761 72.4163 400.111 71.9884 401.913 69.6584ZM526.306 164.604L398.306 65.6045L397.082 67.1865L525.082 166.187L526.306 164.604Z" fill="#33404F"/>
<path d="M58.1961 206.791C60.6271 208.455 63.9461 207.832 65.6094 205.401C67.2727 202.97 66.6504 199.651 64.2194 197.988C61.7884 196.325 58.4694 196.947 56.8061 199.378C55.1428 201.809 55.7652 205.128 58.1961 206.791ZM117.988 119.402C120.419 121.065 123.738 120.443 125.402 118.012C127.065 115.581 126.443 112.262 124.012 110.598C121.581 108.935 118.262 109.557 116.598 111.988C114.935 114.419 115.557 117.738 117.988 119.402ZM62.0331 202.955L121.825 115.565L120.175 114.435L60.3825 201.825L62.0331 202.955Z" fill="#008CC8"/>
<path d="M118.964 113.245C117.994 116.027 119.464 119.067 122.245 120.036C125.027 121.006 128.067 119.536 129.036 116.755C130.006 113.973 128.536 110.933 125.755 109.964C122.973 108.994 119.933 110.464 118.964 113.245ZM314.301 181.304C313.332 184.085 314.801 187.126 317.583 188.095C320.364 189.064 323.405 187.595 324.374 184.813C325.343 182.032 323.874 178.991 321.092 178.022C318.311 177.053 315.27 178.522 314.301 181.304ZM123.671 115.944L319.008 184.003L319.666 182.114L124.329 114.056L123.671 115.944Z" fill="#008CC8"/>
<path d="M315.025 187.556C316.989 189.751 320.36 189.939 322.556 187.975C324.751 186.011 324.939 182.64 322.975 180.444C321.011 178.249 317.64 178.061 315.444 180.025C313.249 181.989 313.061 185.36 315.025 187.556ZM434.362 80.8067C436.326 83.002 439.698 83.1898 441.893 81.226C444.089 79.2622 444.276 75.8905 442.313 73.6952C440.349 71.4998 436.977 71.3121 434.782 73.2759C432.586 75.2396 432.399 78.6113 434.362 80.8067ZM319.667 184.745L439.004 77.9962L437.671 76.5056L318.333 183.255L319.667 184.745Z" fill="#008CC8"/>
<path d="M433.3 74.2886C432.323 77.0676 433.785 80.1119 436.564 81.0883C439.343 82.0647 442.387 80.6034 443.363 77.8244C444.34 75.0455 442.878 72.0011 440.099 71.0247C437.32 70.0483 434.276 71.5096 433.3 74.2886ZM544.3 113.289C543.323 116.068 544.785 119.112 547.564 120.088C550.343 121.065 553.387 119.603 554.363 116.824C555.34 114.045 553.878 111.001 551.099 110.025C548.32 109.048 545.276 110.51 544.3 113.289ZM438 77L549 116L549.663 114.113L438.663 75.1131L438 77Z" fill="#008CC8"/>
<path d="M544.863 119.366C546.723 121.651 550.082 121.996 552.366 120.137C554.651 118.277 554.996 114.918 553.137 112.634C551.277 110.349 547.918 110.004 545.634 111.863C543.349 113.723 543.004 117.082 544.863 119.366ZM623.209 55.61C625.068 57.8946 628.427 58.2395 630.712 56.3803C632.997 54.5211 633.342 51.1619 631.482 48.8773C629.623 46.5927 626.264 46.2478 623.979 48.107C621.695 49.9662 621.35 53.3254 623.209 55.61ZM549.631 116.776L627.977 53.0193L626.715 51.468L548.369 115.224L549.631 116.776Z" fill="#008CC8"/>
<path d="M623.387 50.1421C622.324 52.889 623.689 55.9778 626.436 57.0411C629.183 58.1045 632.271 56.7396 633.335 53.9927C634.398 51.2458 633.033 48.1571 630.286 47.0937C627.539 46.0304 624.451 47.3952 623.387 50.1421ZM685.387 74.1421C684.324 76.889 685.689 79.9778 688.436 81.0411C691.183 82.1045 694.271 80.7396 695.335 77.9927C696.398 75.2458 695.033 72.1571 692.286 71.0937C689.539 70.0304 686.451 71.3952 685.387 74.1421ZM628 53L690 77L690.722 75.1349L628.722 51.1349L628 53Z" fill="#008CC8"/>
</svg>
