<?xml version="1.0" encoding="UTF-8"?>
<!DOCTYPE svg PUBLIC "-//W3C//DTD SVG 1.1//EN" "http://www.w3.org/Graphics/SVG/1.1/DTD/svg11.dtd">
<svg xmlns="http://www.w3.org/2000/svg" version="1.1" width="512px" height="512px" style="shape-rendering:geometricPrecision; text-rendering:geometricPrecision; image-rendering:optimizeQuality; fill-rule:evenodd; clip-rule:evenodd" xmlns:xlink="http://www.w3.org/1999/xlink">
<g><path style="opacity:0.973" fill="#2494ff" d="M 241.5,46.5 C 240.512,51.6405 240.179,56.9738 240.5,62.5C 226.518,61.6574 212.518,61.3241 198.5,61.5C 197.512,56.3595 197.179,51.0262 197.5,45.5C 203.324,44.8338 209.324,44.5005 215.5,44.5C 224.387,44.3134 233.053,44.98 241.5,46.5 Z"/></g>
<g><path style="opacity:0.963" fill="#2a8cff" d="M 241.5,46.5 C 250.081,47.0631 258.414,48.7298 266.5,51.5C 266.786,57.2586 266.452,62.9252 265.5,68.5C 257.093,66.3138 248.76,64.3138 240.5,62.5C 240.179,56.9738 240.512,51.6405 241.5,46.5 Z"/></g>
<g><path style="opacity:0.961" fill="#1b9eff" d="M 197.5,45.5 C 197.179,51.0262 197.512,56.3595 198.5,61.5C 185.07,63.5213 171.736,66.5213 158.5,70.5C 158.5,64.8333 158.5,59.1667 158.5,53.5C 170.969,48.8057 183.969,46.139 197.5,45.5 Z"/></g>
<g><path style="opacity:0.958" fill="#2f86ff" d="M 266.5,51.5 C 275.668,53.7592 284.334,57.0925 292.5,61.5C 292.5,67.5 292.5,73.5 292.5,79.5C 283.609,75.5542 274.609,71.8876 265.5,68.5C 266.452,62.9252 266.786,57.2586 266.5,51.5 Z"/></g>
<g><path style="opacity:0.961" fill="#15a5ff" d="M 158.5,53.5 C 158.5,59.1667 158.5,64.8333 158.5,70.5C 149.902,74.4628 141.236,78.4628 132.5,82.5C 132.789,76.4093 132.455,70.4093 131.5,64.5C 139.875,59.4852 148.875,55.8186 158.5,53.5 Z"/></g>
<g><path style="opacity:0.952" fill="#3580ff" d="M 292.5,61.5 C 303.45,65.6376 313.45,71.3042 322.5,78.5C 322.5,85.5 322.5,92.5 322.5,99.5C 313.151,91.8278 303.151,85.1611 292.5,79.5C 292.5,73.5 292.5,67.5 292.5,61.5 Z"/></g>
<g><path style="opacity:0.963" fill="#11acff" d="M 131.5,64.5 C 132.455,70.4093 132.789,76.4093 132.5,82.5C 124.028,88.2428 115.695,94.2428 107.5,100.5C 106.833,93.8333 106.167,87.1667 105.5,80.5C 113.489,74.1668 122.156,68.8334 131.5,64.5 Z"/></g>
<g><path style="opacity:0.966" fill="#3a79ff" d="M 322.5,78.5 C 332.38,84.7085 341.047,92.3752 348.5,101.5C 348.5,109.833 348.5,118.167 348.5,126.5C 340.534,116.866 331.867,107.866 322.5,99.5C 322.5,92.5 322.5,85.5 322.5,78.5 Z"/></g>
<g><path style="opacity:0.956" fill="#0bb2ff" d="M 105.5,80.5 C 106.167,87.1667 106.833,93.8333 107.5,100.5C 96.0511,110.278 86.0511,121.278 77.5,133.5C 76.8607,125.067 76.194,116.734 75.5,108.5C 78.9207,103.574 82.9207,99.0738 87.5,95C 93.0853,89.574 99.0853,84.7407 105.5,80.5 Z"/></g>
<g><path style="opacity:0.959" fill="#3e72ff" d="M 348.5,101.5 C 359.052,111.386 367.719,122.72 374.5,135.5C 373.505,147.322 373.172,159.322 373.5,171.5C 367,155.503 358.667,140.503 348.5,126.5C 348.5,118.167 348.5,109.833 348.5,101.5 Z"/></g>
<g><path style="opacity:0.962" fill="#06b9ff" d="M 75.5,108.5 C 76.194,116.734 76.8607,125.067 77.5,133.5C 64.5478,152.68 55.8811,173.68 51.5,196.5C 50.5035,180.008 50.1702,163.342 50.5,146.5C 56.848,132.455 65.1813,119.788 75.5,108.5 Z"/></g>
<g><path style="opacity:0.957" fill="#2692ff" d="M 214.5,126.5 C 224.65,126.08 233.983,128.414 242.5,133.5C 240.853,139.265 239.853,145.265 239.5,151.5C 232.104,146.035 223.771,143.368 214.5,143.5C 214.5,137.833 214.5,132.167 214.5,126.5 Z"/></g>
<g><path style="opacity:0.953" fill="#1f9aff" d="M 214.5,126.5 C 214.5,132.167 214.5,137.833 214.5,143.5C 201.162,145.854 191.162,152.854 184.5,164.5C 184.826,155.983 184.493,147.65 183.5,139.5C 192.239,131.638 202.572,127.304 214.5,126.5 Z"/></g>
<g><path style="opacity:0.964" fill="#2a8cff" d="M 242.5,133.5 C 265.437,147.093 273.937,167.093 268,193.5C 263.504,208.547 254.338,219.547 240.5,226.5C 240.823,219.978 240.49,213.645 239.5,207.5C 253.885,193.457 256.385,177.457 247,159.5C 244.972,156.308 242.472,153.641 239.5,151.5C 239.853,145.265 240.853,139.265 242.5,133.5 Z"/></g>
<g><path style="opacity:0.968" fill="#436dff" d="M 374.5,135.5 C 388.553,158.827 396.719,184.161 399,211.5C 399.317,225.921 399.484,240.254 399.5,254.5C 399.5,260.167 399.5,265.833 399.5,271.5C 398.07,271.579 396.736,271.246 395.5,270.5C 390.962,288.568 383.962,305.568 374.5,321.5C 373.833,310.167 373.167,298.833 372.5,287.5C 385.44,248.944 385.773,210.277 373.5,171.5C 373.172,159.322 373.505,147.322 374.5,135.5 Z"/></g>
<g><path style="opacity:0.959" fill="#1b9eff" d="M 183.5,139.5 C 184.493,147.65 184.826,155.983 184.5,164.5C 182.759,170.708 181.592,177.041 181,183.5C 177.229,187.788 172.729,188.621 167.5,186C 162.902,167.31 168.235,151.81 183.5,139.5 Z"/></g>
<g><path style="opacity:0.954" fill="#02bdff" d="M 50.5,146.5 C 50.1702,163.342 50.5035,180.008 51.5,196.5C 47.5528,218.784 47.5528,241.117 51.5,263.5C 50.8333,278.833 50.1667,294.167 49.5,309.5C 30.8683,269.772 26.3683,228.438 36,185.5C 39.1849,171.766 44.0182,158.766 50.5,146.5 Z"/></g>
<g><path style="opacity:0.975" fill="#2493ff" d="M 239.5,207.5 C 240.49,213.645 240.823,219.978 240.5,226.5C 234.059,231.355 229.559,237.689 227,245.5C 226.075,260.221 225.075,274.888 224,289.5C 217.341,294.055 212.341,292.722 209,285.5C 208.333,273.833 208.333,262.167 209,250.5C 211.299,230.562 221.466,216.229 239.5,207.5 Z"/></g>
<g><path style="opacity:0.957" fill="#4866ff" d="M 399.5,254.5 C 411.182,257.011 421.848,261.678 431.5,268.5C 429.544,274.412 428.877,280.745 429.5,287.5C 420.171,280.822 410.171,275.488 399.5,271.5C 399.5,265.833 399.5,260.167 399.5,254.5 Z"/></g>
<g><path style="opacity:0.962" fill="#4e60ff" d="M 431.5,268.5 C 441.077,274.075 449.077,281.409 455.5,290.5C 455.827,300.681 455.494,310.681 454.5,320.5C 448.353,307.885 440.019,296.885 429.5,287.5C 428.877,280.745 429.544,274.412 431.5,268.5 Z"/></g>
<g><path style="opacity:0.968" fill="#525aff" d="M 455.5,290.5 C 476.541,316.506 484.041,346.173 478,379.5C 475.49,390.348 471.99,400.848 467.5,411C 470.946,423.281 474.779,435.448 479,447.5C 480.354,460.479 474.521,466.645 461.5,466C 459.277,465.434 457.277,464.6 455.5,463.5C 455.5,457.833 455.5,452.167 455.5,446.5C 456.93,446.421 458.264,446.754 459.5,447.5C 459.833,447 460.167,446.5 460.5,446C 456.141,434.595 452.808,422.928 450.5,411C 450.582,407.765 451.082,404.598 452,401.5C 465.025,374.85 465.859,347.85 454.5,320.5C 455.494,310.681 455.827,300.681 455.5,290.5 Z"/></g>
<g><path style="opacity:0.938" fill="#2395ff" d="M 214.5,313.5 C 223.649,313.156 227.149,317.49 225,326.5C 217.377,332.812 211.877,331.312 208.5,322C 209.187,318.16 211.187,315.327 214.5,313.5 Z"/></g>
<g><path style="opacity:0.953" fill="#3e73ff" d="M 372.5,287.5 C 373.167,298.833 373.833,310.167 374.5,321.5C 367.277,333.952 358.61,345.285 348.5,355.5C 348.826,347.316 348.492,339.316 347.5,331.5C 357.535,317.799 365.868,303.132 372.5,287.5 Z"/></g>
<g><path style="opacity:0.959" fill="#3a78ff" d="M 347.5,331.5 C 348.492,339.316 348.826,347.316 348.5,355.5C 340.626,364.097 331.959,371.764 322.5,378.5C 322.5,371.5 322.5,364.5 322.5,357.5C 331.534,349.467 339.867,340.8 347.5,331.5 Z"/></g>
<g><path style="opacity:0.95" fill="#04bbff" d="M 51.5,263.5 C 55.8385,280.013 61.6718,296.013 69,311.5C 69.2963,314.706 69.7963,317.872 70.5,321C 64.2878,345.473 56.9545,369.639 48.5,393.5C 48.8333,394.5 49.5,395.167 50.5,395.5C 59.1192,392.627 67.7858,389.96 76.5,387.5C 76.5,393.167 76.5,398.833 76.5,404.5C 67.0737,409.139 57.0737,411.639 46.5,412C 35.2415,408.726 30.4081,401.226 32,389.5C 39.5843,366.75 46.751,343.916 53.5,321C 52.9544,316.895 51.621,313.062 49.5,309.5C 50.1667,294.167 50.8333,278.833 51.5,263.5 Z"/></g>
<g><path style="opacity:0.958" fill="#347fff" d="M 322.5,357.5 C 322.5,364.5 322.5,371.5 322.5,378.5C 313.482,385.682 303.482,391.348 292.5,395.5C 292.5,389.5 292.5,383.5 292.5,377.5C 302.807,371.343 312.807,364.676 322.5,357.5 Z"/></g>
<g><path style="opacity:0.938" fill="#3e73ff" d="M 355.5,361.5 C 366.86,360.71 370.193,365.543 365.5,376C 354.964,379.997 350.464,376.497 352,365.5C 352.69,363.65 353.856,362.316 355.5,361.5 Z"/></g>
<g><path style="opacity:0.96" fill="#456aff" d="M 391.5,361.5 C 402.024,360.182 405.857,364.515 403,374.5C 398.656,378.128 393.99,378.462 389,375.5C 386.418,370.12 387.251,365.453 391.5,361.5 Z"/></g>
<g><path style="opacity:0.927" fill="#4c60ff" d="M 431.5,361.5 C 442.024,360.182 445.857,364.515 443,374.5C 438.656,378.128 433.99,378.462 429,375.5C 426.418,370.12 427.251,365.453 431.5,361.5 Z"/></g>
<g><path style="opacity:0.958" fill="#10acff" d="M 128.5,374.5 C 129.804,380.266 129.804,385.933 128.5,391.5C 117.757,391.969 107.423,394.302 97.5,398.5C 97.5,392.5 97.5,386.5 97.5,380.5C 107.291,375.803 117.624,373.803 128.5,374.5 Z"/></g>
<g><path style="opacity:0.962" fill="#15a5ff" d="M 128.5,374.5 C 138.998,377.421 148.998,381.421 158.5,386.5C 158.5,391.833 158.5,397.167 158.5,402.5C 157.5,402.5 156.5,402.5 155.5,402.5C 146.102,399.629 137.102,395.962 128.5,391.5C 129.804,385.933 129.804,380.266 128.5,374.5 Z"/></g>
<g><path style="opacity:0.97" fill="#2f86ff" d="M 292.5,377.5 C 292.5,383.5 292.5,389.5 292.5,395.5C 291.571,396.315 290.571,397.148 289.5,398C 290.973,400.448 292.307,402.948 293.5,405.5C 292.507,413.984 292.174,422.651 292.5,431.5C 284.298,423.456 277.798,414.123 273,403.5C 271.53,404.267 270.03,404.933 268.5,405.5C 266.621,400.13 265.955,394.463 266.5,388.5C 275.099,384.873 283.765,381.206 292.5,377.5 Z"/></g>
<g><path style="opacity:0.967" fill="#0bb3ff" d="M 97.5,380.5 C 97.5,386.5 97.5,392.5 97.5,398.5C 90.6101,400.908 83.6101,402.908 76.5,404.5C 76.5,398.833 76.5,393.167 76.5,387.5C 83.3411,384.997 90.3411,382.664 97.5,380.5 Z"/></g>
<g><path style="opacity:0.969" fill="#1a9fff" d="M 158.5,386.5 C 167.186,388.841 175.853,391.174 184.5,393.5C 184.5,399.167 184.5,404.833 184.5,410.5C 174.431,408.902 164.764,406.235 155.5,402.5C 156.5,402.5 157.5,402.5 158.5,402.5C 158.5,397.167 158.5,391.833 158.5,386.5 Z"/></g>
<g><path style="opacity:0.965" fill="#2a8cff" d="M 266.5,388.5 C 265.955,394.463 266.621,400.13 268.5,405.5C 259.308,408.131 249.974,410.131 240.5,411.5C 240.5,405.833 240.5,400.167 240.5,394.5C 249.216,392.822 257.882,390.822 266.5,388.5 Z"/></g>
<g><path style="opacity:0.974" fill="#2098ff" d="M 184.5,393.5 C 194.468,394.805 204.468,395.805 214.5,396.5C 214.5,401.833 214.5,407.167 214.5,412.5C 216.735,412.205 218.735,412.539 220.5,413.5C 208.432,413.162 196.432,412.162 184.5,410.5C 184.5,404.833 184.5,399.167 184.5,393.5 Z"/></g>
<g><path style="opacity:0.981" fill="#2592ff" d="M 240.5,394.5 C 240.5,400.167 240.5,405.833 240.5,411.5C 233.768,411.98 227.101,412.646 220.5,413.5C 218.735,412.539 216.735,412.205 214.5,412.5C 214.5,407.167 214.5,401.833 214.5,396.5C 223.177,395.944 231.843,395.277 240.5,394.5 Z"/></g>
<g><path style="opacity:0.955" fill="#3480ff" d="M 293.5,405.5 C 301.456,417.79 311.456,428.123 323.5,436.5C 322.51,442.31 322.177,448.31 322.5,454.5C 310.786,449.125 300.786,441.459 292.5,431.5C 292.174,422.651 292.507,413.984 293.5,405.5 Z"/></g>
<g><path style="opacity:0.958" fill="#4867ff" d="M 429.5,438.5 C 430.113,444.271 429.446,449.604 427.5,454.5C 425.473,454.338 423.473,454.505 421.5,455C 414.334,458.332 407.001,461.165 399.5,463.5C 399.5,457.5 399.5,451.5 399.5,445.5C 405.818,443.01 412.151,440.51 418.5,438C 422.358,437.19 426.024,437.357 429.5,438.5 Z"/></g>
<g><path style="opacity:0.955" fill="#4e60ff" d="M 429.5,438.5 C 438.437,440.592 447.103,443.259 455.5,446.5C 455.5,452.167 455.5,457.833 455.5,463.5C 445.825,461.274 436.491,458.274 427.5,454.5C 429.446,449.604 430.113,444.271 429.5,438.5 Z"/></g>
<g><path style="opacity:0.961" fill="#3979ff" d="M 323.5,436.5 C 331.128,440.153 338.795,443.486 346.5,446.5C 348.386,452.208 349.053,458.208 348.5,464.5C 339.236,462.526 330.57,459.193 322.5,454.5C 322.177,448.31 322.51,442.31 323.5,436.5 Z"/></g>
<g><path style="opacity:0.967" fill="#436dff" d="M 399.5,445.5 C 399.5,451.5 399.5,457.5 399.5,463.5C 391.291,465.479 382.958,466.479 374.5,466.5C 373.551,461.26 373.218,455.927 373.5,450.5C 375.415,450.784 377.081,450.451 378.5,449.5C 385.653,448.919 392.653,447.586 399.5,445.5 Z"/></g>
<g><path style="opacity:0.93" fill="#3f73ff" d="M 346.5,446.5 C 357.001,449.036 367.667,450.036 378.5,449.5C 377.081,450.451 375.415,450.784 373.5,450.5C 373.218,455.927 373.551,461.26 374.5,466.5C 365.751,466.745 357.085,466.078 348.5,464.5C 349.053,458.208 348.386,452.208 346.5,446.5 Z"/></g>
</svg>
