<svg width="40" height="40" viewBox="0 0 40 40" fill="none" xmlns="http://www.w3.org/2000/svg">
<path d="M26 0H0V26H26V0Z" fill="#B5C5C3"/>
<path d="M17 5C8.72 5 2 11.27 2 19C2 22.21 3.17 25.16 5.11 27.52L2 32.5L8.9 30.77C11.24 32.18 14.02 33 17 33C25.28 33 32 26.73 32 19C32 11.27 25.28 5 17 5Z" fill="#33404F"/>
<path d="M40 26C40 20.62 36.75 15.96 31.99 13.62C32.68 15.29 33.07 17.1 33.07 19C33.07 27.28 25.87 34 17 34C15.34 34 13.74 33.76 12.23 33.32C14.87 37.32 19.59 40 25 40C27.98 40 30.76 39.18 33.1 37.77L40 39.5L36.89 34.52C38.83 32.16 40 29.21 40 26Z" fill="#33404F"/>
<path d="M20.28 18.45L18.76 20.06C18.38 20.47 18.17 20.89 18.17 21.38V22.54H15.45V21.14C15.45 20.49 15.78 19.88 16.25 19.39L17.76 17.78C18.33 17.19 18.43 16.68 18.43 15.89C18.43 15.18 18.33 14.69 17.92 14.32C17.64 14.08 17.3 13.93 16.82 13.93C16.36 13.93 16 14.05 15.72 14.3C15.26 14.71 15.23 15.32 15.23 15.89H12.5C12.5 14.67 12.81 13.63 13.71 12.96C14.43 12.43 15.41 12 16.79 12C18.15 12 19.2 12.33 19.92 12.92C20.82 13.63 21.15 14.53 21.15 15.95C21.15 17.07 20.9 17.8 20.28 18.45ZM15.22 26.61V24.11H18.4V26.61H15.22Z" fill="white"/>
</svg>
