<?xml version="1.0" encoding="UTF-8"?>
<!DOCTYPE svg PUBLIC "-//W3C//DTD SVG 1.1//EN" "http://www.w3.org/Graphics/SVG/1.1/DTD/svg11.dtd">
<svg xmlns="http://www.w3.org/2000/svg" version="1.1" width="512px" height="512px" style="shape-rendering:geometricPrecision; text-rendering:geometricPrecision; image-rendering:optimizeQuality; fill-rule:evenodd; clip-rule:evenodd" xmlns:xlink="http://www.w3.org/1999/xlink">
<g><path style="opacity:0.985" fill="#3bbdfe" d="M 270.5,-0.5 C 278.5,-0.5 286.5,-0.5 294.5,-0.5C 298.591,0.523724 302.591,1.85706 306.5,3.5C 305.504,18.324 305.171,33.324 305.5,48.5C 292.158,39.0407 278.158,38.0407 263.5,45.5C 264.15,30.7943 263.483,16.461 261.5,2.5C 264.408,1.18398 267.408,0.183984 270.5,-0.5 Z"/></g>
<g><path style="opacity:0.99" fill="#37c0fe" d="M 261.5,2.5 C 263.483,16.461 264.15,30.7943 263.5,45.5C 260.526,48.1379 257.526,50.8046 254.5,53.5C 254.182,37.0893 254.516,20.756 255.5,4.5C 257.102,2.92606 259.102,2.25939 261.5,2.5 Z"/></g>
<g><path style="opacity:0.987" fill="#41b8fe" d="M 306.5,3.5 C 322.367,8.5304 335.201,17.8637 345,31.5C 358.926,54.6767 361.26,79.0101 352,104.5C 342.194,124.472 327.028,138.805 306.5,147.5C 305.833,132.167 305.167,116.833 304.5,101.5C 316.605,89.9957 319.772,76.329 314,60.5C 311.403,56.2952 308.569,52.2952 305.5,48.5C 305.171,33.324 305.504,18.324 306.5,3.5 Z"/></g>
<g><path style="opacity:0.986" fill="#34c4fe" d="M 255.5,4.5 C 254.516,20.756 254.182,37.0893 254.5,53.5C 249.581,62.1048 247.081,71.4381 247,81.5C 242.767,91.3697 235.267,95.703 224.5,94.5C 224.5,71.8333 224.5,49.1667 224.5,26.5C 232.635,16.0263 242.968,8.69301 255.5,4.5 Z"/></g>
<g><path style="opacity:0.985" fill="#30c7fe" d="M 224.5,26.5 C 224.5,49.1667 224.5,71.8333 224.5,94.5C 216.477,93.4013 210.977,89.0679 208,81.5C 205.622,60.6551 211.122,42.3218 224.5,26.5 Z"/></g>
<g><path style="opacity:0.985" fill="#3cbdfe" d="M 304.5,101.5 C 305.167,116.833 305.833,132.167 306.5,147.5C 303.93,155.02 301.764,162.687 300,170.5C 293.965,179.044 285.798,181.878 275.5,179C 266.931,175.093 262.264,168.426 261.5,159C 262.179,138.974 270.513,122.974 286.5,111C 292.685,108.075 298.685,104.909 304.5,101.5 Z"/></g>
<g><path style="opacity:0.98" fill="#3bbdfe" d="M 274.5,203.5 C 294.65,201.483 303.483,210.483 301,230.5C 295.657,241.752 286.824,245.919 274.5,243C 263.248,237.657 259.081,228.824 262,216.5C 264.353,210.315 268.52,205.982 274.5,203.5 Z"/></g>
<g><path style="opacity:0.983" fill="#0fe4fe" d="M 75.5,235.5 C 75.5,250.833 75.5,266.167 75.5,281.5C 66.6152,273.398 56.9486,272.398 46.5,278.5C 46.5,263.833 46.5,249.167 46.5,234.5C 50.7842,233.895 55.1175,233.562 59.5,233.5C 65.0862,233.318 70.4195,233.985 75.5,235.5 Z"/></g>
<g><path style="opacity:0.987" fill="#09e9fe" d="M 46.5,234.5 C 46.5,249.167 46.5,263.833 46.5,278.5C 37.1906,291.462 38.8573,302.795 51.5,312.5C 50.5032,330.659 50.1698,348.992 50.5,367.5C 41.5069,359.84 32.8403,351.84 24.5,343.5C 24.8316,310.662 24.4983,277.996 23.5,245.5C 25.4006,243.204 27.7339,241.371 30.5,240C 35.607,237.464 40.9403,235.631 46.5,234.5 Z"/></g>
<g><path style="opacity:0.983" fill="#16defe" d="M 75.5,235.5 C 89.1918,239.192 100.525,246.526 109.5,257.5C 108.503,275.326 108.17,293.326 108.5,311.5C 96.8911,302.191 85.8911,292.191 75.5,281.5C 75.5,266.167 75.5,250.833 75.5,235.5 Z"/></g>
<g><path style="opacity:0.971" fill="#03eefe" d="M 23.5,245.5 C 24.4983,277.996 24.8316,310.662 24.5,343.5C 11.3406,333.496 3.00728,320.496 -0.5,304.5C -0.5,297.167 -0.5,289.833 -0.5,282.5C 2.72182,267.054 10.7218,254.72 23.5,245.5 Z"/></g>
<g><path style="opacity:0.981" fill="#1cd8fe" d="M 109.5,257.5 C 117.158,263.826 124.492,270.492 131.5,277.5C 130.503,295.326 130.17,313.326 130.5,331.5C 122.842,325.174 115.508,318.508 108.5,311.5C 108.17,293.326 108.503,275.326 109.5,257.5 Z"/></g>
<g><path style="opacity:0.984" fill="#22d3fe" d="M 131.5,277.5 C 140.493,285.16 149.16,293.16 157.5,301.5C 157.83,319.674 157.497,337.674 156.5,355.5C 147.507,347.84 138.84,339.84 130.5,331.5C 130.17,313.326 130.503,295.326 131.5,277.5 Z"/></g>
<g><path style="opacity:0.995" fill="#34c3fe" d="M 223.5,284.5 C 233.833,284.5 244.167,284.5 254.5,284.5C 254.5,297.833 254.5,311.167 254.5,324.5C 244.728,324.092 235.062,324.758 225.5,326.5C 224.817,312.598 224.151,298.598 223.5,284.5 Z"/></g>
<g><path style="opacity:1" fill="#3abefe" d="M 254.5,284.5 C 268.833,284.5 283.167,284.5 297.5,284.5C 297.5,297.833 297.5,311.167 297.5,324.5C 283.167,324.5 268.833,324.5 254.5,324.5C 254.5,311.167 254.5,297.833 254.5,284.5 Z"/></g>
<g><path style="opacity:1" fill="#40b8fe" d="M 297.5,284.5 C 316.5,284.5 335.5,284.5 354.5,284.5C 354.5,297.833 354.5,311.167 354.5,324.5C 335.5,324.5 316.5,324.5 297.5,324.5C 297.5,311.167 297.5,297.833 297.5,284.5 Z"/></g>
<g><path style="opacity:1" fill="#47b2fe" d="M 354.5,284.5 C 375.5,284.5 396.5,284.5 417.5,284.5C 417.5,297.833 417.5,311.167 417.5,324.5C 396.5,324.5 375.5,324.5 354.5,324.5C 354.5,311.167 354.5,297.833 354.5,284.5 Z"/></g>
<g><path style="opacity:0.989" fill="#2ec8fe" d="M 223.5,284.5 C 224.151,298.598 224.817,312.598 225.5,326.5C 214.343,333.18 211.509,342.513 217,354.5C 218.973,357.402 221.473,359.736 224.5,361.5C 224.5,375.833 224.5,390.167 224.5,404.5C 211.635,402.235 200.635,396.569 191.5,387.5C 191.5,358.833 191.5,330.167 191.5,301.5C 200.273,292.421 210.94,286.755 223.5,284.5 Z"/></g>
<g><path style="opacity:0.985" fill="#4dadfe" d="M 417.5,284.5 C 459.222,282.766 488.722,300.766 506,338.5C 508.327,344.828 510.16,351.162 511.5,357.5C 511.5,371.167 511.5,384.833 511.5,398.5C 505.92,409.619 496.92,413.786 484.5,411C 478.333,408.833 474.167,404.667 472,398.5C 471.785,386.138 471.118,373.805 470,361.5C 461.912,336.023 444.412,323.69 417.5,324.5C 417.5,311.167 417.5,297.833 417.5,284.5 Z"/></g>
<g><path style="opacity:0.985" fill="#26cffe" d="M 157.5,301.5 C 163.129,305.461 168.129,310.127 172.5,315.5C 171.503,333.326 171.17,351.326 171.5,369.5C 166.474,364.805 161.474,360.139 156.5,355.5C 157.497,337.674 157.83,319.674 157.5,301.5 Z"/></g>
<g><path style="opacity:0.987" fill="#29ccfe" d="M 191.5,301.5 C 191.5,330.167 191.5,358.833 191.5,387.5C 184.509,381.842 177.843,375.842 171.5,369.5C 171.17,351.326 171.503,333.326 172.5,315.5C 174.716,316.203 176.549,317.536 178,319.5C 181.304,312.537 185.804,306.537 191.5,301.5 Z"/></g>
<g><path style="opacity:0.982" fill="#0fe4fe" d="M 51.5,312.5 C 59.9256,319.715 67.9256,327.381 75.5,335.5C 75.5,353.833 75.5,372.167 75.5,390.5C 66.8406,383.173 58.5072,375.507 50.5,367.5C 50.1698,348.992 50.5032,330.659 51.5,312.5 Z"/></g>
<g><path style="opacity:0.983" fill="#16defe" d="M 75.5,335.5 C 87.7919,345.457 99.4585,356.124 110.5,367.5C 109.168,375.974 108.502,384.807 108.5,394C 108.513,403.242 108.846,412.408 109.5,421.5C 97.562,411.898 86.2287,401.565 75.5,390.5C 75.5,372.167 75.5,353.833 75.5,335.5 Z"/></g>
<g><path style="opacity:0.996" fill="#34c3fe" d="M 224.5,361.5 C 227.278,362.968 230.278,363.801 233.5,364C 240.492,364.5 247.492,364.666 254.5,364.5C 254.5,377.833 254.5,391.167 254.5,404.5C 244.5,404.5 234.5,404.5 224.5,404.5C 224.5,390.167 224.5,375.833 224.5,361.5 Z"/></g>
<g><path style="opacity:1" fill="#3abefe" d="M 254.5,364.5 C 268.833,364.5 283.167,364.5 297.5,364.5C 297.5,377.833 297.5,391.167 297.5,404.5C 283.167,404.5 268.833,404.5 254.5,404.5C 254.5,391.167 254.5,377.833 254.5,364.5 Z"/></g>
<g><path style="opacity:0.992" fill="#40b8fe" d="M 297.5,364.5 C 311.837,364.333 326.171,364.5 340.5,365C 353.704,371.682 357.204,381.849 351,395.5C 348.404,399.39 344.904,402.223 340.5,404C 326.171,404.5 311.837,404.667 297.5,404.5C 297.5,391.167 297.5,377.833 297.5,364.5 Z"/></g>
<g><path style="opacity:0.982" fill="#1dd7fe" d="M 110.5,367.5 C 119.827,375.494 128.827,383.827 137.5,392.5C 137.5,410.833 137.5,429.167 137.5,447.5C 127.364,439.754 118.031,431.087 109.5,421.5C 108.846,412.408 108.513,403.242 108.5,394C 108.502,384.807 109.168,375.974 110.5,367.5 Z"/></g>
<g><path style="opacity:0.985" fill="#23d2fe" d="M 137.5,392.5 C 144.465,398.13 151.132,404.13 157.5,410.5C 157.83,427.675 157.497,444.675 156.5,461.5C 149.595,457.554 143.262,452.887 137.5,447.5C 137.5,429.167 137.5,410.833 137.5,392.5 Z"/></g>
<g><path style="opacity:0.984" fill="#26cffe" d="M 157.5,410.5 C 162.486,414.155 167.153,418.155 171.5,422.5C 171.5,438.833 171.5,455.167 171.5,471.5C 166.291,468.402 161.291,465.068 156.5,461.5C 157.497,444.675 157.83,427.675 157.5,410.5 Z"/></g>
<g><path style="opacity:0.982" fill="#29ccfe" d="M 171.5,422.5 C 178.68,426.922 185.68,431.588 192.5,436.5C 191.504,451.658 191.17,466.991 191.5,482.5C 184.833,478.833 178.167,475.167 171.5,471.5C 171.5,455.167 171.5,438.833 171.5,422.5 Z"/></g>
<g><path style="opacity:0.988" fill="#2dc9fe" d="M 192.5,436.5 C 200.258,440.91 208.258,444.91 216.5,448.5C 216.829,463.343 216.496,478.01 215.5,492.5C 207.266,489.716 199.266,486.383 191.5,482.5C 191.17,466.991 191.504,451.658 192.5,436.5 Z"/></g>
<g><path style="opacity:0.984" fill="#33c4fe" d="M 216.5,448.5 C 228.793,454.154 241.46,458.82 254.5,462.5C 254.5,476.5 254.5,490.5 254.5,504.5C 241.031,501.675 228.031,497.675 215.5,492.5C 216.496,478.01 216.829,463.343 216.5,448.5 Z"/></g>
<g><path style="opacity:0.986" fill="#37c0fe" d="M 254.5,462.5 C 257.167,463.167 259.833,463.833 262.5,464.5C 263.482,478.421 263.815,492.421 263.5,506.5C 260.417,506.084 257.417,505.417 254.5,504.5C 254.5,490.5 254.5,476.5 254.5,462.5 Z"/></g>
<g><path style="opacity:0.984" fill="#3bbdfe" d="M 262.5,464.5 C 276.642,467.806 290.975,469.806 305.5,470.5C 305.5,484.167 305.5,497.833 305.5,511.5C 301.833,511.5 298.167,511.5 294.5,511.5C 284.244,510.128 273.911,508.461 263.5,506.5C 263.815,492.421 263.482,478.421 262.5,464.5 Z"/></g>
<g><path style="opacity:0.997" fill="#41b8fe" d="M 305.5,470.5 C 321.821,471.283 338.154,471.617 354.5,471.5C 354.5,484.833 354.5,498.167 354.5,511.5C 338.167,511.5 321.833,511.5 305.5,511.5C 305.5,497.833 305.5,484.167 305.5,470.5 Z"/></g>
<g><path style="opacity:1" fill="#47b2fe" d="M 354.5,471.5 C 375.5,471.5 396.5,471.5 417.5,471.5C 417.5,484.833 417.5,498.167 417.5,511.5C 396.5,511.5 375.5,511.5 354.5,511.5C 354.5,498.167 354.5,484.833 354.5,471.5 Z"/></g>
<g><path style="opacity:0.992" fill="#4cadfe" d="M 417.5,471.5 C 444.502,471.333 471.502,471.5 498.5,472C 504.685,474.353 509.018,478.52 511.5,484.5C 511.5,489.167 511.5,493.833 511.5,498.5C 510.024,500.769 508.524,503.102 507,505.5C 504.264,507.752 501.431,509.752 498.5,511.5C 471.5,511.5 444.5,511.5 417.5,511.5C 417.5,498.167 417.5,484.833 417.5,471.5 Z"/></g>
</svg>
