<svg width="49" height="49" viewBox="0 0 49 49" fill="none" xmlns="http://www.w3.org/2000/svg">
<path d="M18.6667 21.3333H5.33333C3.86666 21.3333 2.66666 20.1333 2.66666 18.6667V5.33333C2.66666 3.86667 3.86666 2.66667 5.33333 2.66667H18.6667C20.1333 2.66667 21.3333 3.86667 21.3333 5.33333V18.6667C21.3333 20.1333 20.1333 21.3333 18.6667 21.3333Z" stroke="#33404F" stroke-width="4" stroke-miterlimit="10"/>
<path d="M18.6667 46.64H5.33334C3.86667 46.64 2.66667 45.44 2.66667 43.9733V30.64C2.66667 29.1733 3.86667 27.9733 5.33334 27.9733H18.6667C20.1333 27.9733 21.3333 29.1733 21.3333 30.64V43.9733C21.3333 45.44 20.1333 46.64 18.6667 46.64Z" stroke="#33404F" stroke-width="4" stroke-miterlimit="10"/>
<path d="M44 21.3334H30.6667C29.2 21.3334 28 20.1334 28 18.6667V5.33338C28 3.86671 29.2 2.66671 30.6667 2.66671H44C45.4667 2.66671 46.6667 3.86671 46.6667 5.33338V18.6667C46.6667 20.1334 45.4667 21.3334 44 21.3334Z" stroke="#33404F" stroke-width="4" stroke-miterlimit="10"/>
<path d="M37.3333 46.64C32.1733 46.64 28 42.4667 28 37.3067C28 32.1467 32.1733 27.9733 37.3333 27.9733C42.4933 27.9733 46.6667 32.1467 46.6667 37.3067C46.6667 42.4667 42.4933 46.64 37.3333 46.64Z" stroke="#33404F" stroke-width="4" stroke-miterlimit="10"/>
</svg>
