<svg width="49" height="49" viewBox="0 0 49 49" fill="none" xmlns="http://www.w3.org/2000/svg">
<path d="M18.6666 21.3333H5.33329C3.86663 21.3333 2.66663 20.1333 2.66663 18.6666V5.33329C2.66663 3.86663 3.86663 2.66663 5.33329 2.66663H18.6666C20.1333 2.66663 21.3333 3.86663 21.3333 5.33329V18.6666C21.3333 20.1333 20.1333 21.3333 18.6666 21.3333Z" stroke="#00d0ff" stroke-width="4" stroke-miterlimit="10"/>
<path d="M18.6666 46.6399H5.33329C3.86663 46.6399 2.66663 45.4399 2.66663 43.9733V30.6399C2.66663 29.1733 3.86663 27.9733 5.33329 27.9733H18.6666C20.1333 27.9733 21.3333 29.1733 21.3333 30.6399V43.9733C21.3333 45.4399 20.1333 46.6399 18.6666 46.6399Z" stroke="#00d0ff" stroke-width="4" stroke-miterlimit="10"/>
<path d="M44 21.3333H30.6667C29.2 21.3333 28 20.1333 28 18.6666V5.33329C28 3.86663 29.2 2.66663 30.6667 2.66663H44C45.4667 2.66663 46.6667 3.86663 46.6667 5.33329V18.6666C46.6667 20.1333 45.4667 21.3333 44 21.3333Z" stroke="#00d0ff" stroke-width="4" stroke-miterlimit="10"/>
<path d="M37.3333 46.6399C32.1733 46.6399 28 42.4666 28 37.3066C28 32.1466 32.1733 27.9733 37.3333 27.9733C42.4933 27.9733 46.6667 32.1466 46.6667 37.3066C46.6667 42.4666 42.4933 46.6399 37.3333 46.6399Z" stroke="#00d0ff" stroke-width="4" stroke-miterlimit="10"/>
</svg>
