<?xml version="1.0" encoding="UTF-8"?>
<!DOCTYPE svg PUBLIC "-//W3C//DTD SVG 1.1//EN" "http://www.w3.org/Graphics/SVG/1.1/DTD/svg11.dtd">
<svg xmlns="http://www.w3.org/2000/svg" version="1.1" width="512px" height="512px" style="shape-rendering:geometricPrecision; text-rendering:geometricPrecision; image-rendering:optimizeQuality; fill-rule:evenodd; clip-rule:evenodd" xmlns:xlink="http://www.w3.org/1999/xlink">
<g><path style="opacity:0.99" fill="#83e3fb" d="M 85.5,9.5 C 84.4324,10.4345 83.099,10.7678 81.5,10.5C 81.5,17.5 81.5,24.5 81.5,31.5C 71.7584,31.2448 62.0917,31.9114 52.5,33.5C 51.5084,26.3524 51.175,19.0191 51.5,11.5C 53.2922,10.6909 55.2922,10.1909 57.5,10C 66.8274,9.50021 76.1607,9.33355 85.5,9.5 Z"/></g>
<g><path style="opacity:0.97" fill="#81ddfb" d="M 85.5,9.5 C 94.1667,9.5 102.833,9.5 111.5,9.5C 110.432,10.4345 109.099,10.7678 107.5,10.5C 107.5,17.5 107.5,24.5 107.5,31.5C 98.8333,31.5 90.1667,31.5 81.5,31.5C 81.5,24.5 81.5,17.5 81.5,10.5C 83.099,10.7678 84.4324,10.4345 85.5,9.5 Z"/></g>
<g><path style="opacity:0.969" fill="#7fd7fb" d="M 111.5,9.5 C 120.5,9.5 129.5,9.5 138.5,9.5C 137.081,10.4511 135.415,10.7845 133.5,10.5C 133.5,17.5 133.5,24.5 133.5,31.5C 124.833,31.5 116.167,31.5 107.5,31.5C 107.5,24.5 107.5,17.5 107.5,10.5C 109.099,10.7678 110.432,10.4345 111.5,9.5 Z"/></g>
<g><path style="opacity:0.969" fill="#7ed1fb" d="M 138.5,9.5 C 149.833,9.5 161.167,9.5 172.5,9.5C 170.735,10.4614 168.735,10.7947 166.5,10.5C 166.5,17.5 166.5,24.5 166.5,31.5C 155.5,31.5 144.5,31.5 133.5,31.5C 133.5,24.5 133.5,17.5 133.5,10.5C 135.415,10.7845 137.081,10.4511 138.5,9.5 Z"/></g>
<g><path style="opacity:0.97" fill="#7ccafb" d="M 172.5,9.5 C 183.5,9.5 194.5,9.5 205.5,9.5C 205.5,16.8333 205.5,24.1667 205.5,31.5C 192.5,31.5 179.5,31.5 166.5,31.5C 166.5,24.5 166.5,17.5 166.5,10.5C 168.735,10.7947 170.735,10.4614 172.5,9.5 Z"/></g>
<g><path style="opacity:0.97" fill="#7ac4fb" d="M 205.5,9.5 C 216.833,9.5 228.167,9.5 239.5,9.5C 239.5,16.8333 239.5,24.1667 239.5,31.5C 228.167,31.5 216.833,31.5 205.5,31.5C 205.5,24.1667 205.5,16.8333 205.5,9.5 Z"/></g>
<g><path style="opacity:0.97" fill="#78befb" d="M 239.5,9.5 C 251.167,9.5 262.833,9.5 274.5,9.5C 274.5,16.8333 274.5,24.1667 274.5,31.5C 262.833,31.5 251.167,31.5 239.5,31.5C 239.5,24.1667 239.5,16.8333 239.5,9.5 Z"/></g>
<g><path style="opacity:0.97" fill="#77b8fb" d="M 274.5,9.5 C 292.5,9.5 310.5,9.5 328.5,9.5C 328.5,16.8333 328.5,24.1667 328.5,31.5C 310.5,31.5 292.5,31.5 274.5,31.5C 274.5,24.1667 274.5,16.8333 274.5,9.5 Z"/></g>
<g><path style="opacity:0.998" fill="#75b1fa" d="M 328.5,9.5 C 346.167,9.5 363.833,9.5 381.5,9.5C 384.287,10.4767 387.287,10.81 390.5,10.5C 390.5,17.5 390.5,24.5 390.5,31.5C 369.833,31.5 349.167,31.5 328.5,31.5C 328.5,24.1667 328.5,16.8333 328.5,9.5 Z"/></g>
<g><path style="opacity:0.989" fill="#73aafa" d="M 381.5,9.5 C 405.502,9.33337 429.502,9.50003 453.5,10C 480.667,14.5 496.5,30.3333 501,57.5C 501.667,146.5 501.667,235.5 501,324.5C 500.069,330.057 498.902,335.557 497.5,341C 509.113,397.85 492.113,443.85 446.5,479C 429.784,490.185 411.451,497.352 391.5,500.5C 390.534,492.92 390.201,485.253 390.5,477.5C 437.006,467.161 465.839,438.828 477,392.5C 483.425,346.198 467.592,309.698 429.5,283C 417.501,275.5 404.501,270.667 390.5,268.5C 390.5,260.833 390.5,253.167 390.5,245.5C 427.938,251.291 457.438,269.624 479,300.5C 479.5,239.501 479.667,178.501 479.5,117.5C 446.833,117.5 414.167,117.5 381.5,117.5C 384.287,116.523 387.287,116.19 390.5,116.5C 390.5,109.5 390.5,102.5 390.5,95.5C 420.167,95.5 449.833,95.5 479.5,95.5C 479.667,84.8281 479.5,74.1615 479,63.5C 477.167,44.3333 466.667,33.8333 447.5,32C 428.503,31.5001 409.503,31.3334 390.5,31.5C 390.5,24.5 390.5,17.5 390.5,10.5C 387.287,10.81 384.287,10.4767 381.5,9.5 Z"/></g>
<g><path style="opacity:0.986" fill="#85ebfc" d="M 51.5,11.5 C 51.175,19.0191 51.5084,26.3524 52.5,33.5C 39.9903,39.4913 33.157,49.4913 32,63.5C 31.5002,74.1615 31.3335,84.8281 31.5,95.5C 38.1667,95.5 44.8333,95.5 51.5,95.5C 51.5,102.5 51.5,109.5 51.5,116.5C 49.5853,116.216 47.9187,116.549 46.5,117.5C 41.5,117.5 36.5,117.5 31.5,117.5C 31.3333,184.834 31.5,252.167 32,319.5C 33.1817,333.491 40.0151,343.491 52.5,349.5C 51.5084,356.648 51.175,363.981 51.5,371.5C 42.1704,369.959 34.1704,365.959 27.5,359.5C 27.5386,358.244 27.0386,357.244 26,356.5C 25.5,246.167 25.3333,135.834 25.5,25.5C 32.4939,17.8645 41.1605,13.1978 51.5,11.5 Z"/></g>
<g><path style="opacity:0.958" fill="#86effc" d="M 25.5,25.5 C 25.3333,135.834 25.5,246.167 26,356.5C 27.0386,357.244 27.5386,358.244 27.5,359.5C 17.423,350.493 11.5897,339.16 10,325.5C 9.33333,236.167 9.33333,146.833 10,57.5C 11.6561,44.9772 16.8228,34.3105 25.5,25.5 Z"/></g>
<g><path style="opacity:0.99" fill="#83e3fb" d="M 51.5,95.5 C 61.5,95.5 71.5,95.5 81.5,95.5C 81.5,102.5 81.5,109.5 81.5,116.5C 83.099,116.232 84.4324,116.566 85.5,117.5C 72.5,117.5 59.5,117.5 46.5,117.5C 47.9187,116.549 49.5853,116.216 51.5,116.5C 51.5,109.5 51.5,102.5 51.5,95.5 Z"/></g>
<g><path style="opacity:0.97" fill="#81ddfb" d="M 81.5,95.5 C 90.1667,95.5 98.8333,95.5 107.5,95.5C 107.5,102.5 107.5,109.5 107.5,116.5C 109.099,116.232 110.432,116.566 111.5,117.5C 102.833,117.5 94.1667,117.5 85.5,117.5C 84.4324,116.566 83.099,116.232 81.5,116.5C 81.5,109.5 81.5,102.5 81.5,95.5 Z"/></g>
<g><path style="opacity:0.969" fill="#7fd7fb" d="M 107.5,95.5 C 116.167,95.5 124.833,95.5 133.5,95.5C 133.5,102.5 133.5,109.5 133.5,116.5C 135.415,116.216 137.081,116.549 138.5,117.5C 129.5,117.5 120.5,117.5 111.5,117.5C 110.432,116.566 109.099,116.232 107.5,116.5C 107.5,109.5 107.5,102.5 107.5,95.5 Z"/></g>
<g><path style="opacity:0.969" fill="#7ed1fb" d="M 133.5,95.5 C 144.5,95.5 155.5,95.5 166.5,95.5C 166.5,102.5 166.5,109.5 166.5,116.5C 168.735,116.205 170.735,116.539 172.5,117.5C 161.167,117.5 149.833,117.5 138.5,117.5C 137.081,116.549 135.415,116.216 133.5,116.5C 133.5,109.5 133.5,102.5 133.5,95.5 Z"/></g>
<g><path style="opacity:0.97" fill="#7ccafb" d="M 166.5,95.5 C 179.5,95.5 192.5,95.5 205.5,95.5C 205.5,102.833 205.5,110.167 205.5,117.5C 194.5,117.5 183.5,117.5 172.5,117.5C 170.735,116.539 168.735,116.205 166.5,116.5C 166.5,109.5 166.5,102.5 166.5,95.5 Z"/></g>
<g><path style="opacity:0.97" fill="#7ac4fb" d="M 205.5,95.5 C 216.833,95.5 228.167,95.5 239.5,95.5C 239.5,102.833 239.5,110.167 239.5,117.5C 228.167,117.5 216.833,117.5 205.5,117.5C 205.5,110.167 205.5,102.833 205.5,95.5 Z"/></g>
<g><path style="opacity:0.97" fill="#78befb" d="M 239.5,95.5 C 251.167,95.5 262.833,95.5 274.5,95.5C 274.5,102.833 274.5,110.167 274.5,117.5C 262.833,117.5 251.167,117.5 239.5,117.5C 239.5,110.167 239.5,102.833 239.5,95.5 Z"/></g>
<g><path style="opacity:0.97" fill="#77b8fb" d="M 274.5,95.5 C 292.5,95.5 310.5,95.5 328.5,95.5C 328.5,102.833 328.5,110.167 328.5,117.5C 310.5,117.5 292.5,117.5 274.5,117.5C 274.5,110.167 274.5,102.833 274.5,95.5 Z"/></g>
<g><path style="opacity:0.998" fill="#75b1fa" d="M 328.5,95.5 C 349.167,95.5 369.833,95.5 390.5,95.5C 390.5,102.5 390.5,109.5 390.5,116.5C 387.287,116.19 384.287,116.523 381.5,117.5C 363.833,117.5 346.167,117.5 328.5,117.5C 328.5,110.167 328.5,102.833 328.5,95.5 Z"/></g>
<g><path style="opacity:0.97" fill="#80d8fb" d="M 133.5,180.5 C 133.5,187.833 133.5,195.167 133.5,202.5C 123.161,202.666 112.828,202.5 102.5,202C 97.2961,200.428 94.9627,196.928 95.5,191.5C 94.9627,186.072 97.2961,182.572 102.5,181C 112.828,180.5 123.161,180.334 133.5,180.5 Z"/></g>
<g><path style="opacity:0.97" fill="#7ed1fb" d="M 133.5,180.5 C 144.5,180.5 155.5,180.5 166.5,180.5C 166.5,187.833 166.5,195.167 166.5,202.5C 155.5,202.5 144.5,202.5 133.5,202.5C 133.5,195.167 133.5,187.833 133.5,180.5 Z"/></g>
<g><path style="opacity:0.987" fill="#7ccafb" d="M 166.5,180.5 C 181.5,180.5 196.5,180.5 211.5,180.5C 209.735,181.461 207.735,181.795 205.5,181.5C 205.5,188.167 205.5,194.833 205.5,201.5C 207.735,201.205 209.735,201.539 211.5,202.5C 196.5,202.5 181.5,202.5 166.5,202.5C 166.5,195.167 166.5,187.833 166.5,180.5 Z"/></g>
<g><path style="opacity:0.974" fill="#7ac4fb" d="M 211.5,180.5 C 220.506,180.334 229.506,180.5 238.5,181C 245.696,185.328 247.196,191.162 243,198.5C 241.786,200.049 240.286,201.215 238.5,202C 229.506,202.5 220.506,202.666 211.5,202.5C 209.735,201.539 207.735,201.205 205.5,201.5C 205.5,194.833 205.5,188.167 205.5,181.5C 207.735,181.795 209.735,181.461 211.5,180.5 Z"/></g>
<g><path style="opacity:0.97" fill="#80d8fb" d="M 133.5,244.5 C 133.5,251.833 133.5,259.167 133.5,266.5C 123.161,266.666 112.828,266.5 102.5,266C 97.2961,264.428 94.9627,260.928 95.5,255.5C 94.9627,250.072 97.2961,246.572 102.5,245C 112.828,244.5 123.161,244.334 133.5,244.5 Z"/></g>
<g><path style="opacity:0.97" fill="#7ed1fb" d="M 133.5,244.5 C 144.5,244.5 155.5,244.5 166.5,244.5C 166.5,251.833 166.5,259.167 166.5,266.5C 155.5,266.5 144.5,266.5 133.5,266.5C 133.5,259.167 133.5,251.833 133.5,244.5 Z"/></g>
<g><path style="opacity:0.987" fill="#7ccafb" d="M 166.5,244.5 C 181.5,244.5 196.5,244.5 211.5,244.5C 209.735,245.461 207.735,245.795 205.5,245.5C 205.5,252.167 205.5,258.833 205.5,265.5C 207.735,265.205 209.735,265.539 211.5,266.5C 196.5,266.5 181.5,266.5 166.5,266.5C 166.5,259.167 166.5,251.833 166.5,244.5 Z"/></g>
<g><path style="opacity:0.974" fill="#7ac4fb" d="M 211.5,244.5 C 220.506,244.334 229.506,244.5 238.5,245C 245.696,249.328 247.196,255.162 243,262.5C 241.786,264.049 240.286,265.215 238.5,266C 229.506,266.5 220.506,266.666 211.5,266.5C 209.735,265.539 207.735,265.205 205.5,265.5C 205.5,258.833 205.5,252.167 205.5,245.5C 207.735,245.795 209.735,245.461 211.5,244.5 Z"/></g>
<g><path style="opacity:0.977" fill="#75b1fa" d="M 390.5,245.5 C 390.5,253.167 390.5,260.833 390.5,268.5C 369.565,265.049 349.232,267.382 329.5,275.5C 328.804,267.933 328.137,260.266 327.5,252.5C 347.896,245.016 368.896,242.682 390.5,245.5 Z"/></g>
<g><path style="opacity:0.977" fill="#76b8fb" d="M 327.5,252.5 C 328.137,260.266 328.804,267.933 329.5,275.5C 305.167,287.167 287.167,305.167 275.5,329.5C 274.669,317.34 274.169,305.007 274,292.5C 273.617,293.056 273.117,293.389 272.5,293.5C 286.896,274.777 305.229,261.11 327.5,252.5 Z"/></g>
<g><path style="opacity:0.975" fill="#78bdfb" d="M 275.5,329.5 C 263.542,358.188 263.542,386.854 275.5,415.5C 274.504,428.656 274.171,441.99 274.5,455.5C 254.455,432.048 244.455,404.715 244.5,373.5C 242.833,373.5 241.167,373.5 239.5,373.5C 239.5,366.167 239.5,358.833 239.5,351.5C 241.833,351.5 244.167,351.5 246.5,351.5C 249.785,329.608 258.452,310.275 272.5,293.5C 273.117,293.389 273.617,293.056 274,292.5C 274.169,305.007 274.669,317.34 275.5,329.5 Z"/></g>
<g><path style="opacity:0.987" fill="#75b1fa" d="M 390.5,319.5 C 390.5,326.5 390.5,333.5 390.5,340.5C 387.287,340.19 384.287,340.523 381.5,341.5C 373.826,341.334 366.159,341.5 358.5,342C 352.975,344.919 351.142,349.419 353,355.5C 354.167,358 356,359.833 358.5,361C 369.533,361.234 380.533,361.734 391.5,362.5C 390.533,370.414 390.199,378.414 390.5,386.5C 388.363,385.213 386.03,384.379 383.5,384C 372.442,383.907 361.442,383.24 350.5,382C 331.507,372.034 325.673,356.867 333,336.5C 339.194,325.319 348.694,319.652 361.5,319.5C 360.872,313.238 361.705,307.238 364,301.5C 370.957,295.824 377.291,296.491 383,303.5C 383.499,308.823 383.666,314.156 383.5,319.5C 385.833,319.5 388.167,319.5 390.5,319.5 Z"/></g>
<g><path style="opacity:0.98" fill="#74adfa" d="M 390.5,319.5 C 397.615,319.075 404.615,319.575 411.5,321C 415.305,325.091 416.472,329.924 415,335.5C 413.039,338.135 410.539,339.969 407.5,341C 398.84,341.5 390.173,341.666 381.5,341.5C 384.287,340.523 387.287,340.19 390.5,340.5C 390.5,333.5 390.5,326.5 390.5,319.5 Z"/></g>
<g><path style="opacity:0.99" fill="#83e3fb" d="M 52.5,349.5 C 62.0917,351.089 71.7584,351.755 81.5,351.5C 81.5,358.5 81.5,365.5 81.5,372.5C 83.099,372.232 84.4324,372.566 85.5,373.5C 76.1607,373.666 66.8274,373.5 57.5,373C 55.2922,372.809 53.2922,372.309 51.5,371.5C 51.175,363.981 51.5084,356.648 52.5,349.5 Z"/></g>
<g><path style="opacity:0.97" fill="#81ddfb" d="M 81.5,351.5 C 90.1667,351.5 98.8333,351.5 107.5,351.5C 107.5,358.5 107.5,365.5 107.5,372.5C 109.099,372.232 110.432,372.566 111.5,373.5C 102.833,373.5 94.1667,373.5 85.5,373.5C 84.4324,372.566 83.099,372.232 81.5,372.5C 81.5,365.5 81.5,358.5 81.5,351.5 Z"/></g>
<g><path style="opacity:0.969" fill="#7fd7fb" d="M 107.5,351.5 C 116.167,351.5 124.833,351.5 133.5,351.5C 133.5,358.5 133.5,365.5 133.5,372.5C 135.415,372.216 137.081,372.549 138.5,373.5C 129.5,373.5 120.5,373.5 111.5,373.5C 110.432,372.566 109.099,372.232 107.5,372.5C 107.5,365.5 107.5,358.5 107.5,351.5 Z"/></g>
<g><path style="opacity:0.969" fill="#7ed1fb" d="M 133.5,351.5 C 144.5,351.5 155.5,351.5 166.5,351.5C 166.5,358.5 166.5,365.5 166.5,372.5C 168.735,372.205 170.735,372.539 172.5,373.5C 161.167,373.5 149.833,373.5 138.5,373.5C 137.081,372.549 135.415,372.216 133.5,372.5C 133.5,365.5 133.5,358.5 133.5,351.5 Z"/></g>
<g><path style="opacity:0.97" fill="#7ccafb" d="M 166.5,351.5 C 179.5,351.5 192.5,351.5 205.5,351.5C 205.5,358.833 205.5,366.167 205.5,373.5C 194.5,373.5 183.5,373.5 172.5,373.5C 170.735,372.539 168.735,372.205 166.5,372.5C 166.5,365.5 166.5,358.5 166.5,351.5 Z"/></g>
<g><path style="opacity:0.97" fill="#7ac4fb" d="M 205.5,351.5 C 216.833,351.5 228.167,351.5 239.5,351.5C 239.5,358.833 239.5,366.167 239.5,373.5C 228.167,373.5 216.833,373.5 205.5,373.5C 205.5,366.167 205.5,358.833 205.5,351.5 Z"/></g>
<g><path style="opacity:0.98" fill="#73adfa" d="M 391.5,362.5 C 410.338,369.154 418.171,382.487 415,402.5C 411.17,414.831 403.003,422.498 390.5,425.5C 390.825,417.648 390.492,409.982 389.5,402.5C 394.366,397.44 394.7,392.107 390.5,386.5C 390.199,378.414 390.533,370.414 391.5,362.5 Z"/></g>
<g><path style="opacity:0.98" fill="#75b1fa" d="M 389.5,402.5 C 390.492,409.982 390.825,417.648 390.5,425.5C 388.393,426.468 386.059,426.802 383.5,426.5C 383.904,432.29 383.404,437.956 382,443.5C 375.306,449.129 368.973,448.796 363,442.5C 361.661,437.264 361.161,431.93 361.5,426.5C 352.392,426.943 343.392,426.443 334.5,425C 327.833,418.667 327.833,412.333 334.5,406C 351.409,404.694 368.409,404.028 385.5,404C 386.901,403.59 388.234,403.09 389.5,402.5 Z"/></g>
<g><path style="opacity:0.977" fill="#76b8fb" d="M 275.5,415.5 C 287.086,439.42 304.753,457.42 328.5,469.5C 328.5,477.5 328.5,485.5 328.5,493.5C 306.642,486.244 288.642,473.577 274.5,455.5C 274.171,441.99 274.504,428.656 275.5,415.5 Z"/></g>
<g><path style="opacity:0.981" fill="#75b2fa" d="M 328.5,469.5 C 348.458,478.211 369.125,480.878 390.5,477.5C 390.201,485.253 390.534,492.92 391.5,500.5C 369.761,503.554 348.761,501.22 328.5,493.5C 328.5,485.5 328.5,477.5 328.5,469.5 Z"/></g>
</svg>
