<svg width="192" height="203" viewBox="0 0 192 203" fill="none" xmlns="http://www.w3.org/2000/svg">
<path d="M0.511754 77.294C2.94058 80.4314 6.01222 83.072 9.41987 85.0991C12.875 87.1554 16.6881 88.4994 20.5998 89.3833C24.8182 90.3329 29.3837 90.6726 33.3575 88.6602C36.9624 86.8376 39.5811 83.1633 39.866 79.1129C40.1399 75.2487 37.9631 71.1032 34.3728 69.4998C30.2237 67.6444 25.4026 68.8936 22.2068 71.9871C19.263 74.8359 17.7436 78.8937 17.3857 82.9113C17.0424 86.7938 17.9262 90.7785 19.7451 94.2154C23.4194 101.155 31.4144 105.3 39.2086 104.504C40.2203 104.402 41.2247 104.241 42.2145 103.993C43.1422 103.759 43.7886 102.671 43.4891 101.747C43.1787 100.79 42.2364 100.22 41.2429 100.472C40.8412 100.574 40.4358 100.662 40.0267 100.735C39.9354 100.749 39.8441 100.768 39.7528 100.782C39.7308 100.786 39.278 100.863 39.5848 100.812C39.8879 100.76 39.4423 100.83 39.4167 100.83C39.278 100.844 39.1428 100.859 39.004 100.874C38.1786 100.947 37.3459 100.965 36.5168 100.925C36.1004 100.903 35.6877 100.866 35.275 100.823C34.9353 100.786 35.2932 100.83 35.348 100.833C35.2348 100.823 35.1179 100.801 35.0047 100.782C34.7782 100.746 34.5481 100.706 34.3217 100.662C33.4817 100.497 32.6562 100.278 31.8454 100.001C31.4838 99.8766 30.9944 99.778 30.6803 99.5588C30.7205 99.588 31.0492 99.7195 30.7351 99.5807C30.6511 99.5442 30.5671 99.504 30.4831 99.4675C30.253 99.3616 30.0229 99.252 29.7964 99.1351C29.0367 98.748 28.3026 98.306 27.605 97.8166C27.4553 97.7107 27.3055 97.6011 27.1558 97.4916C26.7905 97.2249 27.3603 97.6632 27.1411 97.4806C27.0535 97.4076 26.9622 97.3382 26.8709 97.2615C26.5495 96.9985 26.239 96.7209 25.9395 96.4324C25.64 96.1438 25.3478 95.8444 25.0703 95.5339C24.9315 95.3769 24.7927 95.2198 24.6575 95.0591C24.5845 94.9714 24.5114 94.8801 24.4384 94.7888C24.1937 94.4966 24.6283 95.0518 24.3836 94.7194C23.8905 94.0437 23.4303 93.3461 23.0249 92.612C22.8241 92.2468 22.6341 91.8706 22.4588 91.4944C22.4186 91.4104 22.3821 91.3264 22.3419 91.2387C22.3346 91.2241 22.1593 90.8004 22.2689 91.0744C22.3785 91.3446 22.2105 90.921 22.2031 90.9064C22.1593 90.7968 22.1191 90.6909 22.079 90.5813C21.7795 89.7741 21.5348 88.9487 21.3485 88.1086C21.2572 87.6996 21.1805 87.2869 21.1147 86.8741C21.1001 86.7828 21.0819 86.6879 21.0746 86.5966C21.1147 87.0275 21.0965 86.7609 21.0855 86.666C21.06 86.4103 21.0307 86.1583 21.0125 85.9026C20.9467 85.0443 20.9431 84.1824 20.9979 83.3277C21.0125 83.1195 21.0307 82.9113 21.049 82.7031C21.06 82.5972 21.0892 81.9142 21.0782 82.4292C21.0855 82.0055 21.2243 81.5417 21.3193 81.129C21.5092 80.278 21.7649 79.4416 22.0863 78.6308C22.1228 78.5431 22.1557 78.4518 22.1958 78.3641C22.0278 78.7221 22.1484 78.481 22.1812 78.4043C22.2835 78.1888 22.3821 77.9697 22.488 77.7578C22.6816 77.3743 22.8934 76.9982 23.1199 76.6366C23.3427 76.275 23.5801 75.9097 23.8467 75.581C23.5655 75.9244 23.9855 75.424 24.0549 75.3436C24.2266 75.1464 24.4019 74.9565 24.5845 74.7702C24.8657 74.4853 25.1616 74.2114 25.472 73.9594C25.5597 73.89 25.7679 73.6599 25.4939 73.9375C25.5524 73.8754 25.6583 73.8169 25.724 73.7695C25.9176 73.6307 26.1185 73.4992 26.323 73.3787C26.5093 73.2654 26.6992 73.1595 26.8928 73.0609C26.9914 73.0098 27.5904 72.7468 27.185 72.9112C27.616 72.7395 28.0506 72.5934 28.4998 72.4802C28.7117 72.4254 28.9235 72.3816 29.139 72.3414C29.2266 72.3268 29.3326 72.2976 29.4239 72.2939C28.9965 72.3122 29.3289 72.3085 29.4421 72.2976C29.8987 72.2574 30.3552 72.2464 30.8118 72.2756C30.9067 72.2829 31.0017 72.2939 31.0967 72.2976C31.5605 72.3268 30.8227 72.2391 31.1076 72.2976C31.3195 72.3377 31.5313 72.3743 31.7395 72.4254C31.9257 72.4692 32.1084 72.524 32.291 72.5824C32.4042 72.619 32.5138 72.6664 32.627 72.703C32.7512 72.7505 32.7183 72.7358 32.5247 72.6555C32.5905 72.6847 32.6562 72.7139 32.722 72.7431C33.0689 72.9075 33.405 73.1011 33.7227 73.3202C33.7446 73.3348 34.0806 73.5978 33.8505 73.4079C33.6204 73.218 33.9492 73.4955 33.9674 73.5101C34.1318 73.6526 34.2852 73.7987 34.4386 73.9557C34.5591 74.0799 34.676 74.2077 34.7855 74.3392C34.8038 74.3611 35.0522 74.7008 34.8842 74.4598C34.7162 74.215 34.9572 74.5693 34.9718 74.5876C35.1946 74.909 35.3918 75.245 35.5672 75.5956C35.6146 75.6943 35.6585 75.7929 35.7059 75.8915C35.8301 76.1362 35.5525 75.4715 35.6986 75.8769C35.7571 76.0412 35.8192 76.2019 35.874 76.3699C36.0091 76.7863 36.1004 77.21 36.1807 77.641C36.2136 77.809 36.1296 77.8528 36.1698 77.546C36.1625 77.6154 36.1881 77.7323 36.1954 77.8053C36.2136 78.0026 36.2209 78.1961 36.2246 78.3934C36.2282 78.5906 36.2246 78.7842 36.2136 78.9814C36.21 79.069 36.2027 79.1567 36.1954 79.2407C36.1881 79.3284 36.1808 79.416 36.1698 79.5C36.1808 79.4233 36.1881 79.3503 36.199 79.2736C36.2538 79.6096 36.0274 80.1392 35.9287 80.4642C35.8703 80.6578 35.8046 80.8514 35.7352 81.0413C35.695 81.1472 35.611 81.4504 35.7425 81.045C35.7023 81.1728 35.6292 81.297 35.5745 81.4139C35.4064 81.7608 35.2165 82.0932 35.012 82.4183C34.9024 82.5899 34.7855 82.7579 34.6687 82.9223C34.4568 83.2218 34.7052 82.8967 34.7088 82.8785C34.7015 82.9405 34.4897 83.1451 34.4495 83.1926C34.1829 83.503 33.898 83.7989 33.5985 84.0764C33.4634 84.2006 33.3283 84.3211 33.1895 84.438C33.1749 84.449 32.8279 84.7339 33.0543 84.5512C33.2625 84.3869 32.8973 84.6645 32.8534 84.6937C32.5174 84.9311 32.1705 85.1466 31.8125 85.3438C31.6336 85.4424 31.4509 85.5337 31.2647 85.6214C31.1734 85.6652 31.0784 85.7054 30.9871 85.7456C31.3742 85.5666 30.9177 85.7675 30.8629 85.7894C30.4392 85.9464 30.0083 86.0779 29.5663 86.1838C29.3727 86.2313 29.1755 86.2752 28.9783 86.3117C28.8541 86.3336 28.7299 86.3555 28.6057 86.3774C28.5327 86.3884 28.456 86.403 28.383 86.4103C28.5948 86.3811 28.6313 86.3774 28.4925 86.392C27.5502 86.4724 26.6189 86.5162 25.6692 86.4687C25.2054 86.4432 24.7415 86.403 24.2813 86.3519C24.1791 86.3409 24.0768 86.3263 23.9745 86.3153C24.358 86.3628 24.0768 86.3299 24.0001 86.3153C23.7444 86.2752 23.4888 86.235 23.2331 86.1912C21.3996 85.8697 19.5844 85.4022 17.8057 84.8544C16.9474 84.5914 16.0964 84.2883 15.2637 83.9523C15.1504 83.9084 15.0372 83.8609 14.9276 83.8135C14.9861 83.839 15.2746 83.9632 14.9605 83.8281C14.7596 83.7404 14.5587 83.6528 14.3615 83.5614C13.9415 83.3715 13.5251 83.1706 13.1124 82.9588C11.509 82.1443 9.97503 81.1947 8.53235 80.1173C8.44104 80.0479 8.01006 79.7119 8.32416 79.9602C8.13424 79.8105 7.94432 79.6571 7.75439 79.5037C7.41838 79.2261 7.08601 78.9412 6.76095 78.649C6.07431 78.0318 5.41323 77.3853 4.78867 76.706C4.19334 76.0631 3.63087 75.3948 3.09398 74.7008C2.50594 73.9411 1.1217 74.0361 0.511754 74.7008C-0.226024 75.5153 -0.112801 76.4832 0.511754 77.294Z" fill="#33404F"/>
<path d="M178.422 79.92H163.864C161.46 74.2443 157.983 69.0141 153.659 64.4084V26.99C139.974 26.99 128.147 34.9485 122.556 46.4899C116.931 45.0655 110.981 44.2949 104.823 44.2949C70.1112 44.2949 41.9697 68.5941 41.9697 98.569C41.9697 113.701 49.143 127.383 60.71 137.226V160.005H85.8894V150.334C91.8647 151.963 98.2234 152.843 104.823 152.843C111.423 152.843 117.782 151.963 123.757 150.334V159.454H148.937V137.222C155.493 131.641 160.642 124.83 163.867 117.218H178.426C182.056 117.218 185 114.274 185 110.644V86.4907C184.996 82.8602 182.053 79.92 178.422 79.92Z" fill="white" stroke="#33404F" stroke-width="4" stroke-miterlimit="10"/>
<path d="M137.483 86.655C139.683 86.655 141.467 84.871 141.467 82.6703C141.467 80.4696 139.683 78.6855 137.483 78.6855C135.282 78.6855 133.498 80.4696 133.498 82.6703C133.498 84.871 135.282 86.655 137.483 86.655Z" fill="#33404F"/>
<path d="M137.483 109.387C143.314 109.387 148.042 106.966 148.042 103.978C148.042 100.991 143.314 98.569 137.483 98.569C131.651 98.569 126.924 100.991 126.924 103.978C126.924 106.966 131.651 109.387 137.483 109.387Z" fill="#00DDA3"/>
<path d="M84.6805 62.1769C97.5332 55.7998 109.718 56.1176 121.328 62.1769" stroke="#33404F" stroke-width="4" stroke-miterlimit="10" stroke-linecap="round"/>
<path d="M103.004 49.7786C112.884 49.7786 120.894 41.7693 120.894 31.8893C120.894 22.0093 112.884 14 103.004 14C93.1244 14 85.1151 22.0093 85.1151 31.8893C85.1151 41.7693 93.1244 49.7786 103.004 49.7786Z" fill="#00DDA3" stroke="#33404F" stroke-width="4" stroke-miterlimit="10"/>
<path d="M103.004 41.4877C108.305 41.4877 112.603 37.1903 112.603 31.8893C112.603 26.5882 108.305 22.2909 103.004 22.2909C97.7034 22.2909 93.406 26.5882 93.406 31.8893C93.406 37.1903 97.7034 41.4877 103.004 41.4877Z" fill="#00DDA3" stroke="#33404F" stroke-width="4" stroke-miterlimit="10"/>
<path d="M79.3116 146.166H44.8478C44.0407 146.166 43.3869 145.512 43.3869 144.705V140.72C43.3869 139.913 44.0407 139.259 44.8478 139.259H79.3116C80.1187 139.259 80.7725 139.913 80.7725 140.72V144.705C80.7725 145.512 80.1151 146.166 79.3116 146.166Z" fill="#33404F"/>
<path d="M67.8066 154.314H33.3428C32.5357 154.314 31.8819 153.661 31.8819 152.853V148.869C31.8819 148.061 32.5357 147.408 33.3428 147.408H67.8066C68.6137 147.408 69.2675 148.061 69.2675 148.869V152.853C69.2675 153.661 68.6137 154.314 67.8066 154.314Z" fill="#00DDA3" stroke="#33404F" stroke-width="4" stroke-miterlimit="10"/>
<path d="M79.3116 162.463H44.8478C44.0407 162.463 43.3869 161.809 43.3869 161.002V157.017C43.3869 156.21 44.0407 155.556 44.8478 155.556H79.3116C80.1187 155.556 80.7725 156.21 80.7725 157.017V161.002C80.7725 161.809 80.1151 162.463 79.3116 162.463Z" fill="#33404F"/>
<circle cx="185" cy="7" r="7" fill="#33404F"/>
<circle cx="25" cy="29" r="5" stroke="#33404F" stroke-width="4"/>
<path d="M107 169C104.228 178.451 98.7106 184.312 90 186C99.1567 188.11 105.045 193.549 107 203C108.053 193.354 114.106 188.02 124 186C113.756 184.529 108.775 178.234 107 169Z" fill="#00DDA3"/>
</svg>
