<svg width="281" height="280" viewBox="0 0 281 280" fill="none" xmlns="http://www.w3.org/2000/svg">
<circle cx="-9.5" cy="139.5" r="290.5" fill="#E1FFEF"/>
<path d="M29.5118 123.294C31.9406 126.431 35.0122 129.072 38.4199 131.099C41.875 133.155 45.6881 134.499 49.5998 135.383C53.8182 136.333 58.3837 136.673 62.3575 134.66C65.9624 132.838 68.5811 129.163 68.866 125.113C69.1399 121.249 66.9631 117.103 63.3728 115.5C59.2237 113.644 54.4026 114.894 51.2068 117.987C48.263 120.836 46.7436 124.894 46.3857 128.911C46.0424 132.794 46.9262 136.779 48.7451 140.215C52.4194 147.155 60.4144 151.3 68.2086 150.504C69.2203 150.402 70.2247 150.241 71.2145 149.993C72.1422 149.759 72.7886 148.671 72.4891 147.747C72.1787 146.79 71.2364 146.22 70.2429 146.472C69.8412 146.574 69.4358 146.662 69.0267 146.735C68.9354 146.749 68.8441 146.768 68.7528 146.782C68.7308 146.786 68.278 146.863 68.5848 146.812C68.8879 146.76 68.4423 146.83 68.4167 146.83C68.278 146.844 68.1428 146.859 68.004 146.874C67.1786 146.947 66.3459 146.965 65.5168 146.925C65.1004 146.903 64.6877 146.866 64.275 146.823C63.9353 146.786 64.2932 146.83 64.348 146.833C64.2348 146.823 64.1179 146.801 64.0047 146.782C63.7782 146.746 63.5481 146.706 63.3217 146.662C62.4817 146.497 61.6562 146.278 60.8454 146.001C60.4838 145.877 59.9944 145.778 59.6803 145.559C59.7205 145.588 60.0492 145.72 59.7351 145.581C59.6511 145.544 59.5671 145.504 59.4831 145.467C59.253 145.362 59.0229 145.252 58.7964 145.135C58.0367 144.748 57.3026 144.306 56.605 143.817C56.4553 143.711 56.3055 143.601 56.1558 143.492C55.7905 143.225 56.3603 143.663 56.1411 143.481C56.0535 143.408 55.9622 143.338 55.8709 143.261C55.5495 142.999 55.239 142.721 54.9395 142.432C54.64 142.144 54.3478 141.844 54.0703 141.534C53.9315 141.377 53.7927 141.22 53.6575 141.059C53.5845 140.971 53.5114 140.88 53.4384 140.789C53.1937 140.497 53.6283 141.052 53.3836 140.719C52.8905 140.044 52.4303 139.346 52.0249 138.612C51.8241 138.247 51.6341 137.871 51.4588 137.494C51.4186 137.41 51.3821 137.326 51.3419 137.239C51.3346 137.224 51.1593 136.8 51.2689 137.074C51.3785 137.345 51.2105 136.921 51.2031 136.906C51.1593 136.797 51.1191 136.691 51.079 136.581C50.7795 135.774 50.5348 134.949 50.3485 134.109C50.2572 133.7 50.1805 133.287 50.1147 132.874C50.1001 132.783 50.0819 132.688 50.0746 132.597C50.1147 133.028 50.0965 132.761 50.0855 132.666C50.06 132.41 50.0307 132.158 50.0125 131.903C49.9467 131.044 49.9431 130.182 49.9979 129.328C50.0125 129.12 50.0307 128.911 50.049 128.703C50.06 128.597 50.0892 127.914 50.0782 128.429C50.0855 128.006 50.2243 127.542 50.3193 127.129C50.5092 126.278 50.7649 125.442 51.0863 124.631C51.1228 124.543 51.1557 124.452 51.1958 124.364C51.0278 124.722 51.1484 124.481 51.1812 124.404C51.2835 124.189 51.3821 123.97 51.488 123.758C51.6816 123.374 51.8934 122.998 52.1199 122.637C52.3427 122.275 52.5801 121.91 52.8467 121.581C52.5655 121.924 52.9855 121.424 53.0549 121.344C53.2266 121.146 53.4019 120.956 53.5845 120.77C53.8657 120.485 54.1616 120.211 54.472 119.959C54.5597 119.89 54.7679 119.66 54.4939 119.937C54.5524 119.875 54.6583 119.817 54.724 119.769C54.9176 119.631 55.1185 119.499 55.323 119.379C55.5093 119.265 55.6992 119.16 55.8928 119.061C55.9914 119.01 56.5904 118.747 56.185 118.911C56.616 118.739 57.0506 118.593 57.4998 118.48C57.7117 118.425 57.9235 118.382 58.139 118.341C58.2266 118.327 58.3326 118.298 58.4239 118.294C57.9965 118.312 58.3289 118.309 58.4421 118.298C58.8987 118.257 59.3552 118.246 59.8118 118.276C59.9067 118.283 60.0017 118.294 60.0967 118.298C60.5605 118.327 59.8227 118.239 60.1076 118.298C60.3195 118.338 60.5313 118.374 60.7395 118.425C60.9257 118.469 61.1084 118.524 61.291 118.582C61.4042 118.619 61.5138 118.666 61.627 118.703C61.7512 118.75 61.7183 118.736 61.5247 118.655C61.5905 118.685 61.6562 118.714 61.722 118.743C62.0689 118.908 62.405 119.101 62.7227 119.32C62.7446 119.335 63.0806 119.598 62.8505 119.408C62.6204 119.218 62.9492 119.496 62.9674 119.51C63.1318 119.653 63.2852 119.799 63.4386 119.956C63.5591 120.08 63.676 120.208 63.7855 120.339C63.8038 120.361 64.0522 120.701 63.8842 120.46C63.7162 120.215 63.9572 120.569 63.9718 120.588C64.1946 120.909 64.3918 121.245 64.5672 121.596C64.6146 121.694 64.6585 121.793 64.7059 121.891C64.8301 122.136 64.5525 121.471 64.6986 121.877C64.7571 122.041 64.8192 122.202 64.874 122.37C65.0091 122.786 65.1004 123.21 65.1807 123.641C65.2136 123.809 65.1296 123.853 65.1698 123.546C65.1625 123.615 65.1881 123.732 65.1954 123.805C65.2136 124.003 65.2209 124.196 65.2246 124.393C65.2282 124.591 65.2246 124.784 65.2136 124.981C65.21 125.069 65.2027 125.157 65.1954 125.241C65.1881 125.328 65.1808 125.416 65.1698 125.5C65.1808 125.423 65.1881 125.35 65.199 125.274C65.2538 125.61 65.0274 126.139 64.9287 126.464C64.8703 126.658 64.8046 126.851 64.7352 127.041C64.695 127.147 64.611 127.45 64.7425 127.045C64.7023 127.173 64.6292 127.297 64.5745 127.414C64.4064 127.761 64.2165 128.093 64.012 128.418C63.9024 128.59 63.7855 128.758 63.6687 128.922C63.4568 129.222 63.7052 128.897 63.7088 128.878C63.7015 128.941 63.4897 129.145 63.4495 129.193C63.1829 129.503 62.898 129.799 62.5985 130.076C62.4634 130.201 62.3283 130.321 62.1895 130.438C62.1749 130.449 61.8279 130.734 62.0543 130.551C62.2625 130.387 61.8973 130.664 61.8534 130.694C61.5174 130.931 61.1705 131.147 60.8125 131.344C60.6336 131.442 60.4509 131.534 60.2647 131.621C60.1734 131.665 60.0784 131.705 59.9871 131.746C60.3742 131.567 59.9177 131.767 59.8629 131.789C59.4392 131.946 59.0083 132.078 58.5663 132.184C58.3727 132.231 58.1755 132.275 57.9783 132.312C57.8541 132.334 57.7299 132.356 57.6057 132.377C57.5327 132.388 57.456 132.403 57.383 132.41C57.5948 132.381 57.6313 132.377 57.4925 132.392C56.5502 132.472 55.6189 132.516 54.6692 132.469C54.2054 132.443 53.7415 132.403 53.2813 132.352C53.1791 132.341 53.0768 132.326 52.9745 132.315C53.358 132.363 53.0768 132.33 53.0001 132.315C52.7444 132.275 52.4888 132.235 52.2331 132.191C50.3996 131.87 48.5844 131.402 46.8057 130.854C45.9474 130.591 45.0964 130.288 44.2637 129.952C44.1504 129.908 44.0372 129.861 43.9276 129.813C43.9861 129.839 44.2746 129.963 43.9605 129.828C43.7596 129.74 43.5587 129.653 43.3615 129.561C42.9415 129.372 42.5251 129.171 42.1124 128.959C40.509 128.144 38.975 127.195 37.5323 126.117C37.441 126.048 37.0101 125.712 37.3242 125.96C37.1342 125.81 36.9443 125.657 36.7544 125.504C36.4184 125.226 36.086 124.941 35.761 124.649C35.0743 124.032 34.4132 123.385 33.7887 122.706C33.1933 122.063 32.6309 121.395 32.094 120.701C31.5059 119.941 30.1217 120.036 29.5118 120.701C28.774 121.515 28.8872 122.483 29.5118 123.294Z" fill="#33404F"/>
<path d="M207.422 125.92H192.864C190.46 120.244 186.983 115.014 182.659 110.408V72.99C168.974 72.99 157.147 80.9485 151.556 92.4899C145.931 91.0655 139.981 90.2949 133.823 90.2949C99.1112 90.2949 70.9697 114.594 70.9697 144.569C70.9697 159.701 78.143 173.383 89.71 183.226V206.005H114.889V196.334C120.865 197.963 127.223 198.843 133.823 198.843C140.423 198.843 146.782 197.963 152.757 196.334V205.454H177.937V183.222C184.493 177.641 189.642 170.83 192.867 163.218H207.426C211.056 163.218 214 160.274 214 156.644V132.491C213.996 128.86 211.053 125.92 207.422 125.92Z" fill="white" stroke="#33404F" stroke-width="4" stroke-miterlimit="10"/>
<path d="M166.483 132.655C168.683 132.655 170.467 130.871 170.467 128.67C170.467 126.47 168.683 124.686 166.483 124.686C164.282 124.686 162.498 126.47 162.498 128.67C162.498 130.871 164.282 132.655 166.483 132.655Z" fill="#33404F"/>
<path d="M166.483 155.387C172.314 155.387 177.042 152.966 177.042 149.978C177.042 146.991 172.314 144.569 166.483 144.569C160.651 144.569 155.924 146.991 155.924 149.978C155.924 152.966 160.651 155.387 166.483 155.387Z" fill="#00DDA3"/>
<path d="M113.681 108.177C126.533 101.8 138.718 102.118 150.328 108.177" stroke="#33404F" stroke-width="4" stroke-miterlimit="10" stroke-linecap="round"/>
<path d="M132.004 95.7786C141.884 95.7786 149.894 87.7693 149.894 77.8893C149.894 68.0093 141.884 60 132.004 60C122.124 60 114.115 68.0093 114.115 77.8893C114.115 87.7693 122.124 95.7786 132.004 95.7786Z" fill="#00DDA3" stroke="#33404F" stroke-width="4" stroke-miterlimit="10"/>
<path d="M132.004 87.4877C137.305 87.4877 141.603 83.1903 141.603 77.8893C141.603 72.5882 137.305 68.2909 132.004 68.2909C126.703 68.2909 122.406 72.5882 122.406 77.8893C122.406 83.1903 126.703 87.4877 132.004 87.4877Z" fill="#00DDA3" stroke="#33404F" stroke-width="4" stroke-miterlimit="10"/>
<path d="M108.312 192.166H73.8478C73.0407 192.166 72.3869 191.512 72.3869 190.705V186.72C72.3869 185.913 73.0407 185.259 73.8478 185.259H108.312C109.119 185.259 109.773 185.913 109.773 186.72V190.705C109.773 191.512 109.115 192.166 108.312 192.166Z" fill="#33404F"/>
<path d="M96.8066 200.314H62.3428C61.5357 200.314 60.8819 199.661 60.8819 198.853V194.869C60.8819 194.061 61.5357 193.408 62.3428 193.408H96.8066C97.6137 193.408 98.2675 194.061 98.2675 194.869V198.853C98.2675 199.661 97.6137 200.314 96.8066 200.314Z" fill="#00DDA3" stroke="#33404F" stroke-width="4" stroke-miterlimit="10"/>
<path d="M108.312 208.463H73.8478C73.0407 208.463 72.3869 207.809 72.3869 207.002V203.017C72.3869 202.21 73.0407 201.556 73.8478 201.556H108.312C109.119 201.556 109.773 202.21 109.773 203.017V207.002C109.773 207.809 109.115 208.463 108.312 208.463Z" fill="#33404F"/>
<circle cx="214" cy="53" r="7" fill="#33404F"/>
<circle cx="54" cy="75" r="5" stroke="#33404F" stroke-width="4"/>
<path d="M136 215C133.228 224.451 127.711 230.312 119 232C128.157 234.11 134.045 239.549 136 249C137.053 239.354 143.106 234.02 153 232C142.756 230.529 137.775 224.234 136 215Z" fill="#00DDA3"/>
</svg>
