<?xml version="1.0" encoding="UTF-8"?>
<!DOCTYPE svg PUBLIC "-//W3C//DTD SVG 1.1//EN" "http://www.w3.org/Graphics/SVG/1.1/DTD/svg11.dtd">
<svg xmlns="http://www.w3.org/2000/svg" version="1.1" width="512px" height="512px" style="shape-rendering:geometricPrecision; text-rendering:geometricPrecision; image-rendering:optimizeQuality; fill-rule:evenodd; clip-rule:evenodd" xmlns:xlink="http://www.w3.org/1999/xlink">
<g><path style="opacity:0.997" fill="#48c2f9" d="M 295.5,17.5 C 293.372,20.1303 291.039,22.6303 288.5,25C 289.381,25.7083 290.047,26.5416 290.5,27.5C 263.782,10.5764 236.282,7.90977 208,19.5C 206.667,20.1667 205.667,21.1667 205,22.5C 204.617,21.944 204.117,21.6107 203.5,21.5C 207.902,15.5914 212.902,10.0914 218.5,5C 217.906,4.53566 217.239,4.36899 216.5,4.5C 244.877,-3.54146 271.211,0.791875 295.5,17.5 Z"/></g>
<g><path style="opacity:1" fill="#47c6f9" d="M 216.5,4.5 C 217.239,4.36899 217.906,4.53566 218.5,5C 212.902,10.0914 207.902,15.5914 203.5,21.5C 171.486,41.8634 158.153,70.8634 163.5,108.5C 160.899,111.604 158.066,114.604 155,117.5C 153.816,114.058 152.65,110.725 151.5,107.5C 146.39,70.8334 158.723,40.6667 188.5,17C 197.245,11.4598 206.578,7.29316 216.5,4.5 Z"/></g>
<g><path style="opacity:0.995" fill="#49c1f9" d="M 271.5,33.5 C 271.414,34.4959 271.748,35.3292 272.5,36C 269.882,38.1057 267.882,40.6057 266.5,43.5C 240.547,32.943 218.047,38.2763 199,59.5C 186.44,77.2662 184.273,96.2662 192.5,116.5C 189.767,119.239 186.767,121.573 183.5,123.5C 172.77,100.78 173.603,78.4464 186,56.5C 208.745,27.1895 237.245,19.5229 271.5,33.5 Z"/></g>
<g><path style="opacity:0.97" fill="#4eb1f8" d="M 295.5,17.5 C 316.503,32.479 329.169,52.8123 333.5,78.5C 329.203,81.1295 325.537,84.4628 322.5,88.5C 321.417,86.2895 321.417,84.1229 322.5,82C 318.724,59.9693 308.057,41.8026 290.5,27.5C 290.047,26.5416 289.381,25.7083 288.5,25C 291.039,22.6303 293.372,20.1303 295.5,17.5 Z"/></g>
<g><path style="opacity:0.967" fill="#4eb3f9" d="M 271.5,33.5 C 292.302,43.7504 304.302,60.4171 307.5,83.5C 306.837,81.9581 306.17,80.2914 305.5,78.5C 302.48,81.189 299.48,83.8556 296.5,86.5C 293.771,67.4624 283.771,53.1291 266.5,43.5C 267.882,40.6057 269.882,38.1057 272.5,36C 271.748,35.3292 271.414,34.4959 271.5,33.5 Z"/></g>
<g><path style="opacity:0.989" fill="#4cb7f9" d="M 240.5,54.5 C 246.823,54.6809 249.489,58.0142 248.5,64.5C 261.009,67.8421 265.509,75.8421 262,88.5C 259.673,93.4232 255.84,96.5899 250.5,98C 245.833,98.3333 241.167,98.6667 236.5,99C 231.737,102.03 231.404,105.363 235.5,109C 243.167,109.333 250.833,109.667 258.5,110C 264.23,112.605 264.897,116.272 260.5,121C 256.514,121.499 252.514,121.666 248.5,121.5C 248.957,128.88 245.624,131.713 238.5,130C 237.833,128.667 236.833,127.667 235.5,127C 236.76,125.186 236.76,123.353 235.5,121.5C 226.123,118.925 221.123,112.758 220.5,103C 221.897,95.9345 225.897,90.9345 232.5,88C 238.249,87.8522 243.915,87.1856 249.5,86C 252.476,81.9063 251.809,78.573 247.5,76C 239.173,75.5003 230.84,75.3336 222.5,75.5C 220.849,71.7818 221.182,68.2818 223.5,65C 227.821,64.501 232.154,64.3343 236.5,64.5C 235.741,60.0945 237.075,56.7611 240.5,54.5 Z"/></g>
<g><path style="opacity:0.986" fill="#5895f7" d="M 412.5,121.5 C 411.883,121.389 411.383,121.056 411,120.5C 408.705,123.797 406.038,126.797 403,129.5C 402.617,128.944 402.117,128.611 401.5,128.5C 401.436,124.78 400.936,121.114 400,117.5C 391.141,125.685 383.808,135.019 378,145.5C 377.572,148.322 378.072,150.988 379.5,153.5C 377.203,155.294 375.037,157.294 373,159.5C 372.805,160.819 372.972,162.153 373.5,163.5C 371.502,162.032 369.835,160.199 368.5,158C 364.559,150.284 365.059,142.45 370,134.5C 374.5,128.667 379,122.833 383.5,117C 373.464,119.279 364.13,125.279 355.5,135C 353.782,135.346 352.115,135.846 350.5,136.5C 347.567,134.538 344.567,132.871 341.5,131.5C 341.389,130.883 341.056,130.383 340.5,130C 343.083,127.245 345.749,124.745 348.5,122.5C 349.552,122.649 350.552,122.483 351.5,122C 366.231,108.808 383.565,101.308 403.5,99.5C 405.697,99.8481 407.53,100.848 409,102.5C 410.875,108.709 412.042,115.043 412.5,121.5 Z"/></g>
<g><path style="opacity:1" fill="#51a9f8" d="M 307.5,83.5 C 310.614,104.328 304.948,122.494 290.5,138C 295.659,139.26 300.826,140.426 306,141.5C 306.383,140.944 306.883,140.611 307.5,140.5C 304.501,144.167 300.835,147.833 296.5,151.5C 287.442,151.073 278.109,150.073 268.5,148.5C 257.725,149.489 246.725,150.489 235.5,151.5C 235.082,150.778 234.416,150.278 233.5,150C 236.833,146.667 240.167,143.333 243.5,140C 242.584,139.722 241.918,139.222 241.5,138.5C 252.489,137.88 263.489,137.38 274.5,137C 291.442,123.323 298.775,106.489 296.5,86.5C 299.48,83.8556 302.48,81.189 305.5,78.5C 306.17,80.2914 306.837,81.9581 307.5,83.5 Z"/></g>
<g><path style="opacity:0.978" fill="#4abef9" d="M 151.5,107.5 C 152.65,110.725 153.816,114.058 155,117.5C 158.066,114.604 160.899,111.604 163.5,108.5C 165.367,119.897 169.7,130.23 176.5,139.5C 175.811,140.774 174.977,140.774 174,139.5C 171.894,142.118 169.394,144.118 166.5,145.5C 166.189,144.522 165.522,143.855 164.5,143.5C 124.662,164.03 95.9951,195.363 78.5,237.5C 77.8826,237.389 77.3826,237.056 77,236.5C 71.9439,241.737 67.1106,246.404 62.5,250.5C 77.1296,197.921 109.463,158.754 159.5,133C 154.683,124.869 152.016,116.369 151.5,107.5 Z"/></g>
<g><path style="opacity:0.978" fill="#54a2f8" d="M 333.5,78.5 C 335.221,90.9718 334.554,103.305 331.5,115.5C 337.183,117.993 342.85,120.326 348.5,122.5C 345.749,124.745 343.083,127.245 340.5,130C 341.056,130.383 341.389,130.883 341.5,131.5C 337.398,130.698 333.065,129.365 328.5,127.5C 325.873,133.053 322.873,138.387 319.5,143.5C 320.949,144.172 322.282,144.839 323.5,145.5C 323.611,146.117 323.944,146.617 324.5,147C 321.537,148.961 318.871,151.294 316.5,154C 317.056,154.383 317.389,154.883 317.5,155.5C 310.657,153.665 303.657,152.332 296.5,151.5C 300.835,147.833 304.501,144.167 307.5,140.5C 316.969,127.264 321.636,113.43 321.5,99C 323.355,95.5873 323.688,92.0873 322.5,88.5C 325.537,84.4628 329.203,81.1295 333.5,78.5 Z"/></g>
<g><path style="opacity:0.969" fill="#4db4f9" d="M 192.5,116.5 C 198.837,127.836 207.837,136.502 219.5,142.5C 226.755,140.735 234.088,139.402 241.5,138.5C 241.918,139.222 242.584,139.722 243.5,140C 240.167,143.333 236.833,146.667 233.5,150C 234.416,150.278 235.082,150.778 235.5,151.5C 216.705,153.957 198.372,159.124 180.5,167C 175.167,169.667 169.833,172.333 164.5,175C 162.285,177.242 161.952,179.742 163.5,182.5C 160.5,184.833 157.833,187.5 155.5,190.5C 153.075,189.286 151.575,187.286 151,184.5C 149.215,177.194 151.048,171.028 156.5,166C 162.395,162.598 168.395,159.432 174.5,156.5C 171.809,152.815 169.142,149.148 166.5,145.5C 169.394,144.118 171.894,142.118 174,139.5C 174.977,140.774 175.811,140.774 176.5,139.5C 179.693,143.847 183.36,147.847 187.5,151.5C 192.538,149.765 197.538,147.932 202.5,146C 193.922,140.313 187.589,132.813 183.5,123.5C 186.767,121.573 189.767,119.239 192.5,116.5 Z"/></g>
<g><path style="opacity:0.99" fill="#5d89f7" d="M 412.5,121.5 C 413.009,125.641 413.342,129.808 413.5,134C 412.83,142.188 412.33,150.355 412,158.5C 418.955,164.859 425.455,171.525 431.5,178.5C 429.203,180.294 427.037,182.294 425,184.5C 425.019,186.107 425.185,187.774 425.5,189.5C 419.62,181.121 412.287,174.288 403.5,169C 404.833,168.333 404.833,167.667 403.5,167C 400.203,167.175 397.369,167.009 395,166.5C 391.925,167.249 388.925,168.249 386,169.5C 383.395,167.68 380.728,167.014 378,167.5C 376.75,165.807 375.25,164.473 373.5,163.5C 372.972,162.153 372.805,160.819 373,159.5C 375.037,157.294 377.203,155.294 379.5,153.5C 381.449,155.305 383.782,156.305 386.5,156.5C 391.022,156.143 395.355,155.143 399.5,153.5C 400.747,151.958 400.747,150.458 399.5,149C 400.167,148 400.833,147 401.5,146C 401.282,140.76 401.282,134.927 401.5,128.5C 402.117,128.611 402.617,128.944 403,129.5C 406.038,126.797 408.705,123.797 411,120.5C 411.383,121.056 411.883,121.389 412.5,121.5 Z"/></g>
<g><path style="opacity:0.991" fill="#5897f7" d="M 323.5,145.5 C 332.002,146.833 339.835,149.833 347,154.5C 354.624,169.107 350.458,178.774 334.5,183.5C 326.692,180.731 318.859,178.064 311,175.5C 308.903,175.306 306.737,175.306 304.5,175.5C 301.917,174.191 299.25,173.191 296.5,172.5C 300.206,170.309 303.539,167.476 306.5,164C 305.584,163.722 304.918,163.222 304.5,162.5C 314.65,164.538 324.65,167.204 334.5,170.5C 340.826,168.211 341.159,165.044 335.5,161C 333,160.625 330.667,159.792 328.5,158.5C 327.914,158.709 327.414,159.043 327,159.5C 324.085,157.737 320.918,156.404 317.5,155.5C 317.389,154.883 317.056,154.383 316.5,154C 318.871,151.294 321.537,148.961 324.5,147C 323.944,146.617 323.611,146.117 323.5,145.5 Z"/></g>
<g><path style="opacity:0.968" fill="#53a4f8" d="M 304.5,162.5 C 304.918,163.222 305.584,163.722 306.5,164C 303.539,167.476 300.206,170.309 296.5,172.5C 293.227,171.886 289.393,171.886 285,172.5C 283.806,171.57 282.473,170.903 281,170.5C 271.051,170.754 261.217,170.754 251.5,170.5C 248.611,170.931 245.778,171.597 243,172.5C 242.235,172.43 241.735,172.097 241.5,171.5C 241.389,170.883 241.056,170.383 240.5,170C 244.085,166.922 247.085,163.422 249.5,159.5C 267.988,157.811 286.321,158.811 304.5,162.5 Z"/></g>
<g><path style="opacity:0.964" fill="#4fb0f8" d="M 249.5,159.5 C 247.085,163.422 244.085,166.922 240.5,170C 241.056,170.383 241.389,170.883 241.5,171.5C 216.539,175.098 193.206,182.931 171.5,195C 168.167,195.667 164.833,195.667 161.5,195C 158.714,194.425 156.714,192.925 155.5,190.5C 157.833,187.5 160.5,184.833 163.5,182.5C 164.531,183.249 165.698,183.915 167,184.5C 192.565,169.812 220.065,161.478 249.5,159.5 Z"/></g>
<g><path style="opacity:0.971" fill="#6571f6" d="M 431.5,178.5 C 443.204,190.876 452.704,204.876 460,220.5C 461.302,221.085 462.469,221.751 463.5,222.5C 460.101,224.388 457.101,226.888 454.5,230C 455.416,230.278 456.082,230.778 456.5,231.5C 453.984,231.245 451.65,230.411 449.5,229C 450.299,227.251 449.632,225.918 447.5,225C 447.833,224.667 448.167,224.333 448.5,224C 442.147,210.963 434.48,199.463 425.5,189.5C 425.185,187.774 425.019,186.107 425,184.5C 427.037,182.294 429.203,180.294 431.5,178.5 Z"/></g>
<g><path style="opacity:0.987" fill="#607ff7" d="M 371.5,208.5 C 390.311,208.137 397.811,217.137 394,235.5C 390.038,242.542 384.372,246.542 377,247.5C 373.319,246.29 369.819,245.457 366.5,245C 363.077,242.028 360.077,238.695 357.5,235C 357.957,234.586 358.291,234.086 358.5,233.5C 357.878,230.63 357.211,227.796 356.5,225C 359.112,217.24 364.112,211.74 371.5,208.5 Z M 381.5,222.5 C 383.755,225.502 384.089,228.502 382.5,231.5C 379.26,234.817 375.593,235.317 371.5,233C 369.077,229.621 368.91,226.121 371,222.5C 374.611,219.856 378.111,219.856 381.5,222.5 Z"/></g>
<g><path style="opacity:1" fill="#6a61f5" d="M 463.5,222.5 C 474.803,225.434 485.803,229.268 496.5,234C 501.434,237.098 505.101,241.265 507.5,246.5C 506.448,246.351 505.448,246.517 504.5,247C 502.271,249.4 499.937,251.567 497.5,253.5C 496.781,250.28 494.781,248.113 491.5,247C 492.833,246.333 492.833,245.667 491.5,245C 488.929,243.546 486.262,242.38 483.5,241.5C 480.627,244.895 477.127,248.562 473,252.5C 472.826,247.649 472.326,242.982 471.5,238.5C 471.294,236.451 470.461,236.117 469,237.5C 464.986,235.005 460.819,233.005 456.5,231.5C 456.082,230.778 455.416,230.278 454.5,230C 457.101,226.888 460.101,224.388 463.5,222.5 Z"/></g>
<g><path style="opacity:0.989" fill="#4cb6f9" d="M 78.5,237.5 C 69.2319,262.444 66.5653,288.11 70.5,314.5C 67.1667,316.833 63.8333,319.167 60.5,321.5C 60.2488,319.83 59.5822,318.33 58.5,317C 59.0219,316.439 59.3552,315.772 59.5,315C 58.9046,310.215 57.9046,305.548 56.5,301C 56.8333,298.667 57.1667,296.333 57.5,294C 49.1158,293.831 40.7825,293.164 32.5,292C 30.1344,289.826 27.8011,287.66 25.5,285.5C 27.1593,282.037 29.1593,278.371 31.5,274.5C 33.7972,278.287 37.1305,280.787 41.5,282C 46.8229,282.499 52.1563,282.666 57.5,282.5C 57.7191,271.476 59.3858,260.809 62.5,250.5C 67.1106,246.404 71.9439,241.737 77,236.5C 77.3826,237.056 77.8826,237.389 78.5,237.5 Z"/></g>
<g><path style="opacity:0.72" fill="#7055f5" d="M 471.5,238.5 C 472.326,242.982 472.826,247.649 473,252.5C 477.127,248.562 480.627,244.895 483.5,241.5C 483.5,260.5 483.5,279.5 483.5,298.5C 482.671,305.989 482.171,313.656 482,321.5C 479,324.5 476,327.5 473,330.5C 472.824,334.688 472.324,338.688 471.5,342.5C 471.207,304.618 471.207,269.951 471.5,238.5 Z"/></g>
<g><path style="opacity:0.972" fill="#49bff9" d="M 31.5,274.5 C 29.1593,278.371 27.1593,282.037 25.5,285.5C 20.1921,279.261 18.0255,271.594 19,262.5C 16.0707,255.084 10.5707,251.417 2.5,251.5C -1.19751,245.648 0.30249,241.982 7,240.5C 25.6334,244.051 33.8,255.384 31.5,274.5 Z"/></g>
<g><path style="opacity:0.916" fill="#704ff5" d="M 507.5,246.5 C 508.624,249.042 509.458,251.708 510,254.5C 510.5,272.497 510.667,290.497 510.5,308.5C 509.674,304.018 509.174,299.351 509,294.5C 506,297.5 503,300.5 500,303.5C 499.827,309.016 499.327,314.349 498.5,319.5C 498.785,297.208 498.452,275.208 497.5,253.5C 499.937,251.567 502.271,249.4 504.5,247C 505.448,246.517 506.448,246.351 507.5,246.5 Z"/></g>
<g><path style="opacity:0.961" fill="#7346f4" d="M 510.5,308.5 C 513.348,329.565 505.181,343.232 486,349.5C 476.891,352.802 468.391,355.802 460.5,358.5C 441.649,395.843 414.149,424.176 378,443.5C 378.962,450.819 380.128,458.152 381.5,465.5C 379.493,464.321 379.16,464.821 380.5,467C 375.963,471.369 371.63,475.869 367.5,480.5C 352.83,480.667 338.163,480.5 323.5,480C 326.5,477 329.5,474 332.5,471C 326.652,470.827 320.985,470.327 315.5,469.5C 333.833,469.5 352.167,469.5 370.5,469.5C 368.307,462.608 366.641,455.774 365.5,449C 366.214,447.657 365.88,446.324 364.5,445C 364.626,443.026 364.792,440.859 365,438.5C 386.166,426.738 405.166,412.071 422,394.5C 433.276,380.938 442.776,366.272 450.5,350.5C 457.178,347.051 464.178,344.384 471.5,342.5C 472.324,338.688 472.824,334.688 473,330.5C 476,327.5 479,324.5 482,321.5C 482.171,313.656 482.671,305.989 483.5,298.5C 483.5,311.5 483.5,324.5 483.5,337.5C 490.817,335.688 495.817,331.188 498.5,324C 498.034,322.701 498.034,321.201 498.5,319.5C 499.327,314.349 499.827,309.016 500,303.5C 503,300.5 506,297.5 509,294.5C 509.174,299.351 509.674,304.018 510.5,308.5 Z"/></g>
<g><path style="opacity:0.983" fill="#53a6f8" d="M 70.5,314.5 C 75.1022,336.293 83.4355,356.627 95.5,375.5C 92.5256,378.138 89.5256,380.805 86.5,383.5C 82.4464,376.536 78.1131,369.702 73.5,363C 73.8333,362.667 74.1667,362.333 74.5,362C 67.589,348.752 62.9224,335.252 60.5,321.5C 63.8333,319.167 67.1667,316.833 70.5,314.5 Z"/></g>
<g><path style="opacity:0.997" fill="#5994f7" d="M 95.5,375.5 C 106.417,391.751 119.75,405.751 135.5,417.5C 133.646,420.871 131.146,423.871 128,426.5C 127.667,425.833 127.333,425.167 127,424.5C 126.722,425.416 126.222,426.082 125.5,426.5C 121.433,421.613 116.433,416.78 110.5,412C 101.437,402.252 93.437,392.752 86.5,383.5C 89.5256,380.805 92.5256,378.138 95.5,375.5 Z"/></g>
<g><path style="opacity:0.991" fill="#5e82f7" d="M 135.5,417.5 C 137.387,418.768 138.387,420.601 138.5,423C 134.925,438.463 131.592,453.963 128.5,469.5C 131.06,470.37 134.393,470.87 138.5,471C 134.793,475.567 130.46,479.067 125.5,481.5C 124.962,483.117 124.629,484.784 124.5,486.5C 120.564,488.766 117.231,491.766 114.5,495.5C 113.028,492.923 112.028,490.089 111.5,487C 116.684,467.296 121.351,447.129 125.5,426.5C 126.222,426.082 126.722,425.416 127,424.5C 127.333,425.167 127.667,425.833 128,426.5C 131.146,423.871 133.646,420.871 135.5,417.5 Z"/></g>
<g><path style="opacity:0.964" fill="#6570f6" d="M 225.5,456.5 C 225.804,457.15 226.137,457.817 226.5,458.5C 223.455,461.218 220.455,463.884 217.5,466.5C 215.584,468.116 214.084,467.782 213,465.5C 212.439,466.022 211.772,466.355 211,466.5C 208.117,465.423 205.283,464.59 202.5,464C 195.207,476.084 188.041,488.251 181,500.5C 177.555,504.783 173.388,508.117 168.5,510.5C 155.342,510.62 142.009,510.453 128.5,510C 121.949,506.739 116.949,502.406 113.5,497C 114.056,496.617 114.389,496.117 114.5,495.5C 117.231,491.766 120.564,488.766 124.5,486.5C 124.144,491.952 126.477,495.785 131.5,498C 142.833,498.667 154.167,498.667 165.5,498C 168.171,496.75 170.337,494.917 172,492.5C 173.847,488.807 175.68,485.14 177.5,481.5C 173.593,480.642 168.926,480.142 163.5,480C 166.5,477 169.5,474 172.5,471C 177.019,470.825 181.353,470.325 185.5,469.5C 188.408,464.074 191.575,458.74 195,453.5C 195.903,452.299 197.069,451.465 198.5,451C 207.473,452.657 216.473,454.49 225.5,456.5 Z"/></g>
<g><path style="opacity:0.997" fill="#6963f5" d="M 225.5,456.5 C 247.433,460.72 269.433,461.387 291.5,458.5C 288.167,462.833 284.833,467.167 281.5,471.5C 266.681,471.824 252.014,471.824 237.5,471.5C 236.522,471.023 235.689,470.357 235,469.5C 231.32,470.138 227.486,470.138 223.5,469.5C 221.573,468.138 219.573,467.138 217.5,466.5C 220.455,463.884 223.455,461.218 226.5,458.5C 226.137,457.817 225.804,457.15 225.5,456.5 Z"/></g>
<g><path style="opacity:0.761" fill="#6179f6" d="M 128.5,469.5 C 147.5,469.5 166.5,469.5 185.5,469.5C 181.353,470.325 177.019,470.825 172.5,471C 169.5,474 166.5,477 163.5,480C 168.926,480.142 173.593,480.642 177.5,481.5C 160.167,481.5 142.833,481.5 125.5,481.5C 130.46,479.067 134.793,475.567 138.5,471C 134.393,470.87 131.06,470.37 128.5,469.5 Z"/></g>
<g><path style="opacity:0.851" fill="#7152f5" d="M 315.5,469.5 C 320.985,470.327 326.652,470.827 332.5,471C 329.5,474 326.5,477 323.5,480C 338.163,480.5 352.83,480.667 367.5,480.5C 369.833,480.5 372.167,480.5 374.5,480.5C 374.5,481.5 374.5,482.5 374.5,483.5C 365.897,482.195 357.064,481.529 348,481.5C 339.327,481.5 330.827,481.834 322.5,482.5C 321.883,482.389 321.383,482.056 321,481.5C 318.259,484.729 315.759,488.062 313.5,491.5C 310.178,485.236 306.845,478.903 303.5,472.5C 300.376,468.85 296.876,468.517 293,471.5C 289.573,470.349 286.239,470.683 283,472.5C 282.235,472.43 281.735,472.097 281.5,471.5C 284.833,467.167 288.167,462.833 291.5,458.5C 297.159,457.8 302.825,457.634 308.5,458C 310.97,461.778 313.303,465.611 315.5,469.5 Z"/></g>
<g><path style="opacity:0.998" fill="#773bf4" d="M 381.5,465.5 C 385.585,475.449 386.752,485.783 385,496.5C 381.466,503.924 375.966,508.257 368.5,509.5C 358.494,509.666 348.494,509.5 338.5,509C 341.5,506 344.5,503 347.5,500C 353.348,499.827 359.015,499.327 364.5,498.5C 372.641,496.522 375.975,491.522 374.5,483.5C 374.5,482.5 374.5,481.5 374.5,480.5C 372.167,480.5 369.833,480.5 367.5,480.5C 371.63,475.869 375.963,471.369 380.5,467C 379.16,464.821 379.493,464.321 381.5,465.5 Z"/></g>
<g><path style="opacity:0.926" fill="#7445f4" d="M 322.5,482.5 C 324.4,486.633 326.567,490.633 329,494.5C 330.214,496.049 331.714,497.215 333.5,498C 343.828,498.5 354.161,498.666 364.5,498.5C 359.015,499.327 353.348,499.827 347.5,500C 344.5,503 341.5,506 338.5,509C 348.494,509.5 358.494,509.666 368.5,509.5C 357.833,510.167 347.167,510.833 336.5,511.5C 336.167,511.5 335.833,511.5 335.5,511.5C 333.461,510.422 331.294,509.422 329,508.5C 328.667,508.833 328.333,509.167 328,509.5C 326.482,507.652 324.649,506.152 322.5,505C 318.705,500.447 315.705,495.947 313.5,491.5C 315.759,488.062 318.259,484.729 321,481.5C 321.383,482.056 321.883,482.389 322.5,482.5 Z"/></g>
</svg>
