<?xml version="1.0" encoding="UTF-8"?>
<!DOCTYPE svg PUBLIC "-//W3C//DTD SVG 1.1//EN" "http://www.w3.org/Graphics/SVG/1.1/DTD/svg11.dtd">
<svg xmlns="http://www.w3.org/2000/svg" version="1.1" width="512px" height="512px" style="shape-rendering:geometricPrecision; text-rendering:geometricPrecision; image-rendering:optimizeQuality; fill-rule:evenodd; clip-rule:evenodd" xmlns:xlink="http://www.w3.org/1999/xlink">
<g><path style="opacity:0.95" fill="#8067f3" d="M 253.5,102.5 C 253.5,107.833 253.5,113.167 253.5,118.5C 255.415,118.216 257.081,118.549 258.5,119.5C 245.767,119.225 233.1,119.891 220.5,121.5C 220.5,115.833 220.5,110.167 220.5,104.5C 231.42,102.937 242.42,102.27 253.5,102.5 Z"/></g>
<g><path style="opacity:0.965" fill="#796df1" d="M 253.5,102.5 C 262.221,102.225 270.887,102.558 279.5,103.5C 280.045,109.463 279.379,115.13 277.5,120.5C 271.256,119.542 264.923,119.209 258.5,119.5C 257.081,118.549 255.415,118.216 253.5,118.5C 253.5,113.167 253.5,107.833 253.5,102.5 Z"/></g>
<g><path style="opacity:0.953" fill="#7372ef" d="M 279.5,103.5 C 286.544,103.756 293.544,104.422 300.5,105.5C 300.5,111.167 300.5,116.833 300.5,122.5C 292.872,121.422 285.206,120.755 277.5,120.5C 279.379,115.13 280.045,109.463 279.5,103.5 Z"/></g>
<g><path style="opacity:0.962" fill="#8761f5" d="M 220.5,104.5 C 220.5,110.167 220.5,115.833 220.5,121.5C 214.105,122.177 207.772,123.177 201.5,124.5C 201.5,118.833 201.5,113.167 201.5,107.5C 207.603,105.864 213.936,104.864 220.5,104.5 Z"/></g>
<g><path style="opacity:0.968" fill="#6b79ed" d="M 300.5,105.5 C 310.085,106.882 319.418,108.882 328.5,111.5C 328.5,117.167 328.5,122.833 328.5,128.5C 319.167,126.367 309.833,124.367 300.5,122.5C 300.5,116.833 300.5,111.167 300.5,105.5 Z"/></g>
<g><path style="opacity:0.967" fill="#905af7" d="M 201.5,107.5 C 201.5,113.167 201.5,118.833 201.5,124.5C 186.278,127.685 171.278,131.685 156.5,136.5C 156.5,130.5 156.5,124.5 156.5,118.5C 171.149,113.421 186.149,109.754 201.5,107.5 Z"/></g>
<g><path style="opacity:0.962" fill="#6381ea" d="M 328.5,111.5 C 337.826,113.39 346.826,116.056 355.5,119.5C 354.511,124.975 354.178,130.642 354.5,136.5C 345.758,134.03 337.091,131.363 328.5,128.5C 328.5,122.833 328.5,117.167 328.5,111.5 Z"/></g>
<g><path style="opacity:0.969" fill="#5c86e8" d="M 355.5,119.5 C 363.231,121.738 370.565,124.738 377.5,128.5C 376.51,134.31 376.177,140.31 376.5,146.5C 369.102,143.132 361.769,139.798 354.5,136.5C 354.178,130.642 354.511,124.975 355.5,119.5 Z"/></g>
<g><path style="opacity:0.972" fill="#9754f9" d="M 156.5,118.5 C 156.5,124.5 156.5,130.5 156.5,136.5C 142.296,142.601 128.296,149.268 114.5,156.5C 114.5,150.167 114.5,143.833 114.5,137.5C 127.961,130.105 141.961,123.772 156.5,118.5 Z"/></g>
<g><path style="opacity:0.959" fill="#796df1" d="M 252.5,129.5 C 261.578,129.296 270.578,129.963 279.5,131.5C 279.5,137.167 279.5,142.833 279.5,148.5C 270.898,147.076 262.232,146.409 253.5,146.5C 253.786,140.741 253.452,135.075 252.5,129.5 Z"/></g>
<g><path style="opacity:0.965" fill="#558de6" d="M 377.5,128.5 C 386.223,131.695 394.556,135.695 402.5,140.5C 402.5,147.167 402.5,153.833 402.5,160.5C 394.152,155.325 385.485,150.658 376.5,146.5C 376.177,140.31 376.51,134.31 377.5,128.5 Z"/></g>
<g><path style="opacity:0.974" fill="#8166f3" d="M 252.5,129.5 C 253.452,135.075 253.786,140.741 253.5,146.5C 242.588,146.678 231.921,148.344 221.5,151.5C 220.511,146.025 220.178,140.358 220.5,134.5C 230.874,131.202 241.541,129.535 252.5,129.5 Z"/></g>
<g><path style="opacity:0.957" fill="#7372ef" d="M 279.5,131.5 C 286.646,133.036 293.646,135.036 300.5,137.5C 300.5,143.5 300.5,149.5 300.5,155.5C 293.353,153.34 286.353,151.006 279.5,148.5C 279.5,142.833 279.5,137.167 279.5,131.5 Z"/></g>
<g><path style="opacity:0.956" fill="#8761f5" d="M 220.5,134.5 C 220.178,140.358 220.511,146.025 221.5,151.5C 215.564,154.131 209.564,156.798 203.5,159.5C 201.854,154.073 200.854,148.406 200.5,142.5C 206.659,138.761 213.325,136.094 220.5,134.5 Z"/></g>
<g><path style="opacity:0.967" fill="#6d77ed" d="M 300.5,137.5 C 307.976,140.403 314.976,144.07 321.5,148.5C 320.51,154.645 320.177,160.978 320.5,167.5C 313.825,163.497 307.159,159.497 300.5,155.5C 300.5,149.5 300.5,143.5 300.5,137.5 Z"/></g>
<g><path style="opacity:0.955" fill="#4e92e4" d="M 402.5,140.5 C 408.206,143.347 413.539,146.68 418.5,150.5C 418.823,157.022 418.49,163.355 417.5,169.5C 412.362,166.763 407.362,163.763 402.5,160.5C 402.5,153.833 402.5,147.167 402.5,140.5 Z"/></g>
<g><path style="opacity:0.964" fill="#9f4dfb" d="M 114.5,137.5 C 114.5,143.833 114.5,150.167 114.5,156.5C 92.2209,169.492 71.8876,185.159 53.5,203.5C 52.5084,196.352 52.175,189.019 52.5,181.5C 71.0497,163.888 91.7164,149.221 114.5,137.5 Z"/></g>
<g><path style="opacity:0.969" fill="#4899e2" d="M 418.5,150.5 C 425.525,154.677 432.192,159.344 438.5,164.5C 437.538,171.412 437.205,178.412 437.5,185.5C 430.794,180.156 424.127,174.822 417.5,169.5C 418.49,163.355 418.823,157.022 418.5,150.5 Z"/></g>
<g><path style="opacity:0.964" fill="#667deb" d="M 321.5,148.5 C 330.319,152.98 337.985,158.98 344.5,166.5C 343.568,174.9 343.235,183.233 343.5,191.5C 340.213,187.041 336.713,182.708 333,178.5C 328.64,174.968 324.473,171.301 320.5,167.5C 320.177,160.978 320.51,154.645 321.5,148.5 Z"/></g>
<g><path style="opacity:0.97" fill="#905af8" d="M 200.5,142.5 C 200.854,148.406 201.854,154.073 203.5,159.5C 183.457,171.545 167.79,187.879 156.5,208.5C 156.5,198.167 156.5,187.833 156.5,177.5C 168.232,162.097 182.899,150.43 200.5,142.5 Z"/></g>
<g><path style="opacity:0.96" fill="#786cf1" d="M 254.5,161.5 C 263.506,160.835 271.839,162.835 279.5,167.5C 279.5,174.833 279.5,182.167 279.5,189.5C 273.8,182.65 266.467,178.983 257.5,178.5C 256.791,177.596 255.791,177.263 254.5,177.5C 254.5,172.167 254.5,166.833 254.5,161.5 Z"/></g>
<g><path style="opacity:0.971" fill="#409fe0" d="M 438.5,164.5 C 445.779,169.446 452.446,175.113 458.5,181.5C 457.508,188.648 457.175,195.981 457.5,203.5C 451.132,197.13 444.465,191.13 437.5,185.5C 437.205,178.412 437.538,171.412 438.5,164.5 Z"/></g>
<g><path style="opacity:0.966" fill="#7372ef" d="M 279.5,167.5 C 290.202,173.2 297.202,181.866 300.5,193.5C 300.5,212.167 300.5,230.833 300.5,249.5C 294.5,249.5 288.5,249.5 282.5,249.5C 281.791,248.596 280.791,248.263 279.5,248.5C 279.5,243.5 279.5,238.5 279.5,233.5C 277.265,233.795 275.265,233.461 273.5,232.5C 277.833,232.5 282.167,232.5 286.5,232.5C 286.666,222.828 286.5,213.161 286,203.5C 285.159,198.155 282.992,193.488 279.5,189.5C 279.5,182.167 279.5,174.833 279.5,167.5 Z"/></g>
<g><path style="opacity:0.978" fill="#8266f3" d="M 254.5,161.5 C 254.5,166.833 254.5,172.167 254.5,177.5C 255.791,177.263 256.791,177.596 257.5,178.5C 240.453,178.71 229.619,187.044 225,203.5C 224.5,213.161 224.334,222.828 224.5,232.5C 234.167,232.5 243.833,232.5 253.5,232.5C 253.5,237.833 253.5,243.167 253.5,248.5C 255.415,248.216 257.081,248.549 258.5,249.5C 244.167,249.5 229.833,249.5 215.5,249.5C 216.919,248.549 218.585,248.216 220.5,248.5C 220.5,224.5 220.5,200.5 220.5,176.5C 229.599,166.621 240.932,161.621 254.5,161.5 Z"/></g>
<g><path style="opacity:0.964" fill="#8661f5" d="M 220.5,176.5 C 220.5,200.5 220.5,224.5 220.5,248.5C 218.585,248.216 216.919,248.549 215.5,249.5C 211.818,249.335 208.152,249.501 204.5,250C 204,250.5 203.5,251 203,251.5C 202.333,271.833 202.333,292.167 203,312.5C 203.5,313.667 204.333,314.5 205.5,315C 210.489,315.499 215.489,315.666 220.5,315.5C 220.5,320.833 220.5,326.167 220.5,331.5C 216.958,331.187 213.625,331.521 210.5,332.5C 207.391,332.736 204.391,332.403 201.5,331.5C 201.5,298.833 201.5,266.167 201.5,233.5C 203.379,232.659 205.379,232.325 207.5,232.5C 207.333,221.828 207.5,211.161 208,200.5C 209.836,191.156 214.003,183.156 220.5,176.5 Z"/></g>
<g><path style="opacity:0.974" fill="#9456f9" d="M 156.5,177.5 C 156.5,187.833 156.5,198.167 156.5,208.5C 138.14,254.009 145.14,295.009 177.5,331.5C 176.552,338.957 176.218,346.291 176.5,353.5C 141.85,324.762 126.35,287.762 130,242.5C 132.513,218.099 141.346,196.432 156.5,177.5 Z"/></g>
<g><path style="opacity:0.963" fill="#5f84e9" d="M 344.5,166.5 C 352.267,173.369 358.601,181.369 363.5,190.5C 363.829,205.343 363.496,220.01 362.5,234.5C 359.131,218.771 352.798,204.438 343.5,191.5C 343.235,183.233 343.568,174.9 344.5,166.5 Z"/></g>
<g><path style="opacity:0.96" fill="#39a6de" d="M 458.5,181.5 C 465.5,186.5 471.5,192.5 476.5,199.5C 476.826,207.684 476.492,215.684 475.5,223.5C 469.158,217.157 463.158,210.491 457.5,203.5C 457.175,195.981 457.508,188.648 458.5,181.5 Z"/></g>
<g><path style="opacity:0.961" fill="#a448fd" d="M 52.5,181.5 C 52.175,189.019 52.5084,196.352 53.5,203.5C 39.8917,218.051 27.7251,233.718 17,250.5C 16.3333,253.833 16.3333,257.167 17,260.5C 27.5181,276.851 39.3514,292.184 52.5,306.5C 52.5,314.167 52.5,321.833 52.5,329.5C 34.0156,312.848 17.8489,294.182 4,273.5C 2.37997,270.107 0.879972,266.774 -0.5,263.5C -0.5,258.167 -0.5,252.833 -0.5,247.5C 6.12881,234.269 14.2955,221.936 24,210.5C 33.06,200.274 42.56,190.608 52.5,181.5 Z"/></g>
<g><path style="opacity:0.98" fill="#5b88e8" d="M 363.5,190.5 C 382.343,222.916 386.51,257.249 376,293.5C 373.213,302.403 369.379,310.736 364.5,318.5C 363.833,304.5 363.167,290.5 362.5,276.5C 365.167,262.5 365.167,248.5 362.5,234.5C 363.496,220.01 363.829,205.343 363.5,190.5 Z"/></g>
<g><path style="opacity:0.961" fill="#33aadc" d="M 476.5,199.5 C 480.963,203.754 484.963,208.421 488.5,213.5C 488.826,222.349 488.493,231.016 487.5,239.5C 483.147,234.473 479.147,229.14 475.5,223.5C 476.492,215.684 476.826,207.684 476.5,199.5 Z"/></g>
<g><path style="opacity:0.985" fill="#2eafda" d="M 488.5,213.5 C 497.793,223.782 505.459,235.115 511.5,247.5C 511.5,252.833 511.5,258.167 511.5,263.5C 505.459,275.885 497.793,287.218 488.5,297.5C 488.5,288.5 488.5,279.5 488.5,270.5C 490.076,267.074 491.909,263.74 494,260.5C 494.667,257.167 494.667,253.833 494,250.5C 491.822,246.806 489.655,243.139 487.5,239.5C 488.493,231.016 488.826,222.349 488.5,213.5 Z"/></g>
<g><path style="opacity:0.968" fill="#796df1" d="M 253.5,232.5 C 260.167,232.5 266.833,232.5 273.5,232.5C 275.265,233.461 277.265,233.795 279.5,233.5C 279.5,238.5 279.5,243.5 279.5,248.5C 280.791,248.263 281.791,248.596 282.5,249.5C 274.5,249.5 266.5,249.5 258.5,249.5C 257.081,248.549 255.415,248.216 253.5,248.5C 253.5,243.167 253.5,237.833 253.5,232.5 Z"/></g>
<g><path style="opacity:0.957" fill="#6e76ee" d="M 300.5,193.5 C 301.776,195.562 302.61,197.896 303,200.5C 303.5,211.161 303.667,221.828 303.5,232.5C 306.781,232.42 309.781,233.087 312.5,234.5C 311.841,266.518 312.507,298.184 314.5,329.5C 310.274,331.956 305.607,332.956 300.5,332.5C 300.5,327.167 300.5,321.833 300.5,316.5C 301.791,316.737 302.791,316.404 303.5,315.5C 305.17,315.249 306.67,314.582 308,313.5C 308.667,292.833 308.667,272.167 308,251.5C 305.865,249.722 303.365,249.055 300.5,249.5C 300.5,230.833 300.5,212.167 300.5,193.5 Z"/></g>
<g><path style="opacity:0.993" fill="#8b5ef6" d="M 201.5,233.5 C 201.5,266.167 201.5,298.833 201.5,331.5C 194.744,329.918 189.911,325.918 187,319.5C 185.874,307.22 185.374,294.887 185.5,282.5C 185.374,270.113 185.874,257.78 187,245.5C 189.585,238.79 194.418,234.79 201.5,233.5 Z"/></g>
<g><path style="opacity:0.993" fill="#6b79ec" d="M 312.5,234.5 C 319.454,237.02 323.62,242.02 325,249.5C 325.667,271.5 325.667,293.5 325,315.5C 323.922,322.066 320.422,326.733 314.5,329.5C 312.507,298.184 311.841,266.518 312.5,234.5 Z"/></g>
<g><path style="opacity:0.975" fill="#7969f3" d="M 252.5,266.5 C 258.914,265.613 262.747,268.28 264,274.5C 264.87,280.917 264.536,287.251 263,293.5C 258.48,299.704 253.48,300.037 248,294.5C 246,286.5 246,278.5 248,270.5C 249.397,268.93 250.897,267.596 252.5,266.5 Z"/></g>
<g><path style="opacity:0.956" fill="#34abdc" d="M 488.5,270.5 C 488.5,279.5 488.5,288.5 488.5,297.5C 484.963,302.579 480.963,307.246 476.5,311.5C 476.826,303.316 476.492,295.316 475.5,287.5C 479.481,281.525 483.814,275.858 488.5,270.5 Z"/></g>
<g><path style="opacity:0.953" fill="#39a6de" d="M 475.5,287.5 C 476.492,295.316 476.826,303.316 476.5,311.5C 471.167,318.833 464.833,325.167 457.5,330.5C 457.825,322.981 457.492,315.648 456.5,308.5C 462.609,301.27 468.942,294.27 475.5,287.5 Z"/></g>
<g><path style="opacity:0.963" fill="#6083e9" d="M 362.5,276.5 C 363.167,290.5 363.833,304.5 364.5,318.5C 359.284,328.257 352.617,336.924 344.5,344.5C 343.833,336.833 343.167,329.167 342.5,321.5C 352.247,307.949 358.913,292.949 362.5,276.5 Z"/></g>
<g><path style="opacity:0.956" fill="#9f4cfc" d="M 52.5,306.5 C 66.984,320.329 82.3174,332.995 98.5,344.5C 97.5098,350.645 97.1765,356.978 97.5,363.5C 80.8776,354.351 65.8776,343.018 52.5,329.5C 52.5,321.833 52.5,314.167 52.5,306.5 Z"/></g>
<g><path style="opacity:0.958" fill="#409fe0" d="M 456.5,308.5 C 457.492,315.648 457.825,322.981 457.5,330.5C 451.446,336.887 444.779,342.554 437.5,347.5C 438.126,340.416 437.459,333.75 435.5,327.5C 442.648,321.41 449.648,315.077 456.5,308.5 Z"/></g>
<g><path style="opacity:0.965" fill="#8067f3" d="M 220.5,315.5 C 231.833,315.5 243.167,315.5 254.5,315.5C 254.5,320.833 254.5,326.167 254.5,331.5C 256.099,331.232 257.432,331.566 258.5,332.5C 242.5,332.5 226.5,332.5 210.5,332.5C 213.625,331.521 216.958,331.187 220.5,331.5C 220.5,326.167 220.5,320.833 220.5,315.5 Z"/></g>
<g><path style="opacity:0.95" fill="#796df1" d="M 254.5,315.5 C 262.5,315.5 270.5,315.5 278.5,315.5C 279.449,320.74 279.782,326.073 279.5,331.5C 280.791,331.263 281.791,331.596 282.5,332.5C 274.5,332.5 266.5,332.5 258.5,332.5C 257.432,331.566 256.099,331.232 254.5,331.5C 254.5,326.167 254.5,320.833 254.5,315.5 Z"/></g>
<g><path style="opacity:0.941" fill="#7372ef" d="M 278.5,315.5 C 286.833,315.5 295.167,315.5 303.5,315.5C 302.791,316.404 301.791,316.737 300.5,316.5C 300.5,321.833 300.5,327.167 300.5,332.5C 294.5,332.5 288.5,332.5 282.5,332.5C 281.791,331.596 280.791,331.263 279.5,331.5C 279.782,326.073 279.449,320.74 278.5,315.5 Z"/></g>
<g><path style="opacity:0.969" fill="#667dec" d="M 342.5,321.5 C 343.167,329.167 343.833,336.833 344.5,344.5C 337.985,352.02 330.319,358.02 321.5,362.5C 320.51,356.355 320.177,350.022 320.5,343.5C 324.307,339.865 328.307,336.365 332.5,333C 335.698,328.974 339.032,325.141 342.5,321.5 Z"/></g>
<g><path style="opacity:0.961" fill="#4899e2" d="M 435.5,327.5 C 437.459,333.75 438.126,340.416 437.5,347.5C 431.538,351.821 425.538,356.155 419.5,360.5C 418.54,353.922 418.207,347.255 418.5,340.5C 423.948,335.936 429.615,331.602 435.5,327.5 Z"/></g>
<g><path style="opacity:0.971" fill="#8d5cf7" d="M 177.5,331.5 C 184.957,338.953 193.29,345.287 202.5,350.5C 201.872,356.601 201.205,362.601 200.5,368.5C 191.482,364.998 183.482,359.998 176.5,353.5C 176.218,346.291 176.552,338.957 177.5,331.5 Z"/></g>
<g><path style="opacity:0.96" fill="#4e93e4" d="M 418.5,340.5 C 418.207,347.255 418.54,353.922 419.5,360.5C 414.463,364.019 409.13,367.019 403.5,369.5C 402.833,363.5 402.167,357.5 401.5,351.5C 406.96,347.598 412.627,343.931 418.5,340.5 Z"/></g>
<g><path style="opacity:0.955" fill="#6d77ed" d="M 320.5,343.5 C 320.177,350.022 320.51,356.355 321.5,362.5C 314.976,366.93 307.976,370.597 300.5,373.5C 300.5,367.167 300.5,360.833 300.5,354.5C 307.488,351.341 314.154,347.674 320.5,343.5 Z"/></g>
<g><path style="opacity:0.952" fill="#8662f5" d="M 202.5,350.5 C 213.563,356.63 225.229,360.963 237.5,363.5C 236.196,369.067 236.196,374.734 237.5,380.5C 224.312,378.794 211.979,374.794 200.5,368.5C 201.205,362.601 201.872,356.601 202.5,350.5 Z"/></g>
<g><path style="opacity:0.973" fill="#558de6" d="M 401.5,351.5 C 402.167,357.5 402.833,363.5 403.5,369.5C 394.763,375.202 385.43,379.868 375.5,383.5C 376.458,377.256 376.791,370.923 376.5,364.5C 384.991,360.422 393.324,356.088 401.5,351.5 Z"/></g>
<g><path style="opacity:0.972" fill="#9852fa" d="M 98.5,344.5 C 111.049,352.608 124.049,359.942 137.5,366.5C 137.5,372.5 137.5,378.5 137.5,384.5C 123.243,379.041 109.91,372.041 97.5,363.5C 97.1765,356.978 97.5098,350.645 98.5,344.5 Z"/></g>
<g><path style="opacity:0.961" fill="#7372ef" d="M 300.5,354.5 C 300.5,360.833 300.5,367.167 300.5,373.5C 293.358,376.119 286.024,378.119 278.5,379.5C 279.455,373.591 279.789,367.591 279.5,361.5C 286.845,360.163 293.845,357.829 300.5,354.5 Z"/></g>
<g><path style="opacity:0.959" fill="#7a6bf1" d="M 279.5,361.5 C 279.789,367.591 279.455,373.591 278.5,379.5C 264.899,381.702 251.232,382.036 237.5,380.5C 236.196,374.734 236.196,369.067 237.5,363.5C 251.674,365.326 265.674,364.66 279.5,361.5 Z"/></g>
<g><path style="opacity:0.972" fill="#9258f8" d="M 137.5,366.5 C 150.469,372.156 163.802,376.823 177.5,380.5C 176.167,386.5 176.167,392.5 177.5,398.5C 163.587,395.197 150.254,390.53 137.5,384.5C 137.5,378.5 137.5,372.5 137.5,366.5 Z"/></g>
<g><path style="opacity:0.957" fill="#5f84e9" d="M 376.5,364.5 C 376.791,370.923 376.458,377.256 375.5,383.5C 365.284,388.464 354.618,392.464 343.5,395.5C 343.822,389.642 343.489,383.975 342.5,378.5C 353.998,374.423 365.332,369.757 376.5,364.5 Z"/></g>
<g><path style="opacity:0.979" fill="#697bec" d="M 342.5,378.5 C 343.489,383.975 343.822,389.642 343.5,395.5C 334.12,398.928 324.453,401.262 314.5,402.5C 312.554,397.604 311.887,392.271 312.5,386.5C 322.397,383.857 332.397,381.191 342.5,378.5 Z"/></g>
<g><path style="opacity:0.961" fill="#8860f5" d="M 177.5,380.5 C 191.821,385.031 206.488,388.031 221.5,389.5C 220.548,395.075 220.214,400.741 220.5,406.5C 205.898,405.113 191.565,402.446 177.5,398.5C 176.167,392.5 176.167,386.5 177.5,380.5 Z"/></g>
<g><path style="opacity:0.959" fill="#7273ef" d="M 312.5,386.5 C 311.887,392.271 312.554,397.604 314.5,402.5C 303.46,405.268 292.127,406.935 280.5,407.5C 279.548,401.925 279.214,396.259 279.5,390.5C 290.546,389.541 301.546,388.208 312.5,386.5 Z"/></g>
<g><path style="opacity:0.961" fill="#796df1" d="M 279.5,390.5 C 279.214,396.259 279.548,401.925 280.5,407.5C 271.874,408.411 263.208,408.745 254.5,408.5C 254.5,403.167 254.5,397.833 254.5,392.5C 256.099,392.768 257.432,392.434 258.5,391.5C 265.543,391.72 272.543,391.386 279.5,390.5 Z"/></g>
<g><path style="opacity:0.947" fill="#8067f3" d="M 221.5,389.5 C 233.753,391.136 246.086,391.803 258.5,391.5C 257.432,392.434 256.099,392.768 254.5,392.5C 254.5,397.833 254.5,403.167 254.5,408.5C 243.086,408.75 231.753,408.084 220.5,406.5C 220.214,400.741 220.548,395.075 221.5,389.5 Z"/></g>
</svg>
