<svg width="38" height="40" viewBox="0 0 38 40" fill="none" xmlns="http://www.w3.org/2000/svg">
<path d="M26 0H0V26H26V0Z" fill="#B5C5C3"/>
<path d="M19.01 35.93C10.61 30.28 5.45996 20.74 5.45996 10.54C5.45996 10.48 5.45996 10.42 5.45996 10.36C10.2 10.14 14.82 8.93 19.01 6.83V3.44C14.48 6.01 9.29996 7.39 4.00996 7.4H2.59996L2.50996 8.81C2.47996 9.38 2.45996 9.96 2.45996 10.55C2.45996 22.41 8.79996 33.47 19.01 39.49V35.93Z" fill="#33404F"/>
<path d="M37.51 8.81L37.42 7.4H36.01C30.71 7.39 25.54 6.01 21.01 3.44V6.83C25.2 8.93 29.82 10.15 34.56 10.36C34.56 10.42 34.56 10.48 34.56 10.54C34.56 20.74 29.41 30.28 21.01 35.93V39.48C31.22 33.46 37.56 22.4 37.56 10.54C37.56 9.95 37.54 9.38 37.51 8.81Z" fill="#33404F"/>
<path d="M19.51 14.79L20.01 14.5L20.51 14.79C23.97 16.8 27.94 17.89 32 17.98C32.33 16.36 32.51 14.68 32.51 12.96C32.51 12.52 32.5 12.1 32.47 11.68C27.93 11.67 23.68 10.46 20.01 8.33002C16.34 10.46 12.09 11.66 7.55001 11.68C7.52001 12.1 7.51001 12.53 7.51001 12.96C7.51001 14.68 7.68001 16.36 8.02001 17.98C12.08 17.89 16.04 16.8 19.51 14.79Z" fill="#33404F"/>
<path d="M20.01 16.8C16.51 18.73 12.56 19.81 8.51001 19.97C10.33 26.2 14.5 31.43 20.01 34.62C25.52 31.44 29.69 26.21 31.51 19.97C27.46 19.81 23.51 18.73 20.01 16.8Z" fill="#33404F"/>
</svg>
