<?xml version="1.0" encoding="UTF-8"?>
<!DOCTYPE svg PUBLIC "-//W3C//DTD SVG 1.1//EN" "http://www.w3.org/Graphics/SVG/1.1/DTD/svg11.dtd">
<svg xmlns="http://www.w3.org/2000/svg" version="1.1" width="512px" height="512px" style="shape-rendering:geometricPrecision; text-rendering:geometricPrecision; image-rendering:optimizeQuality; fill-rule:evenodd; clip-rule:evenodd" xmlns:xlink="http://www.w3.org/1999/xlink">
<g><path style="opacity:1" fill="#00aec8" d="M 165.5,7.5 C 176.5,7.5 187.5,7.5 198.5,7.5C 198.5,12.8333 198.5,18.1667 198.5,23.5C 187.5,23.5 176.5,23.5 165.5,23.5C 165.5,18.1667 165.5,12.8333 165.5,7.5 Z"/></g>
<g><path style="opacity:1" fill="#00c5d5" d="M 198.5,7.5 C 212.833,7.5 227.167,7.5 241.5,7.5C 241.5,12.8333 241.5,18.1667 241.5,23.5C 227.167,23.5 212.833,23.5 198.5,23.5C 198.5,18.1667 198.5,12.8333 198.5,7.5 Z"/></g>
<g><path style="opacity:1" fill="#00d2df" d="M 241.5,7.5 C 253.5,7.5 265.5,7.5 277.5,7.5C 277.5,12.8333 277.5,18.1667 277.5,23.5C 265.5,23.5 253.5,23.5 241.5,23.5C 241.5,18.1667 241.5,12.8333 241.5,7.5 Z"/></g>
<g><path style="opacity:1" fill="#00c6e1" d="M 277.5,7.5 C 286.833,7.5 296.167,7.5 305.5,7.5C 305.5,12.8333 305.5,18.1667 305.5,23.5C 296.167,23.5 286.833,23.5 277.5,23.5C 277.5,18.1667 277.5,12.8333 277.5,7.5 Z"/></g>
<g><path style="opacity:1" fill="#00bae3" d="M 305.5,7.5 C 314.833,7.5 324.167,7.5 333.5,7.5C 333.5,12.8333 333.5,18.1667 333.5,23.5C 324.167,23.5 314.833,23.5 305.5,23.5C 305.5,18.1667 305.5,12.8333 305.5,7.5 Z"/></g>
<g><path style="opacity:0.988" fill="#00ace5" d="M 333.5,7.5 C 343.5,7.5 353.5,7.5 363.5,7.5C 363.5,23.5 363.5,39.5 363.5,55.5C 359.5,55.5 355.5,55.5 351.5,55.5C 351.333,66.8382 351.5,78.1716 352,89.5C 355.965,91.4195 359.798,93.4195 363.5,95.5C 363.5,101.5 363.5,107.5 363.5,113.5C 358.746,111.694 354.08,109.694 349.5,107.5C 349.5,84.8333 349.5,62.1667 349.5,39.5C 352.833,39.5 356.167,39.5 359.5,39.5C 359.5,34.1667 359.5,28.8333 359.5,23.5C 350.833,23.5 342.167,23.5 333.5,23.5C 333.5,18.1667 333.5,12.8333 333.5,7.5 Z"/></g>
<g><path style="opacity:0.989" fill="#00a5e7" d="M 363.5,7.5 C 367.257,7.07083 370.757,7.73749 374,9.5C 375.133,16.733 375.633,24.0664 375.5,31.5C 375.333,38.1667 375.167,44.8333 375,51.5C 374.5,53.3333 373.333,54.5 371.5,55C 368.854,55.4974 366.187,55.6641 363.5,55.5C 363.5,39.5 363.5,23.5 363.5,7.5 Z"/></g>
<g><path style="opacity:0.985" fill="#009cbe" d="M 165.5,7.5 C 165.5,12.8333 165.5,18.1667 165.5,23.5C 160.833,23.5 156.167,23.5 151.5,23.5C 151.5,28.8333 151.5,34.1667 151.5,39.5C 156.167,39.5 160.833,39.5 165.5,39.5C 165.5,61.5 165.5,83.5 165.5,105.5C 158.075,109.204 150.409,112.537 142.5,115.5C 142.789,109.409 142.455,103.409 141.5,97.5C 147.382,94.9762 153.215,92.3095 159,89.5C 159.5,78.1716 159.667,66.8382 159.5,55.5C 152.825,55.6663 146.158,55.4996 139.5,55C 138.584,54.6258 137.75,54.1258 137,53.5C 135.369,39.5941 135.036,25.5941 136,11.5C 136.5,9.66667 137.667,8.5 139.5,8C 148.16,7.50025 156.827,7.33358 165.5,7.5 Z"/></g>
<g><path style="opacity:0.993" fill="#00a6c3" d="M 165.5,39.5 C 172.167,39.5 178.833,39.5 185.5,39.5C 185.5,44.8333 185.5,50.1667 185.5,55.5C 182.167,55.5 178.833,55.5 175.5,55.5C 175.667,70.1705 175.5,84.8371 175,99.5C 172.611,102.618 169.444,104.618 165.5,105.5C 165.5,83.5 165.5,61.5 165.5,39.5 Z"/></g>
<g><path style="opacity:1" fill="#00b9ce" d="M 185.5,39.5 C 196.5,39.5 207.5,39.5 218.5,39.5C 218.5,44.8333 218.5,50.1667 218.5,55.5C 207.5,55.5 196.5,55.5 185.5,55.5C 185.5,50.1667 185.5,44.8333 185.5,39.5 Z"/></g>
<g><path style="opacity:1" fill="#00cfdc" d="M 218.5,39.5 C 238.167,39.5 257.833,39.5 277.5,39.5C 277.5,44.8333 277.5,50.1667 277.5,55.5C 257.833,55.5 238.167,55.5 218.5,55.5C 218.5,50.1667 218.5,44.8333 218.5,39.5 Z"/></g>
<g><path style="opacity:1" fill="#00c6e1" d="M 277.5,39.5 C 286.833,39.5 296.167,39.5 305.5,39.5C 305.5,44.8333 305.5,50.1667 305.5,55.5C 296.167,55.5 286.833,55.5 277.5,55.5C 277.5,50.1667 277.5,44.8333 277.5,39.5 Z"/></g>
<g><path style="opacity:1" fill="#00bae3" d="M 305.5,39.5 C 314.833,39.5 324.167,39.5 333.5,39.5C 333.5,44.8333 333.5,50.1667 333.5,55.5C 324.167,55.5 314.833,55.5 305.5,55.5C 305.5,50.1667 305.5,44.8333 305.5,39.5 Z"/></g>
<g><path style="opacity:0.993" fill="#00b1e4" d="M 333.5,39.5 C 338.833,39.5 344.167,39.5 349.5,39.5C 349.5,62.1667 349.5,84.8333 349.5,107.5C 344.245,105.962 339.745,103.295 336,99.5C 336.154,84.4658 335.32,69.7991 333.5,55.5C 333.5,50.1667 333.5,44.8333 333.5,39.5 Z"/></g>
<g><path style="opacity:0.937" fill="#008eb6" d="M 141.5,97.5 C 142.455,103.409 142.789,109.409 142.5,115.5C 136.139,119.011 129.472,122.011 122.5,124.5C 122.5,118.5 122.5,112.5 122.5,106.5C 128.648,103.261 134.981,100.261 141.5,97.5 Z"/></g>
<g><path style="opacity:0.95" fill="#00a1e7" d="M 363.5,95.5 C 372.911,98.7412 381.911,102.741 390.5,107.5C 390.5,113.5 390.5,119.5 390.5,125.5C 381.314,121.736 372.314,117.736 363.5,113.5C 363.5,107.5 363.5,101.5 363.5,95.5 Z"/></g>
<g><path style="opacity:0.958" fill="#0099e9" d="M 390.5,107.5 C 397.193,109.215 402.86,112.548 407.5,117.5C 407.827,127.681 407.494,137.681 406.5,147.5C 404.078,137.968 398.745,130.635 390.5,125.5C 390.5,119.5 390.5,113.5 390.5,107.5 Z"/></g>
<g><path style="opacity:0.989" fill="#007fae" d="M 122.5,106.5 C 122.5,112.5 122.5,118.5 122.5,124.5C 110.943,130.588 104.777,140.254 104,153.5C 103.333,254.167 103.333,354.833 104,455.5C 104.786,468.752 110.953,478.419 122.5,484.5C 122.5,490.5 122.5,496.5 122.5,502.5C 113.326,499.751 105.66,494.751 99.5,487.5C 99.5,365.5 99.5,243.5 99.5,121.5C 105.655,114.251 113.321,109.251 122.5,106.5 Z"/></g>
<g><path style="opacity:0.995" fill="#0092ea" d="M 407.5,117.5 C 415.727,124.252 420.893,132.919 423,143.5C 423.667,250.833 423.667,358.167 423,465.5C 420.893,476.081 415.727,484.748 407.5,491.5C 407.828,480.321 407.495,469.321 406.5,458.5C 407.827,354.847 407.827,251.18 406.5,147.5C 407.494,137.681 407.827,127.681 407.5,117.5 Z"/></g>
<g><path style="opacity:0.996" fill="#0079aa" d="M 99.5,121.5 C 99.5,243.5 99.5,365.5 99.5,487.5C 93.3373,481.513 89.504,474.179 88,465.5C 87.3333,358.167 87.3333,250.833 88,143.5C 89.504,134.821 93.3373,127.487 99.5,121.5 Z"/></g>
<g><path style="opacity:0.952" fill="#00c6e1" d="M 305.5,169.5 C 305.5,175.167 305.5,180.833 305.5,186.5C 296.136,184.36 286.803,183.693 277.5,184.5C 277.5,178.833 277.5,173.167 277.5,167.5C 287.073,166.327 296.406,166.994 305.5,169.5 Z"/></g>
<g><path style="opacity:0.952" fill="#00d3de" d="M 277.5,167.5 C 277.5,173.167 277.5,178.833 277.5,184.5C 263.456,188.023 251.79,195.357 242.5,206.5C 241.833,199.167 241.167,191.833 240.5,184.5C 251.122,175.359 263.455,169.693 277.5,167.5 Z"/></g>
<g><path style="opacity:0.949" fill="#00bae4" d="M 305.5,169.5 C 316.766,171.632 326.433,176.632 334.5,184.5C 333.508,192.316 333.174,200.316 333.5,208.5C 326.227,198.562 316.893,191.228 305.5,186.5C 305.5,180.833 305.5,175.167 305.5,169.5 Z"/></g>
<g><path style="opacity:0.962" fill="#00b2e4" d="M 334.5,184.5 C 341.307,189.637 346.641,195.97 350.5,203.5C 349.502,227.661 349.169,251.994 349.5,276.5C 342.726,288.608 333.059,297.608 320.5,303.5C 319.51,297.355 319.177,291.022 319.5,284.5C 341.849,266.451 348.016,243.784 338,216.5C 336.672,213.688 335.172,211.022 333.5,208.5C 333.174,200.316 333.508,192.316 334.5,184.5 Z"/></g>
<g><path style="opacity:0.958" fill="#00ade6" d="M 350.5,203.5 C 363.939,228.052 363.606,252.386 349.5,276.5C 349.169,251.994 349.502,227.661 350.5,203.5 Z"/></g>
<g><path style="opacity:0.986" fill="#00c6e1" d="M 280.5,223.5 C 280.823,216.978 280.49,210.645 279.5,204.5C 280.023,202.292 281.356,200.792 283.5,200C 290.748,197.774 294.748,200.274 295.5,207.5C 300.297,207.121 304.964,207.621 309.5,209C 311.942,213.052 312.109,217.219 310,221.5C 309.25,222.126 308.416,222.626 307.5,223C 298.506,223.5 289.506,223.666 280.5,223.5 Z"/></g>
<g><path style="opacity:0.975" fill="#00c6d5" d="M 240.5,184.5 C 241.167,191.833 241.833,199.167 242.5,206.5C 232.22,222.244 229.72,239.244 235,257.5C 236.653,262.139 238.819,266.472 241.5,270.5C 241.826,278.684 241.492,286.684 240.5,294.5C 223.906,279.808 215.239,261.308 214.5,239C 215.536,217.098 224.203,198.932 240.5,184.5 Z"/></g>
<g><path style="opacity:0.994" fill="#00d1df" d="M 279.5,204.5 C 280.49,210.645 280.823,216.978 280.5,223.5C 279.167,226.167 279.167,228.833 280.5,231.5C 280.5,236.833 280.5,242.167 280.5,247.5C 264.697,249.997 259.03,243.331 263.5,227.5C 263.376,221.395 263.876,215.395 265,209.5C 265.75,208.874 266.584,208.374 267.5,208C 271.486,207.501 275.486,207.334 279.5,207.5C 279.5,206.5 279.5,205.5 279.5,204.5 Z"/></g>
<g><path style="opacity:0.994" fill="#00c5e1" d="M 280.5,231.5 C 289.506,231.334 298.506,231.5 307.5,232C 309.333,232.5 310.5,233.667 311,235.5C 311.667,246.167 311.667,256.833 311,267.5C 310.5,269.333 309.333,270.5 307.5,271C 303.514,271.499 299.514,271.666 295.5,271.5C 295.5,272.5 295.5,273.5 295.5,274.5C 294.51,268.355 294.177,262.022 294.5,255.5C 295.473,253.052 295.806,250.385 295.5,247.5C 290.5,247.5 285.5,247.5 280.5,247.5C 280.5,242.167 280.5,236.833 280.5,231.5 Z"/></g>
<g><path style="opacity:0.984" fill="#00cce0" d="M 294.5,255.5 C 294.177,262.022 294.51,268.355 295.5,274.5C 294.977,276.708 293.644,278.208 291.5,279C 284.252,281.226 280.252,278.726 279.5,271.5C 274.703,271.879 270.036,271.379 265.5,270C 263.058,265.948 262.891,261.781 265,257.5C 265.75,256.874 266.584,256.374 267.5,256C 276.494,255.5 285.494,255.334 294.5,255.5 Z"/></g>
<g><path style="opacity:0.988" fill="#00d2dd" d="M 241.5,270.5 C 249.698,281.599 260.364,289.266 273.5,293.5C 275.386,299.208 276.053,305.208 275.5,311.5C 264.167,311.5 252.833,311.5 241.5,311.5C 241.821,305.974 241.488,300.64 240.5,295.5C 240.5,295.167 240.5,294.833 240.5,294.5C 241.492,286.684 241.826,278.684 241.5,270.5 Z"/></g>
<g><path style="opacity:0.988" fill="#00bfe3" d="M 319.5,284.5 C 319.177,291.022 319.51,297.355 320.5,303.5C 317.912,305.625 314.912,306.958 311.5,307.5C 311.5,324.833 311.5,342.167 311.5,359.5C 314.167,359.5 316.833,359.5 319.5,359.5C 319.5,364.833 319.5,370.167 319.5,375.5C 314.833,375.5 310.167,375.5 305.5,375.5C 305.5,347.833 305.5,320.167 305.5,292.5C 310.425,290.368 315.092,287.702 319.5,284.5 Z"/></g>
<g><path style="opacity:0.996" fill="#00c6e1" d="M 305.5,292.5 C 305.5,320.167 305.5,347.833 305.5,375.5C 296.167,375.5 286.833,375.5 277.5,375.5C 277.5,370.167 277.5,364.833 277.5,359.5C 283.5,359.5 289.5,359.5 295.5,359.5C 295.5,354.167 295.5,348.833 295.5,343.5C 289.5,343.5 283.5,343.5 277.5,343.5C 277.5,338.167 277.5,332.833 277.5,327.5C 283.5,327.5 289.5,327.5 295.5,327.5C 295.5,322.167 295.5,316.833 295.5,311.5C 288.833,311.5 282.167,311.5 275.5,311.5C 276.053,305.208 275.386,299.208 273.5,293.5C 284.235,295.03 294.902,294.696 305.5,292.5 Z"/></g>
<g><path style="opacity:1" fill="#00acc6" d="M 198.5,295.5 C 198.5,300.833 198.5,306.167 198.5,311.5C 193.5,311.5 188.5,311.5 183.5,311.5C 183.5,316.833 183.5,322.167 183.5,327.5C 188.5,327.5 193.5,327.5 198.5,327.5C 198.5,332.833 198.5,338.167 198.5,343.5C 193.5,343.5 188.5,343.5 183.5,343.5C 183.5,348.833 183.5,354.167 183.5,359.5C 188.5,359.5 193.5,359.5 198.5,359.5C 198.5,364.833 198.5,370.167 198.5,375.5C 189.494,375.666 180.494,375.5 171.5,375C 170.584,374.626 169.75,374.126 169,373.5C 167.851,360.925 167.351,348.258 167.5,335.5C 167.351,322.742 167.851,310.075 169,297.5C 169.75,296.874 170.584,296.374 171.5,296C 180.494,295.5 189.494,295.334 198.5,295.5 Z"/></g>
<g><path style="opacity:1" fill="#00c5d5" d="M 198.5,295.5 C 212.5,295.5 226.5,295.5 240.5,295.5C 241.488,300.64 241.821,305.974 241.5,311.5C 227.167,311.5 212.833,311.5 198.5,311.5C 198.5,306.167 198.5,300.833 198.5,295.5 Z"/></g>
<g><path style="opacity:1" fill="#00c5d5" d="M 198.5,327.5 C 212.833,327.5 227.167,327.5 241.5,327.5C 241.5,332.833 241.5,338.167 241.5,343.5C 227.167,343.5 212.833,343.5 198.5,343.5C 198.5,338.167 198.5,332.833 198.5,327.5 Z"/></g>
<g><path style="opacity:1" fill="#00d2df" d="M 241.5,327.5 C 253.5,327.5 265.5,327.5 277.5,327.5C 277.5,332.833 277.5,338.167 277.5,343.5C 265.5,343.5 253.5,343.5 241.5,343.5C 241.5,338.167 241.5,332.833 241.5,327.5 Z"/></g>
<g><path style="opacity:1" fill="#00bcd0" d="M 198.5,359.5 C 205.167,359.5 211.833,359.5 218.5,359.5C 218.5,364.833 218.5,370.167 218.5,375.5C 217.5,375.5 216.5,375.5 215.5,375.5C 215.5,380.833 215.5,386.167 215.5,391.5C 216.5,391.5 217.5,391.5 218.5,391.5C 218.5,396.833 218.5,402.167 218.5,407.5C 211.833,407.5 205.167,407.5 198.5,407.5C 198.5,402.167 198.5,396.833 198.5,391.5C 199.833,386.167 199.833,380.833 198.5,375.5C 198.5,370.167 198.5,364.833 198.5,359.5 Z"/></g>
<g><path style="opacity:1" fill="#00cfdc" d="M 218.5,359.5 C 238.167,359.5 257.833,359.5 277.5,359.5C 277.5,364.833 277.5,370.167 277.5,375.5C 257.833,375.5 238.167,375.5 218.5,375.5C 218.5,370.167 218.5,364.833 218.5,359.5 Z"/></g>
<g><path style="opacity:0.984" fill="#00b4e4" d="M 319.5,359.5 C 326.947,359.071 334.281,359.571 341.5,361C 342.126,361.75 342.626,362.584 343,363.5C 343.167,370.167 343.333,376.833 343.5,383.5C 343.633,390.934 343.133,398.267 342,405.5C 341.25,406.126 340.416,406.626 339.5,407C 332.842,407.5 326.175,407.666 319.5,407.5C 319.5,402.167 319.5,396.833 319.5,391.5C 322.167,391.5 324.833,391.5 327.5,391.5C 327.5,386.167 327.5,380.833 327.5,375.5C 324.833,375.5 322.167,375.5 319.5,375.5C 319.5,370.167 319.5,364.833 319.5,359.5 Z"/></g>
<g><path style="opacity:0.996" fill="#00a3c2" d="M 175.5,391.5 C 175.5,407.5 175.5,423.5 175.5,439.5C 172.833,439.5 170.167,439.5 167.5,439.5C 167.5,444.833 167.5,450.167 167.5,455.5C 170.167,455.5 172.833,455.5 175.5,455.5C 175.5,471.5 175.5,487.5 175.5,503.5C 172.167,503.5 168.833,503.5 165.5,503.5C 165.5,498.167 165.5,492.833 165.5,487.5C 167.446,482.604 168.113,477.271 167.5,471.5C 163.486,471.666 159.486,471.499 155.5,471C 154.584,470.626 153.75,470.126 153,469.5C 151.867,462.267 151.367,454.934 151.5,447.5C 151.367,440.066 151.867,432.733 153,425.5C 153.75,424.874 154.584,424.374 155.5,424C 159.486,423.501 163.486,423.334 167.5,423.5C 167.334,414.161 167.5,404.827 168,395.5C 169.539,392.479 172.039,391.146 175.5,391.5 Z"/></g>
<g><path style="opacity:1" fill="#00adc7" d="M 175.5,391.5 C 183.167,391.5 190.833,391.5 198.5,391.5C 198.5,396.833 198.5,402.167 198.5,407.5C 193.5,407.5 188.5,407.5 183.5,407.5C 183.5,412.833 183.5,418.167 183.5,423.5C 188.5,423.5 193.5,423.5 198.5,423.5C 198.5,428.833 198.5,434.167 198.5,439.5C 190.833,439.5 183.167,439.5 175.5,439.5C 175.5,423.5 175.5,407.5 175.5,391.5 Z"/></g>
<g><path style="opacity:1" fill="#00cfdc" d="M 218.5,391.5 C 238.167,391.5 257.833,391.5 277.5,391.5C 277.5,396.833 277.5,402.167 277.5,407.5C 257.833,407.5 238.167,407.5 218.5,407.5C 218.5,402.167 218.5,396.833 218.5,391.5 Z"/></g>
<g><path style="opacity:0.999" fill="#00c6e1" d="M 277.5,391.5 C 286.833,391.5 296.167,391.5 305.5,391.5C 304.849,407.536 305.516,423.202 307.5,438.5C 303.702,439.483 299.702,439.817 295.5,439.5C 295.5,444.833 295.5,450.167 295.5,455.5C 298.833,455.5 302.167,455.5 305.5,455.5C 305.5,471.5 305.5,487.5 305.5,503.5C 296.167,503.5 286.833,503.5 277.5,503.5C 277.5,498.167 277.5,492.833 277.5,487.5C 283.5,487.5 289.5,487.5 295.5,487.5C 295.5,482.167 295.5,476.833 295.5,471.5C 289.5,471.5 283.5,471.5 277.5,471.5C 277.5,466.167 277.5,460.833 277.5,455.5C 278.812,453.257 279.478,450.59 279.5,447.5C 279.478,444.41 278.812,441.743 277.5,439.5C 277.5,434.167 277.5,428.833 277.5,423.5C 283.5,423.5 289.5,423.5 295.5,423.5C 295.5,418.167 295.5,412.833 295.5,407.5C 289.5,407.5 283.5,407.5 277.5,407.5C 277.5,402.167 277.5,396.833 277.5,391.5 Z"/></g>
<g><path style="opacity:0.993" fill="#00bfe2" d="M 305.5,391.5 C 310.167,391.5 314.833,391.5 319.5,391.5C 319.5,396.833 319.5,402.167 319.5,407.5C 316.833,407.5 314.167,407.5 311.5,407.5C 311.666,416.839 311.5,426.173 311,435.5C 310.578,437.426 309.411,438.426 307.5,438.5C 305.516,423.202 304.849,407.536 305.5,391.5 Z"/></g>
<g><path style="opacity:1" fill="#00c5d5" d="M 198.5,423.5 C 212.833,423.5 227.167,423.5 241.5,423.5C 241.5,428.833 241.5,434.167 241.5,439.5C 227.167,439.5 212.833,439.5 198.5,439.5C 198.5,434.167 198.5,428.833 198.5,423.5 Z"/></g>
<g><path style="opacity:1" fill="#00d2df" d="M 241.5,423.5 C 253.5,423.5 265.5,423.5 277.5,423.5C 277.5,428.833 277.5,434.167 277.5,439.5C 265.5,439.5 253.5,439.5 241.5,439.5C 241.5,434.167 241.5,428.833 241.5,423.5 Z"/></g>
<g><path style="opacity:1" fill="#00adc7" d="M 175.5,455.5 C 183.167,455.5 190.833,455.5 198.5,455.5C 198.5,460.833 198.5,466.167 198.5,471.5C 193.5,471.5 188.5,471.5 183.5,471.5C 183.5,476.833 183.5,482.167 183.5,487.5C 188.5,487.5 193.5,487.5 198.5,487.5C 198.5,492.833 198.5,498.167 198.5,503.5C 190.833,503.5 183.167,503.5 175.5,503.5C 175.5,487.5 175.5,471.5 175.5,455.5 Z"/></g>
<g><path style="opacity:1" fill="#00c5d5" d="M 198.5,455.5 C 212.833,455.5 227.167,455.5 241.5,455.5C 241.5,460.833 241.5,466.167 241.5,471.5C 227.167,471.5 212.833,471.5 198.5,471.5C 198.5,466.167 198.5,460.833 198.5,455.5 Z"/></g>
<g><path style="opacity:1" fill="#00d2df" d="M 241.5,455.5 C 253.5,455.5 265.5,455.5 277.5,455.5C 277.5,460.833 277.5,466.167 277.5,471.5C 265.5,471.5 253.5,471.5 241.5,471.5C 241.5,466.167 241.5,460.833 241.5,455.5 Z"/></g>
<g><path style="opacity:0.99" fill="#00bfe2" d="M 305.5,455.5 C 308.148,455.738 309.982,457.072 311,459.5C 311.5,468.827 311.666,478.161 311.5,487.5C 314.167,487.5 316.833,487.5 319.5,487.5C 319.5,492.833 319.5,498.167 319.5,503.5C 314.833,503.5 310.167,503.5 305.5,503.5C 305.5,487.5 305.5,471.5 305.5,455.5 Z"/></g>
<g><path style="opacity:0.954" fill="#019ae9" d="M 406.5,458.5 C 407.495,469.321 407.828,480.321 407.5,491.5C 399.86,499.167 390.527,503.167 379.5,503.5C 378.167,497.833 378.167,492.167 379.5,486.5C 395.292,483.708 404.292,474.375 406.5,458.5 Z"/></g>
<g><path style="opacity:1" fill="#0097bb" d="M 122.5,484.5 C 126.734,485.749 131.067,486.582 135.5,487C 145.494,487.5 155.494,487.666 165.5,487.5C 165.5,492.833 165.5,498.167 165.5,503.5C 151.131,503.782 136.797,503.449 122.5,502.5C 122.5,496.5 122.5,490.5 122.5,484.5 Z"/></g>
<g><path style="opacity:1" fill="#00c5d5" d="M 198.5,487.5 C 212.833,487.5 227.167,487.5 241.5,487.5C 241.5,492.833 241.5,498.167 241.5,503.5C 227.167,503.5 212.833,503.5 198.5,503.5C 198.5,498.167 198.5,492.833 198.5,487.5 Z"/></g>
<g><path style="opacity:1" fill="#00d2df" d="M 241.5,487.5 C 253.5,487.5 265.5,487.5 277.5,487.5C 277.5,492.833 277.5,498.167 277.5,503.5C 265.5,503.5 253.5,503.5 241.5,503.5C 241.5,498.167 241.5,492.833 241.5,487.5 Z"/></g>
<g><path style="opacity:1" fill="#00b3e4" d="M 319.5,487.5 C 329.5,487.5 339.5,487.5 349.5,487.5C 349.5,492.833 349.5,498.167 349.5,503.5C 339.5,503.5 329.5,503.5 319.5,503.5C 319.5,498.167 319.5,492.833 319.5,487.5 Z"/></g>
<g><path style="opacity:1" fill="#00a7e6" d="M 379.5,486.5 C 378.167,492.167 378.167,497.833 379.5,503.5C 369.5,503.5 359.5,503.5 349.5,503.5C 349.5,498.167 349.5,492.833 349.5,487.5C 359.532,487.729 369.532,487.396 379.5,486.5 Z"/></g>
</svg>
