<?xml version="1.0" encoding="UTF-8"?>
<!DOCTYPE svg PUBLIC "-//W3C//DTD SVG 1.1//EN" "http://www.w3.org/Graphics/SVG/1.1/DTD/svg11.dtd">
<svg xmlns="http://www.w3.org/2000/svg" version="1.1" width="512px" height="512px" style="shape-rendering:geometricPrecision; text-rendering:geometricPrecision; image-rendering:optimizeQuality; fill-rule:evenodd; clip-rule:evenodd" xmlns:xlink="http://www.w3.org/1999/xlink">
<g><path style="opacity:0.988" fill="#02b2d1" d="M 397.5,27.5 C 392.833,27.5 388.167,27.5 383.5,27.5C 377.625,21.0634 370.292,17.5634 361.5,17C 290.833,16.3333 220.167,16.3333 149.5,17C 140.708,17.5634 133.375,21.0634 127.5,27.5C 122.833,27.5 118.167,27.5 113.5,27.5C 118.502,15.3159 127.502,7.8159 140.5,5C 217.167,4.33333 293.833,4.33333 370.5,5C 383.498,7.8159 392.498,15.3159 397.5,27.5 Z"/></g>
<g><path style="opacity:0.929" fill="#0fa7d5" d="M 113.5,27.5 C 118.167,27.5 122.833,27.5 127.5,27.5C 123.02,35.5313 121.354,44.198 122.5,53.5C 211.167,53.5 299.833,53.5 388.5,53.5C 389.561,44.2214 387.895,35.5547 383.5,27.5C 388.167,27.5 392.833,27.5 397.5,27.5C 399.531,30.4216 400.698,33.7549 401,37.5C 401.5,48.495 401.667,59.495 401.5,70.5C 397.5,70.5 393.5,70.5 389.5,70.5C 389.737,71.791 389.404,72.791 388.5,73.5C 388.5,71.1667 388.5,68.8333 388.5,66.5C 299.833,66.5 211.167,66.5 122.5,66.5C 122.5,68.8333 122.5,71.1667 122.5,73.5C 121.596,72.791 121.263,71.791 121.5,70.5C 117.5,70.5 113.5,70.5 109.5,70.5C 109.333,59.495 109.5,48.495 110,37.5C 110.302,33.7549 111.469,30.4216 113.5,27.5 Z"/></g>
<g><path style="opacity:0.902" fill="#15a1d8" d="M 109.5,70.5 C 113.5,70.5 117.5,70.5 121.5,70.5C 121.263,71.791 121.596,72.791 122.5,73.5C 122.5,80.8333 122.5,88.1667 122.5,95.5C 121.566,94.4324 121.232,93.099 121.5,91.5C 117.5,91.5 113.5,91.5 109.5,91.5C 109.5,84.5 109.5,77.5 109.5,70.5 Z"/></g>
<g><path style="opacity:0.902" fill="#15a1d8" d="M 401.5,70.5 C 401.5,77.5 401.5,84.5 401.5,91.5C 397.5,91.5 393.5,91.5 389.5,91.5C 389.768,93.099 389.434,94.4324 388.5,95.5C 388.5,88.1667 388.5,80.8333 388.5,73.5C 389.404,72.791 389.737,71.791 389.5,70.5C 393.5,70.5 397.5,70.5 401.5,70.5 Z"/></g>
<g><path style="opacity:0.923" fill="#1c9cda" d="M 109.5,91.5 C 113.5,91.5 117.5,91.5 121.5,91.5C 121.232,93.099 121.566,94.4324 122.5,95.5C 122.5,102.5 122.5,109.5 122.5,116.5C 118.5,116.5 114.5,116.5 110.5,116.5C 110.737,115.209 110.404,114.209 109.5,113.5C 109.5,106.167 109.5,98.8333 109.5,91.5 Z"/></g>
<g><path style="opacity:0.923" fill="#1c9cda" d="M 401.5,91.5 C 401.5,98.8333 401.5,106.167 401.5,113.5C 400.596,114.209 400.263,115.209 400.5,116.5C 396.5,116.5 392.5,116.5 388.5,116.5C 388.5,109.5 388.5,102.5 388.5,95.5C 389.434,94.4324 389.768,93.099 389.5,91.5C 393.5,91.5 397.5,91.5 401.5,91.5 Z"/></g>
<g><path style="opacity:0.931" fill="#2396dc" d="M 109.5,113.5 C 110.404,114.209 110.737,115.209 110.5,116.5C 114.5,116.5 118.5,116.5 122.5,116.5C 122.5,124.167 122.5,131.833 122.5,139.5C 98.0688,138.843 73.7355,138.176 49.5,137.5C 50.6728,135.496 52.3395,133.996 54.5,133C 72.8303,132.5 91.1636,132.333 109.5,132.5C 109.5,126.167 109.5,119.833 109.5,113.5 Z"/></g>
<g><path style="opacity:0.915" fill="#2297dc" d="M 401.5,113.5 C 401.5,120.833 401.5,128.167 401.5,135.5C 400.596,136.209 400.263,137.209 400.5,138.5C 396.4,138.237 392.4,138.57 388.5,139.5C 388.5,131.833 388.5,124.167 388.5,116.5C 392.5,116.5 396.5,116.5 400.5,116.5C 400.263,115.209 400.596,114.209 401.5,113.5 Z"/></g>
<g><path style="opacity:0.947" fill="#2992de" d="M 463.5,172.5 C 458.833,173.167 454.167,173.833 449.5,174.5C 442.238,164.564 434.571,154.898 426.5,145.5C 422.148,150.903 417.814,156.237 413.5,161.5C 405.082,161.198 396.748,161.531 388.5,162.5C 388.5,154.833 388.5,147.167 388.5,139.5C 392.4,138.57 396.4,138.237 400.5,138.5C 400.263,137.209 400.596,136.209 401.5,135.5C 401.334,142.175 401.5,148.842 402,155.5C 407.136,147.704 412.97,140.537 419.5,134C 427.789,130.625 434.622,132.458 440,139.5C 448.343,150.207 456.177,161.207 463.5,172.5 Z"/></g>
<g><path style="opacity:0.968" fill="#2793de" d="M 49.5,137.5 C 73.7355,138.176 98.0688,138.843 122.5,139.5C 122.5,146.167 122.5,152.833 122.5,159.5C 118.5,159.5 114.5,159.5 110.5,159.5C 110.737,158.209 110.404,157.209 109.5,156.5C 109.5,152.833 109.5,149.167 109.5,145.5C 92.5,145.5 75.5,145.5 58.5,145.5C 58.5,150.167 58.5,154.833 58.5,159.5C 54.5,159.5 50.5,159.5 46.5,159.5C 46.7373,158.209 46.404,157.209 45.5,156.5C 45.3343,152.154 45.501,147.821 46,143.5C 46.4238,140.975 47.5905,138.975 49.5,137.5 Z"/></g>
<g><path style="opacity:0.902" fill="#328ae1" d="M 109.5,156.5 C 110.404,157.209 110.737,158.209 110.5,159.5C 114.5,159.5 118.5,159.5 122.5,159.5C 122.5,173.833 122.5,188.167 122.5,202.5C 121.596,203.209 121.263,204.209 121.5,205.5C 117.5,205.5 113.5,205.5 109.5,205.5C 109.5,189.167 109.5,172.833 109.5,156.5 Z"/></g>
<g><path style="opacity:0.882" fill="#308be0" d="M 45.5,156.5 C 46.404,157.209 46.7373,158.209 46.5,159.5C 50.5,159.5 54.5,159.5 58.5,159.5C 58.5,168.5 58.5,177.5 58.5,186.5C 54.5,186.5 50.5,186.5 46.5,186.5C 46.7845,188.415 46.4511,190.081 45.5,191.5C 45.5,179.833 45.5,168.167 45.5,156.5 Z"/></g>
<g><path style="opacity:0.963" fill="#3291e2" d="M 265.5,185.5 C 259.167,186.833 252.833,186.833 246.5,185.5C 247.5,185.5 248.5,185.5 249.5,185.5C 249.334,178.159 249.5,170.826 250,163.5C 253.667,159.5 257.333,159.5 261,163.5C 262.348,170.761 262.848,178.094 262.5,185.5C 263.5,185.5 264.5,185.5 265.5,185.5 Z"/></g>
<g><path style="opacity:0.974" fill="#308be0" d="M 413.5,161.5 C 407.653,170.53 401.32,179.197 394.5,187.5C 389.695,186.513 384.695,186.179 379.5,186.5C 382.078,182.354 384.911,178.354 388,174.5C 388.499,170.514 388.666,166.514 388.5,162.5C 396.748,161.531 405.082,161.198 413.5,161.5 Z"/></g>
<g><path style="opacity:0.946" fill="#3588e2" d="M 463.5,172.5 C 473.731,185.281 483.731,198.281 493.5,211.5C 488.398,212.121 483.398,212.787 478.5,213.5C 468.601,200.717 458.935,187.717 449.5,174.5C 454.167,173.833 458.833,173.167 463.5,172.5 Z"/></g>
<g><path style="opacity:0.918" fill="#3587e2" d="M 58.5,186.5 C 58.5,192.833 58.5,199.167 58.5,205.5C 54.5,205.5 50.5,205.5 46.5,205.5C 46.8016,208.059 46.4682,210.393 45.5,212.5C 45.5,205.5 45.5,198.5 45.5,191.5C 46.4511,190.081 46.7845,188.415 46.5,186.5C 50.5,186.5 54.5,186.5 58.5,186.5 Z"/></g>
<g><path style="opacity:0.967" fill="#3786e3" d="M 246.5,185.5 C 252.833,186.833 259.167,186.833 265.5,185.5C 282.412,188.581 293.578,198.248 299,214.5C 300.183,223.156 296.683,225.99 288.5,223C 284.934,208.878 275.934,200.712 261.5,198.5C 261.5,208.167 261.5,217.833 261.5,227.5C 257.5,227.5 253.5,227.5 249.5,227.5C 249.832,217.81 249.498,208.144 248.5,198.5C 239.142,200.333 232.142,205.333 227.5,213.5C 223.366,212.515 219.032,212.182 214.5,212.5C 219.607,197.069 230.274,188.069 246.5,185.5 Z"/></g>
<g><path style="opacity:0.951" fill="#3687e2" d="M 379.5,186.5 C 384.695,186.179 389.695,186.513 394.5,187.5C 388.519,196.141 382.186,204.475 375.5,212.5C 370.381,213.103 365.715,212.436 361.5,210.5C 367.147,202.193 373.147,194.193 379.5,186.5 Z"/></g>
<g><path style="opacity:0.932" fill="#3b82e4" d="M 122.5,202.5 C 122.5,209.5 122.5,216.5 122.5,223.5C 121.566,224.568 121.232,225.901 121.5,227.5C 117.5,227.5 113.5,227.5 109.5,227.5C 109.5,220.167 109.5,212.833 109.5,205.5C 113.5,205.5 117.5,205.5 121.5,205.5C 121.263,204.209 121.596,203.209 122.5,202.5 Z"/></g>
<g><path style="opacity:0.923" fill="#3b82e4" d="M 58.5,205.5 C 58.5,212.833 58.5,220.167 58.5,227.5C 54.1667,227.5 49.8333,227.5 45.5,227.5C 45.5,222.5 45.5,217.5 45.5,212.5C 46.4682,210.393 46.8016,208.059 46.5,205.5C 50.5,205.5 54.5,205.5 58.5,205.5 Z"/></g>
<g><path style="opacity:0.914" fill="#417de6" d="M 122.5,223.5 C 122.5,232.5 122.5,241.5 122.5,250.5C 118.5,250.5 114.5,250.5 110.5,250.5C 110.813,254.042 110.479,257.375 109.5,260.5C 109.5,249.5 109.5,238.5 109.5,227.5C 113.5,227.5 117.5,227.5 121.5,227.5C 121.232,225.901 121.566,224.568 122.5,223.5 Z"/></g>
<g><path style="opacity:0.927" fill="#417de6" d="M 45.5,227.5 C 49.8333,227.5 54.1667,227.5 58.5,227.5C 58.5,235.167 58.5,242.833 58.5,250.5C 54.1667,250.5 49.8333,250.5 45.5,250.5C 45.5,242.833 45.5,235.167 45.5,227.5 Z"/></g>
<g><path style="opacity:0.944" fill="#3f7fe5" d="M 361.5,210.5 C 365.715,212.436 370.381,213.103 375.5,212.5C 373.226,216.05 371.226,219.716 369.5,223.5C 378.839,223.334 388.173,223.5 397.5,224C 398.416,224.374 399.25,224.874 400,225.5C 401.457,237.065 401.957,248.732 401.5,260.5C 400.521,257.375 400.187,254.042 400.5,250.5C 396.5,250.5 392.5,250.5 388.5,250.5C 388.5,245.833 388.5,241.167 388.5,236.5C 381.159,236.666 373.826,236.5 366.5,236C 359.751,233.869 356.084,229.202 355.5,222C 356.085,217.326 358.085,213.492 361.5,210.5 Z"/></g>
<g><path style="opacity:0.955" fill="#3f7ee5" d="M 493.5,211.5 C 498.8,218.668 498.8,225.834 493.5,233C 491.725,234.439 489.725,235.439 487.5,236C 480.174,236.5 472.841,236.666 465.5,236.5C 465.5,241.167 465.5,245.833 465.5,250.5C 460.847,251.001 456.514,250.334 452.5,248.5C 452.334,241.159 452.5,233.826 453,226.5C 453.903,225.299 455.069,224.465 456.5,224C 465.851,223.832 475.184,223.332 484.5,222.5C 482.474,219.482 480.474,216.482 478.5,213.5C 483.398,212.787 488.398,212.121 493.5,211.5 Z"/></g>
<g><path style="opacity:0.974" fill="#427ce6" d="M 214.5,212.5 C 219.032,212.182 223.366,212.515 227.5,213.5C 223.689,226.057 227.356,235.89 238.5,243C 241.935,244.699 245.435,246.199 249,247.5C 249.5,240.842 249.666,234.175 249.5,227.5C 253.5,227.5 257.5,227.5 261.5,227.5C 261.5,235.167 261.5,242.833 261.5,250.5C 250.321,250.172 239.321,250.505 228.5,251.5C 218.277,244.735 212.943,235.068 212.5,222.5C 212.79,219.051 213.456,215.718 214.5,212.5 Z"/></g>
<g><path style="opacity:0.924" fill="#4778e8" d="M 452.5,248.5 C 456.514,250.334 460.847,251.001 465.5,250.5C 465.5,258.167 465.5,265.833 465.5,273.5C 464.566,272.432 464.232,271.099 464.5,269.5C 460.5,269.5 456.5,269.5 452.5,269.5C 452.5,262.5 452.5,255.5 452.5,248.5 Z"/></g>
<g><path style="opacity:0.923" fill="#4778e8" d="M 45.5,250.5 C 49.8333,250.5 54.1667,250.5 58.5,250.5C 58.5,256.833 58.5,263.167 58.5,269.5C 54.5,269.5 50.5,269.5 46.5,269.5C 46.7678,271.099 46.4345,272.432 45.5,273.5C 45.5,265.833 45.5,258.167 45.5,250.5 Z"/></g>
<g><path style="opacity:0.969" fill="#4778e8" d="M 261.5,250.5 C 268.608,253.159 275.608,256.326 282.5,260C 286.334,262.668 289.667,265.835 292.5,269.5C 285.833,269.5 279.167,269.5 272.5,269.5C 268.979,267.771 265.313,266.438 261.5,265.5C 261.5,266.833 261.5,268.167 261.5,269.5C 257.5,269.5 253.5,269.5 249.5,269.5C 249.777,266.552 249.444,263.719 248.5,261C 241.104,259.133 234.438,255.967 228.5,251.5C 239.321,250.505 250.321,250.172 261.5,250.5 Z"/></g>
<g><path style="opacity:0.935" fill="#4c74ea" d="M 122.5,250.5 C 122.5,258.5 122.5,266.5 122.5,274.5C 130.174,274.334 137.841,274.5 145.5,275C 154.174,279.55 156.84,286.383 153.5,295.5C 148.595,294.555 143.595,294.221 138.5,294.5C 139.957,292.372 140.957,290.038 141.5,287.5C 131.395,287.949 121.395,287.449 111.5,286C 110.874,285.25 110.374,284.416 110,283.5C 109.5,275.841 109.334,268.174 109.5,260.5C 110.479,257.375 110.813,254.042 110.5,250.5C 114.5,250.5 118.5,250.5 122.5,250.5 Z"/></g>
<g><path style="opacity:0.92" fill="#4c74e9" d="M 388.5,250.5 C 392.5,250.5 396.5,250.5 400.5,250.5C 400.187,254.042 400.521,257.375 401.5,260.5C 401.5,273.167 401.5,285.833 401.5,298.5C 400.566,297.432 400.232,296.099 400.5,294.5C 396.5,294.5 392.5,294.5 388.5,294.5C 388.5,279.833 388.5,265.167 388.5,250.5 Z"/></g>
<g><path style="opacity:0.938" fill="#4e73ea" d="M 58.5,269.5 C 58.6659,274.511 58.4993,279.511 58,284.5C 57.5,285 57,285.5 56.5,286C 46.5814,287.119 36.5814,287.952 26.5,288.5C 27.2599,290.36 28.2599,292.027 29.5,293.5C 24.8333,294.167 20.1667,294.833 15.5,295.5C 11.0297,285.934 13.6964,279.101 23.5,275C 31.0115,274.829 38.3448,274.329 45.5,273.5C 46.4345,272.432 46.7678,271.099 46.5,269.5C 50.5,269.5 54.5,269.5 58.5,269.5 Z"/></g>
<g><path style="opacity:1" fill="#4e73ea" d="M 249.5,269.5 C 253.5,269.5 257.5,269.5 261.5,269.5C 261.5,277.833 261.5,286.167 261.5,294.5C 257.5,294.5 253.5,294.5 249.5,294.5C 249.5,286.167 249.5,277.833 249.5,269.5 Z"/></g>
<g><path style="opacity:0.942" fill="#4d73ea" d="M 272.5,269.5 C 279.167,269.5 285.833,269.5 292.5,269.5C 298.55,277.021 300.883,285.688 299.5,295.5C 295.167,294.833 290.833,294.167 286.5,293.5C 286.997,282.495 282.33,274.495 272.5,269.5 Z"/></g>
<g><path style="opacity:0.952" fill="#4e73ea" d="M 452.5,269.5 C 456.5,269.5 460.5,269.5 464.5,269.5C 464.232,271.099 464.566,272.432 465.5,273.5C 465.5,280.167 465.5,286.833 465.5,293.5C 461.265,294.436 456.931,294.769 452.5,294.5C 452.5,286.167 452.5,277.833 452.5,269.5 Z"/></g>
<g><path style="opacity:0.973" fill="#546dec" d="M 249.5,294.5 C 253.5,294.5 257.5,294.5 261.5,294.5C 261.5,300.5 261.5,306.5 261.5,312.5C 274.569,312.156 282.903,305.823 286.5,293.5C 290.833,294.167 295.167,294.833 299.5,295.5C 298.415,303.677 294.748,310.343 288.5,315.5C 267.993,315.17 247.66,315.503 227.5,316.5C 217.08,309.661 211.913,299.994 212,287.5C 215.39,283.968 219.057,283.634 223,286.5C 226.182,300.849 235.015,309.182 249.5,311.5C 249.5,305.833 249.5,300.167 249.5,294.5 Z"/></g>
<g><path style="opacity:0.928" fill="#546dec" d="M 388.5,294.5 C 392.5,294.5 396.5,294.5 400.5,294.5C 400.232,296.099 400.566,297.432 401.5,298.5C 401.5,304.5 401.5,310.5 401.5,316.5C 397.265,315.564 392.931,315.231 388.5,315.5C 388.5,308.5 388.5,301.5 388.5,294.5 Z"/></g>
<g><path style="opacity:0.981" fill="#556dec" d="M 465.5,293.5 C 465.5,303.833 465.5,314.167 465.5,324.5C 464.549,323.081 464.216,321.415 464.5,319.5C 460.5,319.5 456.5,319.5 452.5,319.5C 452.5,311.167 452.5,302.833 452.5,294.5C 456.931,294.769 461.265,294.436 465.5,293.5 Z"/></g>
<g><path style="opacity:0.966" fill="#586aed" d="M 29.5,293.5 C 40.1352,307.81 50.8018,322.143 61.5,336.5C 56.6946,337.487 51.6946,337.821 46.5,337.5C 35.4021,324.068 25.0688,310.068 15.5,295.5C 20.1667,294.833 24.8333,294.167 29.5,293.5 Z"/></g>
<g><path style="opacity:0.955" fill="#586aee" d="M 138.5,294.5 C 143.595,294.221 148.595,294.555 153.5,295.5C 144.252,308.316 134.752,320.982 125,333.5C 123.097,335.441 122.264,337.774 122.5,340.5C 121.596,339.791 121.263,338.791 121.5,337.5C 116.5,337.5 111.5,337.5 106.5,337.5C 116.438,322.623 127.105,308.289 138.5,294.5 Z"/></g>
<g><path style="opacity:0.969" fill="#5a68ee" d="M 288.5,315.5 C 280.776,321.967 271.776,325.301 261.5,325.5C 261.666,332.841 261.5,340.174 261,347.5C 257.333,351.5 253.667,351.5 250,347.5C 249.831,340.144 249.331,332.811 248.5,325.5C 240.653,324.226 233.653,321.226 227.5,316.5C 247.66,315.503 267.993,315.17 288.5,315.5 Z"/></g>
<g><path style="opacity:0.93" fill="#5a68ee" d="M 388.5,315.5 C 392.931,315.231 397.265,315.564 401.5,316.5C 401.5,323.5 401.5,330.5 401.5,337.5C 397.5,337.5 393.5,337.5 389.5,337.5C 389.737,338.791 389.404,339.791 388.5,340.5C 388.5,332.167 388.5,323.833 388.5,315.5 Z"/></g>
<g><path style="opacity:0.941" fill="#5d66ef" d="M 452.5,319.5 C 456.5,319.5 460.5,319.5 464.5,319.5C 464.216,321.415 464.549,323.081 465.5,324.5C 465.5,330.167 465.5,335.833 465.5,341.5C 464.527,343.948 464.194,346.615 464.5,349.5C 460.5,349.5 456.5,349.5 452.5,349.5C 452.5,339.5 452.5,329.5 452.5,319.5 Z"/></g>
<g><path style="opacity:0.969" fill="#6461f1" d="M 61.5,336.5 C 68.7624,346.436 76.4291,356.102 84.5,365.5C 91.5064,355.837 98.8398,346.503 106.5,337.5C 111.5,337.5 116.5,337.5 121.5,337.5C 121.263,338.791 121.596,339.791 122.5,340.5C 122.5,354.833 122.5,369.167 122.5,383.5C 118.5,383.5 114.5,383.5 110.5,383.5C 110.806,386.385 110.473,389.052 109.5,391.5C 109.667,379.495 109.5,367.495 109,355.5C 104.045,361.911 99.2115,368.411 94.5,375C 85.621,380.588 77.7876,379.422 71,371.5C 62.5789,360.314 54.4122,348.981 46.5,337.5C 51.6946,337.821 56.6946,337.487 61.5,336.5 Z"/></g>
<g><path style="opacity:0.939" fill="#655ff2" d="M 401.5,337.5 C 401.5,346.833 401.5,356.167 401.5,365.5C 418.5,365.5 435.5,365.5 452.5,365.5C 452.5,360.167 452.5,354.833 452.5,349.5C 456.5,349.5 460.5,349.5 464.5,349.5C 464.194,346.615 464.527,343.948 465.5,341.5C 465.666,350.173 465.5,358.84 465,367.5C 464.036,371.468 461.869,374.635 458.5,377C 439.593,378.475 420.593,378.975 401.5,378.5C 401.5,382.833 401.5,387.167 401.5,391.5C 400.527,389.052 400.194,386.385 400.5,383.5C 396.5,383.5 392.5,383.5 388.5,383.5C 388.5,369.167 388.5,354.833 388.5,340.5C 389.404,339.791 389.737,338.791 389.5,337.5C 393.5,337.5 397.5,337.5 401.5,337.5 Z"/></g>
<g><path style="opacity:0.923" fill="#7155f6" d="M 122.5,383.5 C 122.5,398.167 122.5,412.833 122.5,427.5C 118.5,427.5 114.5,427.5 110.5,427.5C 110.784,425.585 110.451,423.919 109.5,422.5C 109.5,412.167 109.5,401.833 109.5,391.5C 110.473,389.052 110.806,386.385 110.5,383.5C 114.5,383.5 118.5,383.5 122.5,383.5 Z"/></g>
<g><path style="opacity:0.923" fill="#7155f6" d="M 388.5,383.5 C 392.5,383.5 396.5,383.5 400.5,383.5C 400.194,386.385 400.527,389.052 401.5,391.5C 401.5,401.833 401.5,412.167 401.5,422.5C 400.549,423.919 400.216,425.585 400.5,427.5C 396.5,427.5 392.5,427.5 388.5,427.5C 388.5,412.833 388.5,398.167 388.5,383.5 Z"/></g>
<g><path style="opacity:0.948" fill="#7a4ef8" d="M 109.5,422.5 C 110.451,423.919 110.784,425.585 110.5,427.5C 114.5,427.5 118.5,427.5 122.5,427.5C 122.5,433.167 122.5,438.833 122.5,444.5C 211.167,444.5 299.833,444.5 388.5,444.5C 388.5,438.833 388.5,433.167 388.5,427.5C 392.5,427.5 396.5,427.5 400.5,427.5C 400.216,425.585 400.549,423.919 401.5,422.5C 401.5,429.833 401.5,437.167 401.5,444.5C 353.044,445.829 304.377,446.495 255.5,446.5C 206.623,446.495 157.956,445.829 109.5,444.5C 109.5,437.167 109.5,429.833 109.5,422.5 Z"/></g>
<g><path style="opacity:0.962" fill="#7e4bfa" d="M 109.5,444.5 C 157.956,445.829 206.623,446.495 255.5,446.5C 304.377,446.495 353.044,445.829 401.5,444.5C 401.5,453.833 401.5,463.167 401.5,472.5C 396.968,472.818 392.634,472.485 388.5,471.5C 388.5,466.833 388.5,462.167 388.5,457.5C 299.833,457.5 211.167,457.5 122.5,457.5C 121.59,465.943 122.923,473.943 126.5,481.5C 122.167,482.167 117.833,482.833 113.5,483.5C 111.469,480.578 110.302,477.245 110,473.5C 109.5,463.839 109.334,454.172 109.5,444.5 Z"/></g>
<g><path style="opacity:0.993" fill="#8a41fe" d="M 388.5,471.5 C 392.634,472.485 396.968,472.818 401.5,472.5C 398.256,490.243 387.923,501.41 370.5,506C 293.833,506.667 217.167,506.667 140.5,506C 127.502,503.184 118.502,495.684 113.5,483.5C 117.833,482.833 122.167,482.167 126.5,481.5C 132.08,489.293 139.746,493.46 149.5,494C 220.167,494.667 290.833,494.667 361.5,494C 375.884,492.771 384.884,485.271 388.5,471.5 Z"/></g>
</svg>
