<svg width="64" height="64" viewBox="0 0 64 64" fill="none" xmlns="http://www.w3.org/2000/svg">
<path d="M52.5467 43.6133L48.8 41.84L48.84 27.4667C48.84 20.3467 44.3733 14.2667 38.0933 11.8533V11.2C38.08 7.96 35.36 5.33333 32 5.33333C28.64 5.33333 25.92 7.96 25.92 11.2V11.9067C19.7333 14.3733 15.3333 20.4133 15.3333 27.4667L15.2933 41.84L11.4667 43.6C10.1867 44.0933 9.33334 45.3333 9.33334 46.7067V50.1467C9.33334 51.9867 10.8267 53.48 12.6667 53.48H25.32C25.9733 56.56 28.72 58.8933 32 58.8933C35.28 58.8933 38.0267 56.5733 38.68 53.48H51.3333C53.1733 53.48 54.6667 51.9867 54.6667 50.1467V46.7067C54.6667 45.3333 53.8133 44.1067 52.5467 43.6133ZM32 9.33333C32.92 9.33333 33.6933 9.86667 33.9733 10.6C33.4267 10.5333 32.88 10.5067 32.3467 10.4933C31.5867 10.4933 30.8133 10.52 30.04 10.6C30.3067 9.86667 31.08 9.33333 32 9.33333ZM32 54.8933C30.96 54.8933 30.0533 54.32 29.56 53.48H34.44C33.9467 54.32 33.04 54.8933 32 54.8933ZM50.6667 49.48H13.3333V47.1467L17.16 45.3733C18.44 44.88 19.2933 43.6533 19.2933 42.2667L19.3333 27.4667C19.3333 20.44 25.0533 14.72 32.08 14.72C39.1067 14.72 44.8267 20.44 44.8267 27.4667L44.7867 42.2667C44.7867 43.6533 45.6267 44.88 46.9067 45.3867L50.6667 47.1467V49.48Z" fill="white"/>
<path d="M30.6667 18.0533C25.7067 18.0533 21.6801 22.08 21.6801 27.04C21.6801 28.1467 22.5734 29.04 23.6801 29.04C24.7867 29.04 25.6801 28.1467 25.6801 27.04C25.6801 24.2933 27.9201 22.0533 30.6667 22.0533C31.7734 22.0533 32.6667 21.16 32.6667 20.0533C32.6667 18.9467 31.7734 18.0533 30.6667 18.0533Z" fill="white"/>
</svg>
