<svg width="64" height="64" viewBox="0 0 64 64" fill="none" xmlns="http://www.w3.org/2000/svg">
<path d="M26.6667 29.3333H13.3333C11.8667 29.3333 10.6667 28.1333 10.6667 26.6667V13.3333C10.6667 11.8667 11.8667 10.6667 13.3333 10.6667H26.6667C28.1333 10.6667 29.3333 11.8667 29.3333 13.3333V26.6667C29.3333 28.1333 28.1333 29.3333 26.6667 29.3333Z" stroke="white" stroke-width="4" stroke-miterlimit="10"/>
<path d="M26.6667 54.64H13.3333C11.8667 54.64 10.6667 53.44 10.6667 51.9733V38.64C10.6667 37.1733 11.8667 35.9733 13.3333 35.9733H26.6667C28.1333 35.9733 29.3333 37.1733 29.3333 38.64V51.9733C29.3333 53.44 28.1333 54.64 26.6667 54.64Z" stroke="white" stroke-width="4" stroke-miterlimit="10"/>
<path d="M52 29.3334H38.6667C37.2 29.3334 36 28.1334 36 26.6667V13.3334C36 11.8667 37.2 10.6667 38.6667 10.6667H52C53.4667 10.6667 54.6667 11.8667 54.6667 13.3334V26.6667C54.6667 28.1334 53.4667 29.3334 52 29.3334Z" stroke="white" stroke-width="4" stroke-miterlimit="10"/>
<path d="M45.3333 54.64C40.1733 54.64 36 50.4667 36 45.3067C36 40.1467 40.1733 35.9733 45.3333 35.9733C50.4933 35.9733 54.6667 40.1467 54.6667 45.3067C54.6667 50.4667 50.4933 54.64 45.3333 54.64Z" stroke="white" stroke-width="4" stroke-miterlimit="10"/>
</svg>
